<?xml version="1.0" standalone="no"?>
<!DOCTYPE svg PUBLIC "-//W3C//DTD SVG 20010904//EN"
 "http://www.w3.org/TR/2001/REC-SVG-20010904/DTD/svg10.dtd">
<svg version="1.0" xmlns="http://www.w3.org/2000/svg"
 width="767.000000pt" height="974.000000pt" viewBox="0 0 767.000000 974.000000"
 preserveAspectRatio="xMidYMid meet">
<metadata>
Created by potrace 1.15, written by Peter Selinger 2001-2017
</metadata>
<g transform="translate(0.000000,974.000000) scale(0.100000,-0.100000)"
fill="#000000" stroke="none">
<path d="M10 5530 c0 -2310 3 -4200 6 -4200 3 0 67 17 142 39 423 119 577 120
807 4 86 -44 337 -229 390 -288 6 -6 20 -18 33 -27 12 -8 39 -31 60 -50 208
-191 321 -216 468 -104 66 51 123 64 298 72 138 6 156 5 184 -12 32 -18 54
-59 67 -124 34 -174 103 -319 182 -383 12 -9 29 -42 37 -71 19 -65 62 -106
109 -106 51 0 61 12 58 67 -1 26 -9 56 -18 65 -15 17 -15 18 3 20 10 0 26 0
34 0 8 -1 79 -2 158 -3 158 -1 175 4 187 62 7 33 -19 95 -43 104 -23 8 -72 52
-72 64 0 18 40 33 107 41 42 6 78 17 104 34 21 15 63 35 92 46 57 22 182 121
204 164 10 19 32 130 33 168 0 20 64 38 131 38 61 0 76 -4 96 -22 18 -17 43
-24 101 -31 105 -11 130 -10 161 12 71 51 121 55 121 9 0 -10 12 -31 28 -48
21 -24 38 -32 79 -37 44 -5 58 -2 97 21 25 15 71 30 108 35 72 10 114 27 178
74 45 32 45 32 152 29 94 -2 114 0 174 23 38 14 75 32 84 40 8 8 32 16 51 18
20 2 59 12 88 22 49 18 53 18 80 2 37 -22 40 -22 103 7 29 13 64 27 78 30 63
18 78 27 73 47 -3 10 0 32 7 49 10 24 9 39 -5 84 -22 71 -46 92 -115 100 -66
8 -190 46 -208 63 -20 19 -146 17 -162 -2 -13 -16 -57 -38 -96 -50 -12 -3 -27
-19 -34 -34 -16 -40 -95 -57 -139 -30 -27 18 -82 3 -179 -47 -47 -24 -94 -44
-104 -44 -22 0 -23 23 -3 53 8 12 23 58 33 102 11 44 31 103 46 132 33 62 37
101 13 117 -14 9 -30 5 -82 -22 -71 -37 -108 -79 -140 -159 -14 -34 -40 -71
-72 -101 -32 -30 -56 -64 -68 -95 -19 -54 -50 -73 -100 -62 -16 4 -70 10 -120
14 -72 7 -91 12 -100 27 -5 11 -26 35 -46 55 -67 66 -76 110 -33 173 26 37 26
41 21 160 -6 143 -19 196 -48 196 -29 0 -59 -71 -59 -142 0 -50 -3 -60 -24
-73 -40 -26 -68 -100 -80 -210 -10 -92 -13 -100 -31 -96 -11 2 -55 3 -99 3
-74 -1 -112 -14 -100 -33 3 -5 0 -9 -5 -9 -6 0 -11 -6 -11 -14 0 -8 -10 -16
-22 -18 -14 -2 -25 -13 -30 -33 -10 -38 -39 -72 -69 -84 -13 -4 -123 -10 -243
-12 l-219 -4 -10 30 c-5 17 -12 64 -16 105 l-6 75 -66 5 c-65 5 -78 11 -131
59 -24 21 -28 33 -28 75 0 91 -36 127 -165 167 -64 20 -76 27 -85 53 -18 53
-13 92 16 111 l27 17 -7 101 c-6 90 -24 156 -40 150 -12 -5 -36 9 -30 18 3 5
-2 9 -10 9 -8 0 -34 27 -56 60 -22 33 -52 67 -65 76 -43 28 -50 72 -50 299 l0
210 38 69 39 68 -1 136 c-1 75 -5 140 -9 144 -14 14 -48 -3 -66 -33 -9 -16
-21 -53 -26 -83 -5 -32 -17 -63 -29 -75 -11 -11 -28 -37 -36 -58 -27 -65 -51
-83 -110 -83 -35 0 -60 -6 -76 -18 -26 -20 -60 -36 -71 -34 -5 1 -8 -2 -8 -8
0 -5 -22 -21 -49 -35 -51 -25 -85 -60 -97 -98 -8 -27 -38 -57 -57 -57 -29 0
-38 25 -22 63 8 20 15 46 15 57 0 12 20 49 43 84 30 44 46 79 51 112 6 50 -6
73 -30 53 -17 -14 -60 -1 -86 27 -13 13 -28 24 -35 24 -18 0 -26 37 -15 73 5
17 10 72 11 121 0 74 -3 96 -21 127 -18 32 -19 41 -8 54 7 9 13 35 13 59 0 39
4 44 39 65 30 17 38 27 38 50 0 16 6 31 12 34 9 2 13 24 12 63 0 42 5 64 17
77 24 26 29 73 14 131 -12 46 -12 50 9 67 97 81 96 79 96 123 0 27 7 49 19 62
31 34 41 61 41 109 0 30 11 71 30 115 16 38 30 80 30 94 0 16 7 27 20 31 11 3
25 16 31 28 12 21 22 30 84 81 41 33 113 43 153 22 17 -9 50 -16 74 -16 39 -1
46 -5 71 -41 30 -44 60 -59 114 -59 25 0 45 -9 71 -31 33 -29 39 -31 91 -25
51 6 61 4 105 -24 42 -27 50 -29 65 -17 9 8 28 17 43 21 25 6 77 48 79 64 0 4
3 16 6 27 13 50 14 109 3 131 -7 13 -16 21 -21 19 -4 -3 -13 1 -21 8 -7 8 -18
12 -23 10 -6 -2 -12 8 -13 21 -1 22 5 27 52 40 30 9 56 22 59 29 3 8 11 47 18
88 16 97 8 139 -31 162 -17 10 -30 22 -30 28 0 5 -13 9 -30 9 -16 0 -30 5 -30
12 0 6 -3 9 -6 5 -10 -10 -56 52 -50 68 8 21 35 19 75 -6 21 -13 43 -18 57
-15 13 4 29 0 37 -9 19 -19 162 -31 199 -16 15 5 35 25 44 43 26 50 19 104
-21 169 -19 32 -35 62 -35 68 0 10 -89 41 -119 41 -9 0 -36 13 -61 30 -24 16
-66 35 -92 41 -34 9 -48 18 -48 30 0 22 32 33 91 30 95 -4 194 68 201 145 2
30 8 39 23 42 11 1 43 7 72 13 l51 10 -9 32 c-5 18 -9 60 -9 95 0 35 -6 75
-14 90 -8 15 -16 43 -19 62 -22 140 -42 200 -68 200 -4 0 -13 9 -19 20 -9 18
-6 27 19 56 17 19 34 47 37 62 4 15 16 37 28 50 31 35 26 86 -14 152 -18 30
-45 67 -58 83 -14 15 -22 27 -16 27 5 1 -1 9 -14 20 -13 10 -28 17 -35 15 -7
-2 -27 16 -45 41 -18 24 -37 42 -42 39 -4 -3 -15 2 -24 10 -10 10 -24 13 -41
9 -15 -4 -25 -2 -25 5 0 6 -7 8 -17 4 -12 -5 -14 -3 -8 7 6 10 4 12 -8 7 -10
-3 -17 -2 -17 3 0 5 -7 7 -15 4 -8 -4 -15 -2 -15 4 0 6 -9 8 -20 5 -11 -3 -20
0 -20 6 0 6 -7 11 -16 11 -8 0 -12 -4 -9 -10 3 -5 -3 -10 -15 -10 -12 0 -18 5
-15 10 6 9 -8 14 -27 11 -5 0 -8 3 -8 8 0 5 -10 7 -22 3 -13 -3 -19 -1 -15 5
4 6 0 13 -8 17 -21 8 -19 39 6 70 20 26 25 27 78 21 42 -5 68 -2 97 10 23 9
56 15 75 14 19 -1 41 -1 50 0 18 1 79 51 64 52 -5 0 0 4 13 9 12 5 22 16 22
25 0 8 6 15 14 15 23 0 46 -11 46 -22 0 -11 109 -118 120 -118 4 0 18 -10 31
-21 13 -12 48 -35 78 -52 39 -22 57 -40 68 -66 8 -20 23 -54 34 -77 10 -22 19
-49 19 -60 0 -27 24 -69 38 -67 11 3 16 -9 13 -29 0 -4 8 -6 18 -5 16 1 18 5
9 21 -17 31 -3 138 25 197 39 81 70 133 90 147 9 7 17 23 17 34 0 12 3 18 7
15 3 -4 12 1 19 11 9 12 13 13 14 4 0 -8 12 1 26 18 30 35 159 104 180 96 8
-3 14 -1 14 4 0 11 69 31 110 32 18 1 27 5 23 13 -6 18 36 55 62 55 29 0 65
-28 65 -51 0 -15 7 -19 33 -19 43 0 178 -57 252 -106 33 -21 71 -41 85 -44 19
-4 25 -12 25 -33 1 -15 7 -33 13 -39 23 -23 33 12 26 89 -8 88 0 123 25 123
28 0 37 -17 61 -116 24 -105 43 -129 116 -148 45 -11 48 -14 64 -65 10 -29 29
-65 43 -79 13 -15 27 -39 31 -55 9 -37 40 -67 70 -67 15 0 40 15 63 36 21 20
53 41 71 46 20 5 37 19 44 34 21 45 70 25 121 -49 24 -37 85 -54 136 -39 60
18 91 48 91 86 0 41 29 76 77 92 42 15 56 11 73 -20 46 -87 198 -46 231 62 13
46 30 52 67 26 47 -33 102 16 102 90 0 28 8 43 40 75 22 22 40 44 40 50 0 6 9
11 19 11 13 0 26 15 40 46 12 25 40 63 63 85 l41 39 -6 74 c-6 80 -21 119 -61
153 -14 13 -26 26 -26 30 0 5 11 30 25 57 14 27 25 58 25 68 0 13 10 20 30 25
38 7 90 67 83 94 -4 12 3 29 15 42 28 30 36 70 22 109 -7 18 -15 65 -20 104
-9 85 -28 117 -107 175 -30 22 -57 47 -60 56 -7 18 49 66 86 73 17 4 27 14 33
36 7 29 13 33 77 49 82 20 237 103 297 160 32 31 45 51 50 82 8 50 27 58 85
35 33 -13 48 -13 90 -4 28 7 64 12 81 12 41 0 93 33 107 69 10 23 9 40 -3 87
l-15 59 38 35 c21 20 42 47 46 60 8 26 87 134 108 147 19 13 92 105 110 139 9
18 32 41 51 52 42 25 62 54 74 109 l10 43 -3784 0 -3784 0 0 -4200z"/>
</g>
</svg>
