<?xml version="1.0" standalone="no"?>
<!DOCTYPE svg PUBLIC "-//W3C//DTD SVG 20010904//EN"
 "http://www.w3.org/TR/2001/REC-SVG-20010904/DTD/svg10.dtd">
<svg version="1.0" xmlns="http://www.w3.org/2000/svg"
 width="266.000000pt" height="249.000000pt" viewBox="0 0 266.000000 249.000000"
 preserveAspectRatio="xMidYMid meet">
<metadata>
Created by potrace 1.15, written by Peter Selinger 2001-2017
</metadata>
<g transform="translate(0.000000,249.000000) scale(0.100000,-0.100000)"
fill="#000000" stroke="none">
<path d="M1653 2472 c-7 -4 -23 -28 -36 -52 -19 -37 -35 -51 -93 -80 -75 -38
-154 -93 -193 -134 -18 -19 -22 -32 -17 -55 3 -17 9 -44 12 -60 12 -56 -25
-113 -113 -174 -110 -78 -137 -110 -184 -217 -35 -82 -101 -198 -156 -277 -12
-18 -12 -23 -2 -23 25 0 164 42 187 57 40 25 57 14 54 -37 -2 -26 6 -70 18
-104 11 -33 20 -65 20 -72 0 -7 -31 -31 -69 -53 -107 -63 -158 -135 -192 -272
-16 -64 -29 -92 -54 -119 -18 -19 -39 -48 -46 -65 -14 -30 -44 -44 -60 -28 -4
4 0 41 11 82 l19 74 -61 -7 c-72 -7 -127 -33 -200 -92 -54 -45 -74 -50 -72
-20 1 9 -2 16 -7 16 -5 0 -9 -16 -9 -35 0 -24 5 -35 15 -35 12 0 15 -13 15
-57 0 -32 -5 -65 -10 -73 -8 -12 -45 -16 -215 -18 -113 -2 -205 -5 -205 -7 0
-2 5 -15 11 -28 8 -18 17 -23 31 -19 14 3 33 -10 69 -49 27 -29 49 -60 49 -69
-1 -8 -21 -31 -45 -50 l-45 -35 0 -77 c0 -52 -4 -78 -12 -81 -7 -2 17 -3 53
-3 37 1 65 4 63 7 -4 7 40 29 57 29 20 0 3 -24 -22 -31 -13 -4 37 -6 111 -6
115 2 135 0 132 -13 -15 -62 -14 -80 2 -80 10 0 16 8 16 23 0 25 76 87 108 87
37 0 92 22 120 48 32 30 127 51 267 59 45 3 76 10 88 20 11 10 45 19 91 22 51
5 81 12 95 25 11 10 24 15 30 12 6 -4 21 -1 33 5 13 7 35 12 50 11 31 -3 94
32 109 59 9 19 38 26 40 12 1 -5 3 -30 4 -58 2 -27 14 -72 28 -100 13 -27 27
-72 31 -98 3 -27 8 -53 12 -58 12 -19 38 -7 97 46 33 30 86 72 118 92 31 21
64 50 73 64 14 23 23 27 59 27 79 0 177 59 177 106 0 30 66 89 130 118 55 25
184 122 246 186 20 21 39 56 49 89 9 30 33 80 52 110 29 43 38 67 41 112 4 62
-1 76 -61 153 -26 35 -27 40 -17 80 15 53 8 99 -27 179 -23 53 -25 63 -12 73
15 12 20 98 5 89 -5 -3 -7 0 -4 7 4 12 -67 90 -82 90 -4 0 -21 13 -36 28 -30
30 -59 44 -131 62 -24 6 -43 16 -43 21 0 6 -6 9 -13 6 -19 -7 -74 38 -95 76
-13 26 -17 64 -19 192 -3 176 -4 180 -21 213 -7 12 -10 22 -6 22 4 0 -1 9 -11
20 -10 11 -25 20 -34 20 -13 0 -13 2 -2 9 9 6 4 10 -18 13 -17 2 -34 1 -39 -4
-5 -5 -45 -11 -89 -15 l-81 -6 -26 42 c-33 51 -81 74 -113 53z"/>
</g>
</svg>
