<?xml version="1.0" standalone="no"?>
<!DOCTYPE svg PUBLIC "-//W3C//DTD SVG 20010904//EN"
 "http://www.w3.org/TR/2001/REC-SVG-20010904/DTD/svg10.dtd">
<svg version="1.0" xmlns="http://www.w3.org/2000/svg"
 width="407.000000pt" height="309.000000pt" viewBox="0 0 407.000000 309.000000"
 preserveAspectRatio="xMidYMid meet">
<metadata>
Created by potrace 1.15, written by Peter Selinger 2001-2017
</metadata>
<g transform="translate(0.000000,309.000000) scale(0.100000,-0.100000)"
fill="#000000" stroke="none">
<path d="M2855 3061 c-167 -46 -175 -52 -222 -175 -24 -65 -58 -82 -193 -95
-88 -8 -116 -16 -179 -47 -104 -52 -206 -155 -290 -296 -80 -133 -161 -224
-257 -287 -129 -84 -177 -86 -332 -14 -92 43 -164 53 -211 29 -17 -9 -56 -39
-87 -66 -46 -43 -60 -50 -94 -50 -23 0 -57 7 -77 15 -79 33 -120 14 -220 -107
-144 -171 -266 -258 -370 -261 -40 -2 -58 5 -110 36 -73 46 -83 44 -132 -37
-32 -54 -34 -60 -28 -129 3 -40 13 -89 21 -109 20 -47 20 -91 1 -153 -14 -47
-13 -50 6 -68 26 -25 21 -48 -31 -128 -43 -67 -44 -71 -29 -139 5 -25 16 -76
24 -115 7 -38 21 -88 29 -110 19 -51 20 -99 1 -161 -39 -127 -1 -246 129 -402
l49 -59 126 -8 c206 -14 234 -12 379 19 106 24 168 11 321 -65 l123 -62 112 6
c227 13 537 79 599 127 27 21 94 38 137 34 14 -1 67 -5 118 -9 l93 -8 42 40
c70 66 131 111 183 135 42 19 71 23 197 26 165 5 159 2 172 82 14 93 36 140
89 193 65 65 120 95 270 146 160 55 209 83 246 141 43 67 160 176 216 202 73
33 197 31 282 -5 63 -26 63 -26 56 -4 -4 12 -16 40 -27 62 -17 34 -19 51 -13
130 5 80 25 169 53 245 13 34 6 136 -14 187 -13 37 -14 53 -4 120 7 43 11 116
8 163 l-4 86 -78 139 c-138 244 -172 343 -141 416 19 45 8 94 -36 157 -47 68
-95 97 -184 112 -108 17 -432 95 -480 115 -61 26 -158 28 -239 6z"/>
</g>
</svg>
