<?xml version="1.0" standalone="no"?>
<!DOCTYPE svg PUBLIC "-//W3C//DTD SVG 20010904//EN"
 "http://www.w3.org/TR/2001/REC-SVG-20010904/DTD/svg10.dtd">
<svg version="1.0" xmlns="http://www.w3.org/2000/svg"
 width="469.000000pt" height="277.000000pt" viewBox="0 0 469.000000 277.000000"
 preserveAspectRatio="xMidYMid meet">
<metadata>
Created by potrace 1.15, written by Peter Selinger 2001-2017
</metadata>
<g transform="translate(0.000000,277.000000) scale(0.100000,-0.100000)"
fill="#000000" stroke="none">
<path d="M1480 2713 c-20 -74 -37 -101 -81 -130 -22 -15 -49 -43 -59 -62 -10
-20 -50 -70 -89 -113 -39 -42 -71 -83 -71 -92 0 -9 -9 -21 -20 -28 -11 -7 -20
-23 -20 -36 0 -12 -18 -42 -40 -66 -41 -44 -41 -44 -29 -90 9 -36 9 -53 -1
-76 -18 -43 -73 -88 -117 -95 -21 -3 -66 -11 -100 -17 -47 -9 -72 -9 -100 0
-21 6 -39 8 -41 3 -19 -55 -54 -101 -107 -138 -84 -59 -224 -129 -275 -138
-38 -6 -44 -12 -58 -46 -12 -31 -20 -39 -41 -39 -14 0 -33 -5 -41 -10 -12 -9
-5 -20 41 -63 75 -70 96 -108 110 -202 23 -160 23 -175 0 -206 -12 -15 -21
-38 -21 -50 0 -33 -39 -85 -82 -109 -21 -12 -38 -29 -39 -38 0 -9 -8 -30 -18
-47 -18 -30 -17 -30 10 -65 29 -36 59 -134 59 -190 0 -41 -25 -94 -59 -123
-14 -12 -38 -42 -53 -67 -14 -25 -49 -67 -77 -93 -44 -41 -51 -53 -51 -86 0
-48 19 -65 115 -102 17 -7 123 -15 250 -18 156 -5 227 -11 245 -21 43 -23 89
-30 105 -14 7 8 20 14 28 14 12 0 100 38 222 95 86 40 114 47 195 49 82 2 88
4 129 36 23 19 81 86 129 150 161 214 332 360 420 360 39 0 161 64 192 101 3
3 39 26 80 50 l75 44 141 0 c108 0 145 3 160 15 28 21 148 124 154 131 12 15
91 49 128 55 92 15 385 -95 556 -208 32 -21 60 -37 61 -36 1 2 7 25 14 52 7
27 26 69 43 93 30 45 108 103 137 103 9 0 61 27 116 60 55 33 128 74 163 91
103 51 214 50 273 -3 182 -160 351 -257 455 -261 48 -2 58 1 54 13 -2 8 -7 58
-10 110 -4 52 -14 127 -24 165 -13 51 -16 89 -12 141 6 64 4 77 -25 145 -39
94 -51 145 -44 181 5 20 0 36 -15 58 -12 16 -24 47 -27 67 -4 20 -12 48 -20
63 -7 14 -13 35 -13 48 0 12 -4 22 -10 22 -5 0 -10 18 -10 40 0 36 -3 40 -24
40 -14 0 -38 13 -54 30 -17 17 -36 30 -43 30 -6 0 -30 19 -53 43 -31 31 -46
58 -59 102 -19 70 -30 118 -30 125 14 174 13 210 -5 228 -19 19 -36 52 -34 64
1 4 -594 8 -1322 8 l-1323 0 -13 -47z"/>
</g>
</svg>
