<?xml version="1.0" standalone="no"?>
<!DOCTYPE svg PUBLIC "-//W3C//DTD SVG 20010904//EN"
 "http://www.w3.org/TR/2001/REC-SVG-20010904/DTD/svg10.dtd">
<svg version="1.0" xmlns="http://www.w3.org/2000/svg"
 width="444.000000pt" height="268.000000pt" viewBox="0 0 444.000000 268.000000"
 preserveAspectRatio="xMidYMid meet">
<metadata>
Created by potrace 1.15, written by Peter Selinger 2001-2017
</metadata>
<g transform="translate(0.000000,268.000000) scale(0.100000,-0.100000)"
fill="#000000" stroke="none">
<path d="M4364 2644 c-10 -14 -44 -46 -78 -72 -33 -26 -83 -67 -111 -91 -27
-24 -81 -59 -120 -77 -60 -28 -76 -41 -102 -82 -37 -60 -86 -86 -210 -111
-111 -23 -115 -25 -137 -61 -22 -39 -90 -84 -179 -121 -59 -24 -82 -42 -129
-93 -78 -86 -133 -110 -243 -104 -65 4 -98 12 -178 46 -96 40 -254 86 -352
102 -100 16 -239 -20 -312 -81 -27 -22 -64 -44 -84 -49 -42 -12 -221 -31 -227
-25 -3 3 0 10 6 17 5 7 13 34 17 61 9 60 -7 101 -46 117 -39 17 -297 10 -308
-8 -16 -27 -191 48 -191 82 0 7 -24 33 -53 58 -29 25 -61 64 -71 87 -11 22
-26 41 -34 41 -23 0 -332 152 -327 160 3 4 -6 10 -19 12 -18 4 -28 -2 -40 -24
-15 -24 -23 -28 -61 -28 -24 0 -46 4 -49 8 -7 12 -74 13 -81 2 -8 -13 -95 -13
-95 0 0 6 -6 10 -14 10 -13 0 -26 41 -26 86 0 13 -7 27 -16 32 -25 14 -13 45
21 52 17 4 40 12 50 18 20 11 20 11 0 12 -11 0 -29 7 -39 15 -12 9 -42 15 -72
15 -61 0 -64 -4 -64 -124 0 -97 22 -248 61 -426 42 -188 48 -210 63 -210 15 0
48 -35 66 -70 16 -29 16 -159 1 -235 -5 -28 -24 -156 -41 -284 -34 -254 -37
-263 -108 -319 -80 -63 -127 -79 -260 -86 -111 -7 -192 -45 -147 -70 35 -20
117 -101 141 -137 39 -62 48 -115 29 -166 -22 -56 -9 -114 51 -235 55 -109
142 -258 152 -258 4 0 16 15 27 33 10 17 61 75 111 127 107 110 132 125 389
227 152 60 177 67 240 68 73 0 95 -9 194 -80 52 -38 93 -41 216 -15 61 12 135
27 165 32 73 13 244 4 299 -16 24 -9 45 -15 46 -14 68 92 159 251 200 350 35
86 71 127 164 193 42 29 85 63 95 74 19 21 23 67 11 142 -7 44 -6 46 40 93 52
51 128 103 200 136 29 13 50 31 57 48 20 47 69 92 101 92 44 0 94 -28 118 -66
16 -27 27 -34 52 -34 71 0 75 5 69 76 -6 75 2 87 68 118 40 18 62 21 188 19
l142 -3 1 28 c2 85 6 122 13 129 4 5 86 8 181 8 103 0 178 4 183 10 5 6 17 33
26 61 18 55 51 92 134 146 l52 35 -21 19 c-27 24 -55 86 -63 139 l-5 40 87 42
c99 47 117 63 173 149 33 52 39 70 39 115 0 30 4 69 9 87 12 41 -10 45 -35 6z"/>
</g>
</svg>
