<?xml version="1.0" standalone="no"?>
<!DOCTYPE svg PUBLIC "-//W3C//DTD SVG 20010904//EN"
 "http://www.w3.org/TR/2001/REC-SVG-20010904/DTD/svg10.dtd">
<svg version="1.0" xmlns="http://www.w3.org/2000/svg"
 width="385.000000pt" height="198.000000pt" viewBox="0 0 385.000000 198.000000"
 preserveAspectRatio="xMidYMid meet">
<metadata>
Created by potrace 1.15, written by Peter Selinger 2001-2017
</metadata>
<g transform="translate(0.000000,198.000000) scale(0.100000,-0.100000)"
fill="#000000" stroke="none">
<path d="M1843 1963 c-23 -4 -29 -11 -111 -123 -67 -91 -108 -110 -260 -121
-129 -9 -207 -28 -355 -88 -111 -44 -126 -56 -172 -127 -56 -87 -107 -123
-211 -149 -160 -40 -256 -103 -349 -228 -26 -34 -68 -78 -93 -97 -26 -20 -59
-57 -73 -83 -14 -27 -40 -61 -57 -77 -38 -34 -38 -39 -12 -108 23 -60 25 -141
5 -192 -47 -121 -76 -208 -90 -276 -17 -82 -45 -277 -40 -282 1 -2 22 7 46 20
37 19 66 24 184 29 78 3 150 9 160 12 34 10 284 36 410 42 172 9 348 65 584
187 105 54 122 67 209 159 l95 100 156 75 c280 135 409 180 547 191 127 9 273
-24 359 -82 20 -14 38 -25 40 -25 3 0 14 20 26 44 11 24 43 67 70 95 58 58
100 72 146 47 30 -15 30 -15 61 29 53 75 167 123 370 156 130 21 184 40 285
101 l57 35 -87 12 c-49 7 -110 23 -140 37 -53 25 -143 114 -143 141 0 21 -88
111 -136 139 -96 56 -164 76 -289 85 -141 9 -174 20 -285 89 -99 62 -315 171
-384 194 -92 31 -434 56 -523 39z"/>
</g>
</svg>
