<?xml version="1.0" standalone="no"?>
<!DOCTYPE svg PUBLIC "-//W3C//DTD SVG 20010904//EN"
 "http://www.w3.org/TR/2001/REC-SVG-20010904/DTD/svg10.dtd">
<svg version="1.0" xmlns="http://www.w3.org/2000/svg"
 width="127.000000pt" height="129.000000pt" viewBox="0 0 127.000000 129.000000"
 preserveAspectRatio="xMidYMid meet">
<metadata>
Created by potrace 1.15, written by Peter Selinger 2001-2017
</metadata>
<g transform="translate(0.000000,129.000000) scale(0.100000,-0.100000)"
fill="#000000" stroke="none">
<path d="M588 1276 c-10 -7 -18 -18 -18 -23 0 -11 -107 -36 -120 -28 -5 3 -10
2 -12 -2 -1 -5 -37 -25 -78 -47 -41 -21 -82 -45 -91 -52 -8 -8 -23 -14 -33
-14 -9 0 -14 -4 -11 -10 4 -6 -5 -10 -19 -10 -20 0 -26 -5 -26 -21 0 -11 -11
-35 -25 -53 -14 -18 -25 -38 -25 -44 0 -7 -3 -12 -7 -12 -5 0 -17 -21 -27 -48
-10 -26 -25 -54 -31 -62 -16 -19 -26 -60 -32 -130 -3 -34 -11 -59 -22 -67 -15
-12 -15 -14 0 -25 9 -7 19 -37 23 -66 8 -61 54 -192 67 -192 5 0 9 -5 9 -11 0
-6 15 -37 34 -68 26 -42 33 -63 29 -85 -6 -27 -4 -29 22 -23 29 5 59 -9 102
-46 38 -34 162 -74 256 -84 33 -3 50 -11 58 -25 8 -15 13 -17 25 -7 8 6 14 18
14 26 0 10 5 11 16 5 27 -15 242 44 252 69 2 5 9 9 16 9 7 0 27 16 45 34 22
22 45 36 65 38 25 2 32 8 36 30 3 15 12 36 20 46 23 28 80 140 80 157 0 8 4
15 9 15 4 0 11 30 15 66 8 74 19 104 41 104 22 0 18 28 -5 35 -14 4 -20 15
-20 35 0 34 -17 126 -29 155 -5 11 -14 33 -20 49 -7 16 -27 52 -46 80 -25 39
-32 58 -28 80 6 27 4 29 -22 24 -21 -5 -36 2 -64 27 -50 45 -143 91 -228 113
-53 13 -77 25 -93 45 -24 30 -72 36 -102 13z"/>
</g>
</svg>
