<?xml version="1.0" standalone="no"?>
<!DOCTYPE svg PUBLIC "-//W3C//DTD SVG 20010904//EN"
 "http://www.w3.org/TR/2001/REC-SVG-20010904/DTD/svg10.dtd">
<svg version="1.0" xmlns="http://www.w3.org/2000/svg"
 width="232.000000pt" height="305.000000pt" viewBox="0 0 232.000000 305.000000"
 preserveAspectRatio="xMidYMid meet">
<metadata>
Created by potrace 1.15, written by Peter Selinger 2001-2017
</metadata>
<g transform="translate(0.000000,305.000000) scale(0.100000,-0.100000)"
fill="#000000" stroke="none">
<path d="M878 2993 c-19 -27 -53 -77 -78 -113 -101 -150 -434 -622 -456 -645
-15 -16 -34 -25 -53 -25 -16 0 -47 -10 -68 -22 -27 -16 -61 -25 -115 -29 -43
-3 -80 -8 -84 -11 -10 -10 27 -58 50 -64 11 -3 30 -18 41 -34 11 -15 72 -97
136 -182 124 -164 271 -361 553 -742 227 -307 211 -287 230 -280 9 3 16 12 16
20 0 17 33 88 43 92 4 2 7 10 7 18 0 8 4 14 8 14 12 0 42 56 42 79 0 15 6 21
23 21 12 0 45 15 72 33 86 58 146 86 222 103 40 9 73 21 73 26 0 19 34 37 68
38 26 0 36 -6 50 -30 11 -20 25 -30 40 -30 15 0 21 -4 16 -12 -5 -8 -2 -9 11
-5 35 14 195 -55 245 -106 21 -22 40 -31 63 -32 29 0 32 -2 29 -28 -2 -16 3
-36 11 -45 50 -58 104 -199 111 -289 3 -36 9 -49 25 -57 12 -5 24 -20 27 -33
5 -18 13 -23 40 -23 l34 0 0 1220 0 1220 -699 0 -699 0 -34 -47z"/>
</g>
</svg>
