<?xml version="1.0" standalone="no"?>
<!DOCTYPE svg PUBLIC "-//W3C//DTD SVG 20010904//EN"
 "http://www.w3.org/TR/2001/REC-SVG-20010904/DTD/svg10.dtd">
<svg version="1.0" xmlns="http://www.w3.org/2000/svg"
 width="795.000000pt" height="685.000000pt" viewBox="0 0 795.000000 685.000000"
 preserveAspectRatio="xMidYMid meet">
<metadata>
Created by potrace 1.15, written by Peter Selinger 2001-2017
</metadata>
<g transform="translate(0.000000,685.000000) scale(0.100000,-0.100000)"
fill="#000000" stroke="none">
<path d="M7655 6822 c-59 -13 -94 -13 -218 -4 l-149 11 -84 -30 c-46 -17 -87
-35 -90 -40 -3 -5 -9 -7 -14 -4 -10 6 -91 -31 -100 -46 -20 -30 -183 -63 -204
-41 -4 4 -11 7 -14 8 -4 0 -20 6 -37 13 -17 7 -53 11 -82 9 -42 -4 -62 -12
-109 -49 -32 -24 -67 -49 -79 -56 -25 -15 -95 -16 -154 -2 -24 5 -47 6 -50 1
-3 -4 -33 -24 -66 -42 -33 -19 -62 -38 -63 -42 -2 -5 -29 -20 -60 -35 -65 -31
-152 -112 -152 -142 0 -12 -9 -26 -20 -33 -13 -9 -20 -24 -20 -46 0 -26 -5
-35 -27 -43 -55 -22 -78 -34 -104 -52 -21 -15 -32 -16 -70 -8 -24 6 -62 11
-85 11 -56 0 -88 -36 -118 -131 -12 -41 -35 -91 -49 -112 -15 -22 -32 -54 -39
-73 -6 -19 -18 -34 -24 -34 -7 0 -26 -12 -43 -26 -35 -29 -41 -70 -16 -118 8
-15 15 -41 15 -56 0 -16 10 -41 23 -57 12 -15 29 -40 36 -55 25 -49 96 -114
157 -144 55 -27 67 -29 174 -29 93 0 128 4 180 22 36 12 84 25 107 29 36 5 45
3 67 -19 22 -22 26 -35 26 -85 0 -88 15 -120 91 -193 69 -67 75 -80 70 -144
-1 -11 -29 -76 -62 -145 -76 -160 -78 -188 -33 -318 36 -102 42 -164 22 -203
-16 -30 -71 -103 -80 -107 -5 -2 -8 -11 -8 -19 0 -8 -11 -29 -26 -45 l-25 -31
24 -26 c42 -46 59 -92 64 -176 l5 -80 44 -22 c72 -38 150 -27 198 26 21 24 42
27 49 9 8 -23 -13 -60 -58 -105 -52 -51 -70 -79 -55 -88 5 -3 43 2 84 12 53
13 76 23 82 38 12 26 59 43 82 29 9 -6 21 -20 27 -31 6 -15 22 -23 52 -28 24
-3 43 -10 43 -16 0 -5 12 -9 26 -9 35 0 167 -66 201 -101 17 -17 39 -29 56
-29 22 0 27 -5 27 -24 0 -13 8 -34 19 -47 23 -30 72 -123 88 -169 7 -19 16
-65 19 -102 5 -54 11 -69 25 -73 23 -8 25 -31 4 -39 -9 -3 -15 -18 -15 -35 0
-17 -4 -40 -9 -53 -5 -13 -15 -43 -22 -68 -7 -25 -25 -66 -40 -92 -15 -25 -25
-49 -22 -52 4 -3 2 -6 -3 -6 -12 0 -42 -58 -46 -90 -3 -27 -38 -42 -38 -16 0
23 -4 21 -52 -24 -50 -48 -78 -66 -78 -50 0 5 -4 10 -10 10 -5 0 -7 -6 -4 -14
3 -8 -3 -19 -15 -26 -12 -6 -21 -7 -21 -3 0 4 -5 2 -12 -5 -7 -7 -22 -12 -34
-12 -13 0 -25 -4 -28 -9 -4 -5 -37 -15 -75 -22 -56 -10 -71 -16 -75 -33 l-6
-21 -18 21 c-16 19 -112 46 -169 47 -13 1 -23 4 -23 8 0 4 -21 15 -47 25 -27
10 -54 24 -61 31 -7 7 -17 13 -22 13 -5 0 -18 10 -30 22 -13 15 -32 22 -55 22
-28 0 -34 3 -30 17 3 10 -14 46 -45 90 -27 41 -50 79 -50 86 0 6 -6 24 -14 40
-19 38 -33 89 -41 145 -4 26 -13 49 -21 52 -18 7 -18 33 0 43 8 5 17 35 21 72
8 74 16 76 -95 -28 -38 -36 -67 -69 -64 -73 3 -4 0 -8 -6 -8 -7 0 -10 -35 -9
-104 1 -94 -1 -106 -21 -129 -23 -27 -49 -29 -87 -9 -33 18 -66 14 -116 -13
-57 -32 -58 -34 -86 -125 -60 -195 -70 -216 -112 -235 -21 -10 -39 -21 -39
-26 0 -4 -14 -10 -31 -14 -22 -5 -36 -2 -50 11 -16 15 -24 16 -58 6 -21 -7
-50 -12 -64 -12 -25 0 -87 -49 -87 -69 0 -7 -7 -23 -16 -36 -10 -15 -14 -34
-10 -49 4 -15 0 -28 -10 -37 -8 -7 -22 -25 -30 -41 -14 -27 -17 -28 -95 -28
-60 0 -89 5 -119 20 -22 11 -40 18 -40 14 0 -3 -7 2 -16 10 -28 29 -51 19 -70
-28 -28 -67 -72 -80 -89 -28 -5 18 -12 22 -28 18 -12 -3 -32 -6 -44 -6 -12 0
-28 -7 -37 -15 -32 -32 -100 -44 -204 -34 -133 12 -300 43 -327 60 -5 4 -56
18 -112 33 -57 14 -112 30 -123 36 -22 12 -20 12 -85 -43 -47 -41 -68 -41
-149 -3 -30 14 -62 26 -71 26 -18 0 -73 -35 -91 -58 -5 -8 -27 -14 -47 -15
-20 0 -37 -5 -37 -10 0 -4 -4 -6 -8 -3 -5 3 -20 -1 -35 -9 -15 -8 -27 -11 -27
-8 0 3 -7 0 -15 -7 -8 -7 -15 -10 -15 -7 0 3 -21 0 -47 -8 -58 -18 -99 -19
-144 -4 -45 16 -77 46 -81 77 -2 20 -11 27 -48 37 -25 7 -72 20 -105 29 -121
34 -142 41 -243 87 l-43 19 -18 -44 c-11 -23 -26 -46 -35 -49 -13 -5 -16 -22
-16 -81 0 -67 -2 -75 -25 -90 -13 -9 -31 -16 -39 -16 -8 0 -22 -20 -33 -45
-15 -39 -24 -47 -58 -56 -70 -18 -109 -28 -135 -33 -14 -3 -51 -21 -82 -40
l-57 -34 -27 36 c-33 47 -114 122 -130 122 -7 0 -14 5 -16 10 -4 14 -91 28
-253 40 -77 6 -159 13 -181 16 -29 4 -51 1 -73 -11 -27 -14 -32 -21 -30 -48 2
-18 -3 -49 -10 -69 -12 -35 -15 -38 -52 -38 -22 0 -53 -7 -69 -15 -48 -25
-112 -30 -148 -11 -23 12 -46 15 -80 11 -26 -3 -110 -10 -187 -15 -85 -5 -152
-15 -168 -23 l-28 -15 45 -28 c97 -61 100 -137 7 -187 -57 -31 -123 -44 -267
-56 -112 -9 -166 -26 -178 -56 -26 -69 32 -182 124 -240 80 -50 203 -68 307
-44 27 6 91 27 143 46 192 70 217 76 251 63 40 -17 58 -47 65 -107 6 -43 3
-55 -27 -103 -18 -30 -45 -66 -59 -80 -15 -14 -29 -33 -33 -43 -3 -9 -11 -16
-16 -15 -5 2 -9 0 -10 -5 -1 -8 -28 -35 -85 -81 -19 -16 -33 -32 -31 -36 3 -4
-12 -22 -32 -39 -20 -17 -33 -31 -28 -31 4 0 -2 -8 -13 -19 -12 -10 -22 -23
-22 -29 0 -5 -7 -12 -15 -16 -8 -3 -15 -12 -15 -21 0 -8 -4 -15 -10 -15 -5 0
-10 -7 -10 -15 0 -8 -4 -15 -8 -15 -4 0 -19 -21 -32 -47 -17 -35 -24 -71 -28
-131 -4 -76 11 -321 25 -399 l5 -33 3734 0 3734 0 0 3415 0 3415 -102 -1 c-57
-1 -134 -8 -173 -17z"/>
</g>
</svg>
