<?xml version="1.0" standalone="no"?>
<!DOCTYPE svg PUBLIC "-//W3C//DTD SVG 20010904//EN"
 "http://www.w3.org/TR/2001/REC-SVG-20010904/DTD/svg10.dtd">
<svg version="1.0" xmlns="http://www.w3.org/2000/svg"
 width="259.000000pt" height="174.000000pt" viewBox="0 0 259.000000 174.000000"
 preserveAspectRatio="xMidYMid meet">
<metadata>
Created by potrace 1.15, written by Peter Selinger 2001-2017
</metadata>
<g transform="translate(0.000000,174.000000) scale(0.100000,-0.100000)"
fill="#000000" stroke="none">
<path d="M2048 1720 c-11 -7 -18 -30 -23 -72 -4 -33 -13 -76 -21 -93 -19 -47
-166 -170 -231 -195 -30 -11 -71 -31 -91 -45 -20 -14 -63 -30 -95 -36 -53 -11
-56 -13 -38 -25 69 -49 84 -194 20 -194 -17 0 -18 3 -9 21 7 11 9 23 7 26 -3
2 -8 -5 -12 -16 -12 -37 -40 -43 -204 -41 -200 3 -188 4 -168 -18 19 -21 24
-118 7 -124 -6 -2 -12 -13 -13 -26 -1 -19 -7 -22 -40 -22 -70 0 -118 44 -146
133 -7 20 -14 37 -16 37 -1 0 -28 -11 -59 -25 -77 -34 -101 -33 -115 5 -8 25
-16 30 -41 30 -24 0 -33 6 -41 27 -5 15 -28 42 -50 61 -24 21 -39 42 -39 57 0
36 -25 51 -55 31 -14 -9 -25 -21 -25 -26 0 -38 -49 -129 -94 -176 -28 -29 -63
-76 -78 -103 -21 -38 -41 -58 -81 -81 -49 -27 -55 -35 -71 -87 -27 -85 -74
-170 -131 -233 -28 -30 -59 -75 -70 -99 l-19 -43 22 -37 c13 -20 36 -63 51
-96 22 -45 44 -72 92 -111 93 -74 94 -75 185 -63 44 6 132 12 197 14 l117 4
21 -28 21 -29 42 18 c25 11 69 18 112 19 60 1 76 -2 107 -24 l38 -25 28 33
c28 31 31 32 107 31 44 -1 84 2 89 6 6 4 37 10 70 14 93 10 103 15 110 47 6
26 10 29 49 29 24 0 68 -5 98 -11 52 -11 57 -10 96 16 28 18 55 27 89 28 27 1
60 9 74 18 56 37 109 58 160 64 30 3 78 15 107 25 71 27 182 27 239 0 l42 -19
23 32 c59 81 119 185 134 230 15 45 15 55 0 131 -35 176 -32 240 15 344 36 77
43 150 29 300 -6 75 -14 192 -17 260 -3 67 -8 122 -11 122 -3 0 -29 -12 -59
-26 -43 -21 -61 -25 -91 -19 -20 4 -48 7 -62 7 -49 0 -119 20 -136 39 -13 14
-30 19 -73 19 -31 0 -63 -5 -73 -10z"/>
</g>
</svg>
