<?xml version="1.0" standalone="no"?>
<!DOCTYPE svg PUBLIC "-//W3C//DTD SVG 20010904//EN"
 "http://www.w3.org/TR/2001/REC-SVG-20010904/DTD/svg10.dtd">
<svg version="1.0" xmlns="http://www.w3.org/2000/svg"
 width="214.000000pt" height="239.000000pt" viewBox="0 0 214.000000 239.000000"
 preserveAspectRatio="xMidYMid meet">
<metadata>
Created by potrace 1.15, written by Peter Selinger 2001-2017
</metadata>
<g transform="translate(0.000000,239.000000) scale(0.100000,-0.100000)"
fill="#000000" stroke="none">
<path d="M1852 2350 c-166 -14 -223 -22 -261 -39 -27 -11 -57 -21 -66 -21 -9
0 -37 -11 -63 -25 -52 -28 -108 -32 -137 -11 -17 12 -26 11 -68 -5 -26 -10
-57 -19 -68 -19 -12 0 -53 -16 -93 -35 -88 -44 -183 -62 -252 -47 -44 10 -53
8 -89 -13 -100 -59 -142 -77 -204 -87 -36 -6 -85 -21 -109 -35 -36 -22 -52
-25 -107 -21 -47 3 -73 10 -96 27 l-32 24 8 -122 c4 -67 11 -147 15 -179 5
-31 7 -104 6 -162 -3 -91 -7 -115 -35 -183 -44 -108 -47 -151 -21 -290 14 -71
20 -131 16 -152 -8 -43 -62 -144 -126 -241 -37 -54 -46 -75 -37 -82 10 -9 55
-24 147 -51 23 -7 31 -22 46 -78 1 -6 39 -30 84 -53 79 -42 97 -57 221 -192
l62 -67 60 49 c135 110 257 150 451 150 133 0 186 -10 219 -43 20 -20 30 -21
153 -18 168 3 204 -11 195 -77 -1 -8 5 -22 14 -32 14 -16 16 -32 10 -103 -7
-81 -6 -86 15 -97 33 -18 48 -6 82 65 28 60 30 72 24 138 -3 40 -8 88 -12 108
-4 27 0 48 20 86 l25 50 -24 69 c-43 123 -57 232 -62 490 -5 207 -3 248 11
300 27 91 120 274 192 374 36 50 72 109 80 133 17 49 20 124 6 186 -14 57 -2
122 42 245 20 54 36 100 36 102 0 6 -38 3 -278 -16z"/>
</g>
</svg>
