<?xml version="1.0" standalone="no"?>
<!DOCTYPE svg PUBLIC "-//W3C//DTD SVG 20010904//EN"
 "http://www.w3.org/TR/2001/REC-SVG-20010904/DTD/svg10.dtd">
<svg version="1.0" xmlns="http://www.w3.org/2000/svg"
 width="210.000000pt" height="210.000000pt" viewBox="0 0 210.000000 210.000000"
 preserveAspectRatio="xMidYMid meet">
<metadata>
Created by potrace 1.15, written by Peter Selinger 2001-2017
</metadata>
<g transform="translate(0.000000,210.000000) scale(0.100000,-0.100000)"
fill="#000000" stroke="none">
<path d="M230 2083 c-38 -15 -76 -52 -144 -143 l-74 -99 30 -12 c35 -14 86
-72 116 -133 21 -41 22 -47 8 -78 -7 -18 -37 -60 -65 -93 -59 -68 -65 -105
-31 -178 25 -54 131 -195 246 -328 144 -167 185 -221 211 -275 l23 -51 -19
-59 c-11 -33 -36 -99 -57 -149 -30 -72 -38 -103 -38 -156 -1 -63 1 -70 46
-135 26 -38 53 -84 59 -102 8 -23 15 -30 23 -23 26 22 199 71 268 77 61 5 86
2 153 -20 82 -26 320 -85 433 -107 l63 -12 34 35 c43 43 88 57 202 63 104 6
184 39 246 102 l37 39 20 155 c11 84 32 233 46 331 24 158 25 181 13 219 -10
30 -25 51 -49 67 -32 21 -37 32 -62 130 -57 226 -82 388 -82 539 -1 162 7 151
-96 128 -124 -27 -160 -18 -204 52 -27 42 -32 45 -63 40 -24 -4 -31 -3 -26 6
4 8 1 7 -9 -1 -18 -15 -176 -13 -213 2 -14 6 -16 5 -6 -2 10 -8 6 -11 -19 -17
-26 -6 -37 -2 -58 18 -43 40 -94 67 -128 67 -17 0 -61 -13 -97 -30 -81 -37
-107 -37 -135 -5 -26 29 -35 30 -139 10 -159 -31 -229 -13 -368 90 -60 45 -67
48 -95 38z"/>
</g>
</svg>
