<?xml version="1.0" standalone="no"?>
<!DOCTYPE svg PUBLIC "-//W3C//DTD SVG 20010904//EN"
 "http://www.w3.org/TR/2001/REC-SVG-20010904/DTD/svg10.dtd">
<svg version="1.0" xmlns="http://www.w3.org/2000/svg"
 width="321.000000pt" height="261.000000pt" viewBox="0 0 321.000000 261.000000"
 preserveAspectRatio="xMidYMid meet">
<metadata>
Created by potrace 1.15, written by Peter Selinger 2001-2017
</metadata>
<g transform="translate(0.000000,261.000000) scale(0.100000,-0.100000)"
fill="#000000" stroke="none">
<path d="M1018 2572 c-20 -16 -60 -49 -88 -75 -28 -26 -57 -47 -63 -48 -7 0
-34 -4 -62 -10 -27 -5 -61 -11 -75 -13 -14 -3 -81 -21 -149 -41 -119 -33 -133
-35 -275 -35 -83 1 -182 5 -221 10 -38 5 -73 7 -77 4 -15 -9 8 -42 51 -75 25
-19 64 -62 87 -97 23 -35 69 -90 101 -122 69 -67 86 -112 81 -205 -2 -44 2
-68 13 -86 9 -13 19 -33 22 -44 6 -19 16 -20 149 -21 85 0 158 -6 181 -13 53
-18 97 -57 97 -87 0 -14 9 -34 20 -46 10 -11 22 -33 25 -49 4 -18 14 -29 28
-31 17 -2 24 -13 31 -47 6 -27 21 -56 41 -75 29 -29 37 -32 109 -34 74 -2 149
11 170 30 23 19 54 8 65 -23 13 -39 14 -89 1 -109 -7 -11 7 -22 69 -51 43 -20
93 -39 113 -43 53 -10 118 -60 118 -91 0 -14 7 -42 15 -62 8 -19 15 -52 15
-73 0 -43 -18 -100 -31 -100 -5 0 -9 -6 -9 -14 0 -22 -66 -74 -107 -84 -62
-16 -193 -13 -246 4 l-49 16 -37 -41 c-20 -23 -43 -41 -49 -41 -21 0 -13 -26
12 -38 13 -6 39 -23 57 -39 19 -16 55 -37 80 -46 55 -21 123 -77 145 -119 17
-33 12 -91 -9 -117 -9 -11 -8 -16 7 -25 68 -40 82 -54 94 -94 l14 -42 71 6
c62 5 82 2 139 -19 57 -22 68 -24 78 -11 15 18 99 42 171 49 l56 6 28 54 c18
37 44 67 81 95 30 22 65 58 78 78 43 68 138 156 211 194 62 32 157 65 236 82
35 8 87 58 133 129 42 63 71 87 137 113 54 21 75 38 105 86 41 64 35 76 -101
220 l-79 83 -60 0 -61 0 -3 52 c-4 62 -25 83 -84 83 l-38 0 0 86 c0 93 -10
113 -57 114 -24 0 -24 -1 -47 113 -15 75 -40 110 -93 132 -22 9 -42 31 -62 67
-29 50 -41 59 -213 163 -214 128 -377 212 -431 221 -20 4 -40 11 -43 15 -3 5
-17 9 -32 9 -38 0 -88 33 -188 125 -48 44 -94 83 -103 86 -9 4 -42 4 -73 1
-46 -4 -64 -1 -93 17 -48 28 -82 26 -127 -7z"/>
</g>
</svg>
