<?xml version="1.0" standalone="no"?>
<!DOCTYPE svg PUBLIC "-//W3C//DTD SVG 20010904//EN"
 "http://www.w3.org/TR/2001/REC-SVG-20010904/DTD/svg10.dtd">
<svg version="1.0" xmlns="http://www.w3.org/2000/svg"
 width="575.000000pt" height="551.000000pt" viewBox="0 0 575.000000 551.000000"
 preserveAspectRatio="xMidYMid meet">
<metadata>
Created by potrace 1.15, written by Peter Selinger 2001-2017
</metadata>
<g transform="translate(0.000000,551.000000) scale(0.100000,-0.100000)"
fill="#000000" stroke="none">
<path d="M635 5463 c-40 -21 -84 -62 -101 -95 -7 -14 -32 -81 -54 -149 -22
-67 -51 -141 -65 -163 -29 -49 -90 -117 -98 -110 -11 11 -66 -71 -82 -124 -29
-98 -31 -310 -4 -587 37 -376 33 -584 -22 -1015 -11 -85 -22 -175 -25 -200 -3
-25 -9 -70 -14 -100 -5 -30 -12 -77 -16 -105 -3 -27 -10 -84 -15 -125 -5 -41
-13 -203 -18 -360 -8 -249 -18 -383 -37 -495 -44 -262 -62 -448 -58 -575 7
-180 42 -299 157 -541 44 -91 97 -250 97 -289 0 -27 47 -145 76 -193 39 -62
134 -187 142 -187 4 0 35 55 67 122 179 366 446 714 655 853 77 51 143 82 256
120 102 34 115 40 332 148 140 70 191 91 220 90 206 -7 207 -7 277 16 105 36
182 77 260 141 88 72 97 77 283 139 157 52 215 80 267 128 105 98 192 149 319
188 70 21 118 28 252 35 185 9 186 9 269 96 72 75 116 87 326 89 l166 2 71 36
c101 53 156 51 326 -8 114 -39 139 -45 205 -43 62 1 88 -3 140 -25 53 -22 80
-27 151 -27 111 0 161 23 207 95 18 28 41 62 53 77 11 14 20 37 20 51 0 13 9
32 19 41 28 25 43 68 39 112 l-3 39 -290 5 c-159 3 -291 7 -292 8 -6 10 -23
69 -23 84 0 11 12 40 27 65 22 39 26 55 24 116 -2 45 -10 87 -22 114 -23 51
-24 70 -3 112 17 35 48 51 95 51 24 0 29 4 29 25 0 14 -4 25 -10 25 -5 0 -10
16 -10 35 0 31 -3 35 -25 35 -14 0 -25 4 -25 9 0 14 -58 21 -85 11 -40 -15
-113 -99 -98 -114 3 -3 -1 -6 -10 -6 -9 0 -22 -9 -29 -20 -7 -11 -20 -20 -28
-20 -8 0 -21 -9 -27 -20 -20 -31 -68 -50 -141 -57 -41 -4 -71 -12 -78 -21 -10
-14 -59 -14 -94 2 -11 4 -25 -9 -49 -44 l-34 -50 -70 0 c-62 0 -72 3 -94 26
-29 32 -63 114 -63 153 0 15 -5 42 -11 60 -6 17 -8 43 -5 56 5 20 13 25 39 25
32 1 162 27 141 29 -7 1 -14 18 -17 39 -3 20 -10 57 -15 82 -6 25 -9 46 -8 48
2 1 23 -11 47 -28 24 -16 49 -30 55 -30 14 0 24 33 24 85 l0 40 54 -56 54 -56
15 36 c9 20 23 58 33 84 12 34 20 44 25 35 17 -31 40 -109 34 -118 -8 -14 0
-13 42 5 55 23 73 43 73 83 0 28 10 45 46 84 38 41 45 54 40 76 -4 15 -9 54
-12 87 -3 33 -7 70 -10 82 -4 23 -78 73 -106 73 -23 0 -42 28 -72 108 -15 40
-36 77 -47 83 -11 5 -19 20 -19 35 0 17 -13 39 -37 63 -21 20 -38 43 -38 51 0
18 -143 20 -445 8 -251 -10 -268 -10 -280 -3 -7 5 -6 11 5 19 14 10 18 35 20
145 3 118 1 135 -15 151 -13 13 -15 20 -7 23 7 2 93 2 193 -1 129 -3 183 -2
188 7 5 8 -13 11 -61 11 l-68 0 -35 58 c-32 53 -55 80 -187 217 -29 30 -82 68
-133 95 -74 40 -85 49 -93 80 -5 19 -10 36 -11 38 -2 1 -29 9 -62 18 -34 9
-86 34 -126 61 -89 61 -147 67 -258 30 -41 -14 -98 -27 -127 -30 -38 -3 -63
-13 -100 -39 -39 -29 -59 -36 -109 -40 -50 -3 -66 -9 -89 -32 -25 -25 -32 -27
-79 -21 -92 12 -248 8 -296 -8 -30 -10 -122 -27 -143 -27 -27 0 -93 -52 -102
-80 -10 -31 -77 -27 -110 6 -24 24 -29 25 -93 19 -66 -7 -101 -19 -113 -38
-12 -18 -58 3 -75 34 -15 29 -18 31 -57 25 -23 -4 -73 -6 -110 -6 -40 1 -74
-4 -83 -10 -7 -7 -24 -10 -36 -7 -12 3 -41 1 -64 -5 -41 -11 -45 -10 -96 25
-29 21 -82 60 -118 87 -86 66 -165 101 -235 104 -21 1 -81 73 -105 126 -14 30
-28 57 -32 58 -5 2 -8 12 -8 23 0 10 -19 39 -43 64 -49 50 -86 58 -142 28z
m2433 -1125 c6 -6 12 -17 12 -24 0 -8 10 -14 24 -14 14 0 27 -4 31 -10 3 -5
11 -7 18 -4 20 7 157 -51 170 -73 6 -10 40 -13 127 -13 l119 0 4 -157 c3 -102
10 -183 21 -228 9 -38 17 -76 18 -82 1 -7 10 -13 20 -13 24 0 23 -17 -2 -32
-11 -7 -20 -24 -20 -38 0 -14 -9 -58 -20 -98 -15 -52 -20 -102 -20 -187 l0
-115 -76 -178 c-42 -97 -96 -213 -120 -258 -24 -45 -44 -84 -44 -88 0 -3 8 -6
19 -6 13 0 25 -15 38 -48 18 -43 19 -52 7 -93 -8 -26 -21 -52 -29 -59 -24 -20
-18 -35 28 -60 73 -40 77 -46 77 -116 l0 -62 -47 -36 c-27 -19 -66 -49 -88
-66 -36 -27 -44 -29 -75 -20 -19 5 -58 10 -87 10 -53 0 -53 0 -74 -45 -12 -25
-25 -48 -30 -51 -4 -2 -33 2 -63 11 -68 20 -86 13 -171 -75 -66 -67 -176 -142
-287 -195 -55 -27 -85 -35 -127 -35 -42 0 -67 -7 -108 -30 l-53 -30 -66 45
c-36 25 -76 45 -88 45 -37 0 -108 -29 -136 -54 -32 -29 -81 -46 -136 -46 -43
0 -47 3 -236 184 -106 101 -211 199 -233 217 -22 19 -63 57 -91 84 -28 28 -79
77 -115 110 -115 108 -272 257 -349 330 -41 39 -139 131 -217 204 l-143 133 0
620 0 619 1118 -1 c614 -1 1125 1 1135 5 9 4 17 11 17 16 0 5 6 9 14 9 7 0 39
11 69 25 31 14 78 28 105 32 38 4 52 10 55 24 9 35 70 44 105 17z"/>
</g>
</svg>
