<?xml version="1.0" standalone="no"?>
<!DOCTYPE svg PUBLIC "-//W3C//DTD SVG 20010904//EN"
 "http://www.w3.org/TR/2001/REC-SVG-20010904/DTD/svg10.dtd">
<svg version="1.0" xmlns="http://www.w3.org/2000/svg"
 width="352.000000pt" height="314.000000pt" viewBox="0 0 352.000000 314.000000"
 preserveAspectRatio="xMidYMid meet">
<metadata>
Created by potrace 1.15, written by Peter Selinger 2001-2017
</metadata>
<g transform="translate(0.000000,314.000000) scale(0.100000,-0.100000)"
fill="#000000" stroke="none">
<path d="M498 3110 c-26 -11 -67 -32 -90 -47 -24 -15 -106 -59 -183 -98 -132
-68 -142 -75 -171 -124 -18 -28 -35 -72 -39 -98 l-7 -46 59 -56 c32 -31 81
-90 108 -131 28 -41 54 -78 59 -82 5 -3 11 -14 12 -22 3 -21 99 -176 153 -247
22 -30 51 -74 63 -99 46 -91 101 -169 136 -194 21 -14 90 -47 155 -75 192 -81
237 -115 237 -179 0 -69 81 -184 193 -275 66 -53 77 -97 84 -325 4 -116 10
-188 18 -198 6 -9 29 -19 50 -23 48 -8 65 -32 45 -63 -17 -29 -23 -175 -11
-278 9 -67 13 -78 43 -106 24 -22 52 -34 95 -43 35 -6 77 -23 99 -39 22 -16
65 -34 96 -41 69 -15 104 -41 129 -95 31 -70 42 -79 88 -71 l40 7 -2 82 c-2
75 0 86 26 124 47 72 73 82 213 82 118 0 122 1 127 23 3 12 22 59 42 105 38
86 43 117 30 193 -9 57 14 144 50 187 16 19 25 42 25 65 0 20 9 46 21 61 l21
27 -22 95 c-13 56 -21 126 -21 172 1 98 31 236 53 240 22 4 135 -103 159 -150
11 -21 23 -68 26 -103 3 -36 11 -71 17 -79 11 -13 117 -48 186 -62 19 -3 49
-16 67 -28 32 -20 33 -23 33 -92 0 -62 3 -73 25 -94 14 -13 27 -22 29 -19 2 2
11 25 21 51 16 44 16 50 1 88 -20 50 -20 96 -1 134 8 15 15 41 15 57 0 23 8
34 34 50 45 26 76 80 76 130 0 51 21 91 64 124 37 28 126 199 126 242 0 14 -8
47 -17 73 l-17 48 32 36 c17 19 34 51 38 71 5 30 2 40 -24 70 -35 39 -48 91
-35 132 9 25 6 30 -28 55 -21 15 -45 41 -54 58 -21 40 -21 116 -1 164 9 21 16
40 16 42 0 2 -20 24 -44 49 -24 24 -49 60 -56 79 -8 27 -18 36 -42 41 -17 4
-35 2 -41 -4 -6 -6 -22 -11 -36 -11 -15 0 -40 -8 -56 -19 -50 -30 -101 -43
-198 -50 l-92 -6 -31 -48 c-17 -27 -50 -62 -73 -79 -38 -28 -47 -30 -94 -24
-29 3 -72 8 -97 11 -112 14 -109 12 -121 60 -11 43 -13 45 -49 45 -50 0 -112
36 -154 89 l-34 44 -66 -2 c-71 -3 -128 16 -190 64 -22 17 -40 24 -48 19 -17
-11 -178 -21 -178 -12 0 5 -7 8 -15 8 -15 0 -86 64 -101 92 -9 16 -14 16 -79
-6 -95 -33 -231 -42 -308 -22 -106 29 -237 106 -365 214 -99 84 -155 98 -244
62z"/>
</g>
</svg>
