<?xml version="1.0" standalone="no"?>
<!DOCTYPE svg PUBLIC "-//W3C//DTD SVG 20010904//EN"
 "http://www.w3.org/TR/2001/REC-SVG-20010904/DTD/svg10.dtd">
<svg version="1.0" xmlns="http://www.w3.org/2000/svg"
 width="248.000000pt" height="250.000000pt" viewBox="0 0 248.000000 250.000000"
 preserveAspectRatio="xMidYMid meet">
<metadata>
Created by potrace 1.15, written by Peter Selinger 2001-2017
</metadata>
<g transform="translate(0.000000,250.000000) scale(0.100000,-0.100000)"
fill="#000000" stroke="none">
<path d="M740 2475 c-25 -7 -71 -24 -102 -38 -31 -15 -101 -43 -155 -63 -54
-20 -124 -52 -155 -71 -69 -41 -203 -182 -242 -254 -25 -45 -28 -59 -23 -108
4 -31 1 -100 -5 -153 -10 -84 -9 -103 5 -148 22 -69 23 -207 1 -238 -19 -27
-40 -108 -48 -188 -6 -54 -3 -68 26 -135 l33 -74 0 -265 0 -265 28 -55 c35
-70 102 -132 192 -177 93 -47 183 -108 208 -140 11 -14 45 -36 74 -49 47 -21
69 -24 184 -24 72 0 150 -5 174 -11 43 -11 46 -10 87 24 45 36 173 117 186
117 4 0 18 6 32 13 14 7 48 21 75 32 28 10 73 35 100 54 28 20 60 43 72 51
256 175 393 283 508 400 51 53 98 90 130 104 28 13 66 37 85 54 20 17 60 38
93 47 78 22 129 68 151 137 14 47 14 57 1 93 -8 22 -14 53 -15 68 0 15 -11 50
-25 77 -14 27 -25 59 -25 70 0 20 -3 19 -45 -10 -32 -22 -50 -28 -61 -22 -17
9 -71 -5 -96 -25 -7 -7 -49 -15 -93 -19 -44 -3 -87 -12 -95 -19 -8 -7 -46 -15
-85 -18 -129 -9 -258 -38 -281 -62 -36 -39 -72 -58 -99 -51 -17 4 -36 -2 -67
-24 -24 -16 -55 -32 -70 -36 -25 -5 -28 -3 -28 18 0 13 7 33 15 45 15 21 14
23 -7 27 -39 9 -166 11 -161 4 2 -5 -54 -8 -125 -8 l-130 0 -5 43 c-3 23 -4
64 -3 92 3 44 8 53 45 85 39 34 41 38 25 51 -19 16 -94 127 -94 140 0 5 83 8
183 8 182 -1 225 3 239 25 4 6 8 37 8 69 0 44 -3 57 -15 57 -10 0 -15 10 -15
33 1 26 10 39 54 74 85 68 136 92 223 105 98 14 113 10 113 -37 l0 -35 20 20
c11 11 20 30 20 43 0 36 29 125 58 180 34 62 98 127 157 158 37 19 45 28 40
44 -4 11 -13 42 -21 69 -7 27 -15 50 -17 52 -2 2 -17 -1 -33 -6 -16 -5 -70
-20 -121 -35 l-91 -25 -39 19 c-90 47 -231 49 -425 5 -176 -40 -238 -32 -332
39 -44 34 -102 58 -136 56 -8 0 -35 -7 -60 -14z"/>
</g>
</svg>
