<?xml version="1.0" standalone="no"?>
<!DOCTYPE svg PUBLIC "-//W3C//DTD SVG 20010904//EN"
 "http://www.w3.org/TR/2001/REC-SVG-20010904/DTD/svg10.dtd">
<svg version="1.0" xmlns="http://www.w3.org/2000/svg"
 width="388.000000pt" height="414.000000pt" viewBox="0 0 388.000000 414.000000"
 preserveAspectRatio="xMidYMid meet">
<metadata>
Created by potrace 1.15, written by Peter Selinger 2001-2017
</metadata>
<g transform="translate(0.000000,414.000000) scale(0.100000,-0.100000)"
fill="#000000" stroke="none">
<path d="M3666 4019 c1 -74 5 -96 21 -118 37 -49 63 -110 63 -144 0 -45 -24
-112 -57 -159 -14 -21 -34 -63 -44 -95 -11 -31 -30 -71 -44 -88 -36 -48 -201
-177 -266 -209 -60 -29 -103 -68 -113 -103 -17 -54 -144 -133 -214 -133 -14 0
-32 -11 -44 -25 -11 -14 -36 -34 -57 -44 -20 -11 -70 -49 -111 -86 -41 -37
-89 -74 -106 -81 -22 -9 -34 -23 -42 -51 -22 -75 -136 -173 -200 -173 -11 0
-31 -11 -46 -25 -15 -14 -55 -38 -89 -54 -47 -21 -83 -49 -152 -120 -49 -51
-124 -118 -165 -149 -41 -31 -76 -60 -78 -64 -2 -5 -10 -8 -17 -8 -7 0 -15 -3
-17 -8 -1 -4 -28 -24 -58 -45 -30 -20 -80 -55 -110 -77 -87 -64 -220 -150
-231 -150 -23 0 -229 -112 -283 -154 -64 -49 -72 -52 -126 -35 -19 6 -106 11
-192 12 -110 1 -161 6 -170 15 -6 6 -14 12 -17 12 -4 0 -4 -44 -2 -97 5 -153
-33 -318 -98 -418 -83 -129 -253 -251 -398 -286 -57 -14 -88 -32 -103 -59 -6
-11 -19 -82 -30 -159 -10 -76 -28 -162 -39 -190 -30 -79 -17 -107 93 -216 50
-49 124 -120 165 -157 l75 -67 41 43 c30 32 51 45 80 50 32 5 525 -8 649 -17
32 -2 49 19 166 215 62 103 142 195 209 240 54 37 112 97 219 228 42 52 113
131 158 176 72 72 94 87 206 141 69 34 135 64 146 68 18 5 22 14 22 51 0 37 5
50 31 75 l32 31 129 -4 c101 -2 131 -6 138 -18 5 -8 10 -10 10 -5 0 6 5 2 11
-7 20 -34 53 -20 125 52 55 55 76 86 101 147 67 158 172 218 403 230 101 5
123 3 180 -17 56 -19 76 -21 157 -15 l93 7 10 39 c14 50 53 96 90 104 35 8 35
7 14 47 -24 47 -14 121 21 158 16 17 36 32 46 35 21 7 15 37 -15 79 -12 19
-22 51 -24 87 l-4 58 -38 -5 c-52 -7 -118 23 -160 74 l-34 40 -43 -38 c-57
-50 -231 -98 -249 -69 -4 7 -8 65 -8 128 -1 106 -5 126 -39 233 -21 65 -37
125 -35 135 3 16 18 19 108 23 58 3 111 9 119 14 11 7 12 28 7 100 -6 86 -5
94 20 141 14 28 37 61 50 75 12 14 34 50 47 80 14 30 35 64 47 75 37 33 100
132 107 167 8 46 19 65 73 128 54 63 80 117 80 168 0 29 -10 45 -59 97 -57 59
-81 107 -81 163 0 21 -39 92 -50 92 -3 0 -4 -41 -4 -91z"/>
</g>
</svg>
