<?xml version="1.0" standalone="no"?>
<!DOCTYPE svg PUBLIC "-//W3C//DTD SVG 20010904//EN"
 "http://www.w3.org/TR/2001/REC-SVG-20010904/DTD/svg10.dtd">
<svg version="1.0" xmlns="http://www.w3.org/2000/svg"
 width="326.000000pt" height="311.000000pt" viewBox="0 0 326.000000 311.000000"
 preserveAspectRatio="xMidYMid meet">
<metadata>
Created by potrace 1.15, written by Peter Selinger 2001-2017
</metadata>
<g transform="translate(0.000000,311.000000) scale(0.100000,-0.100000)"
fill="#000000" stroke="none">
<path d="M2735 3093 c-11 -3 -33 -17 -50 -31 -55 -46 -145 -82 -207 -82 -31 0
-68 4 -81 9 -17 7 -37 5 -63 -4 -22 -8 -53 -14 -70 -15 -18 0 -39 -8 -49 -20
-44 -49 -138 -46 -224 8 -26 16 -60 32 -76 36 -16 4 -41 16 -55 26 -24 17 -30
18 -66 5 -21 -8 -51 -14 -66 -15 -15 0 -49 -13 -75 -30 -26 -16 -58 -30 -70
-30 -18 0 -28 -9 -39 -37 -19 -44 -8 -72 36 -91 17 -8 31 -23 35 -40 3 -15 27
-49 53 -75 38 -39 47 -55 48 -85 1 -20 4 -72 8 -114 4 -48 3 -79 -4 -83 -5 -3
-10 -21 -10 -38 0 -38 -29 -90 -65 -113 -20 -13 -25 -24 -25 -59 0 -93 -48
-171 -119 -195 -28 -9 -43 -22 -55 -46 -15 -32 -40 -155 -37 -181 1 -7 3 -24
4 -37 1 -13 5 -22 8 -20 13 8 48 -116 49 -170 0 -16 8 -35 18 -42 16 -13 16
-15 -4 -31 -17 -14 -23 -32 -26 -89 -3 -44 -13 -86 -25 -110 -11 -21 -29 -56
-39 -77 -11 -22 -29 -50 -41 -63 -17 -19 -21 -32 -16 -55 6 -30 6 -30 -30 -24
-29 6 -36 4 -41 -12 -6 -18 -82 -71 -93 -65 -3 2 -9 0 -12 -5 -3 -5 -36 -29
-73 -53 -49 -32 -68 -50 -70 -69 -4 -33 -43 -44 -130 -37 l-67 6 -42 -50 c-53
-62 -96 -88 -177 -105 -35 -8 -65 -15 -66 -17 -1 -2 -14 -28 -29 -58 -28 -59
-103 -142 -150 -167 -16 -8 -50 -16 -75 -19 -67 -6 -142 -28 -153 -45 -14 -22
-11 -87 6 -120 14 -27 14 -33 -6 -79 -13 -31 -41 -68 -71 -95 l-49 -44 38 11
c20 5 60 23 88 39 28 16 58 29 66 29 8 0 20 15 27 33 14 36 29 49 124 101 76
42 126 48 256 34 80 -9 84 -8 113 16 35 29 97 49 142 44 l32 -3 -4 -68 c-3
-61 -1 -70 18 -83 15 -11 21 -26 21 -53 l0 -38 68 1 c57 1 79 -4 148 -36 91
-42 142 -47 269 -24 75 13 128 7 152 -17 14 -14 21 -12 67 17 111 71 257 99
353 67 57 -19 90 -4 183 82 28 26 79 47 115 47 20 0 44 4 53 9 19 10 92 77 92
84 0 13 105 117 128 126 15 7 32 21 37 33 8 16 60 52 93 64 1 0 -7 22 -19 49
-21 48 -22 95 -3 208 5 30 0 50 -25 101 -41 84 -50 149 -25 177 18 20 18 22
-14 79 -36 66 -43 124 -14 138 9 5 46 12 82 14 39 3 83 14 108 27 46 23 154
113 217 180 59 62 94 81 153 81 47 0 51 2 61 32 22 61 36 205 23 233 -7 14
-12 50 -12 80 0 61 -10 75 -68 94 -60 20 -110 65 -122 110 -8 30 -6 61 10 140
21 108 30 129 73 176 34 36 57 84 57 120 0 14 -14 41 -34 62 -18 21 -35 43
-37 50 -2 7 -33 41 -68 78 -35 36 -59 65 -55 65 5 0 5 4 -1 8 -24 17 -73 119
-81 169 -5 36 -8 39 -33 35 -18 -2 -33 3 -45 17 -19 20 -40 24 -81 14z"/>
</g>
</svg>
