<?xml version="1.0" standalone="no"?>
<!DOCTYPE svg PUBLIC "-//W3C//DTD SVG 20010904//EN"
 "http://www.w3.org/TR/2001/REC-SVG-20010904/DTD/svg10.dtd">
<svg version="1.0" xmlns="http://www.w3.org/2000/svg"
 width="127.000000pt" height="131.000000pt" viewBox="0 0 127.000000 131.000000"
 preserveAspectRatio="xMidYMid meet">
<metadata>
Created by potrace 1.15, written by Peter Selinger 2001-2017
</metadata>
<g transform="translate(0.000000,131.000000) scale(0.100000,-0.100000)"
fill="#000000" stroke="none">
<path d="M602 1284 c-12 -8 -22 -21 -22 -28 0 -9 -18 -16 -47 -21 -26 -4 -72
-16 -103 -27 -57 -22 -180 -96 -180 -110 0 -4 -11 -8 -25 -8 -15 0 -25 -6 -25
-15 0 -8 -20 -42 -44 -77 -55 -79 -95 -180 -105 -263 -5 -45 -13 -69 -26 -79
-17 -12 -17 -13 1 -27 11 -8 20 -29 22 -49 5 -57 62 -227 82 -240 16 -11 58
-88 65 -118 5 -24 11 -32 22 -28 17 7 77 -23 117 -58 16 -14 39 -26 51 -26 11
0 25 -4 31 -9 15 -15 120 -41 163 -41 34 0 41 -3 41 -19 0 -27 23 -32 35 -7 8
16 26 23 90 32 44 6 86 9 93 6 7 -2 20 4 28 14 11 14 17 16 21 6 3 -8 11 -5
24 12 10 13 41 38 69 56 27 18 50 39 50 46 0 12 8 13 36 8 36 -7 37 -6 32 20
-4 21 4 42 33 85 22 32 39 63 39 69 0 6 10 27 21 47 15 25 23 60 27 108 3 58
8 75 26 90 20 16 20 18 4 31 -10 7 -18 26 -18 42 -1 77 -66 251 -108 290 -11
10 -22 32 -24 49 -2 20 -9 31 -23 33 -11 2 -40 20 -65 39 -66 51 -176 102
-247 114 -35 6 -63 16 -63 21 0 15 -40 48 -59 48 -9 0 -27 -7 -39 -16z"/>
</g>
</svg>
