<?xml version="1.0" standalone="no"?>
<!DOCTYPE svg PUBLIC "-//W3C//DTD SVG 20010904//EN"
 "http://www.w3.org/TR/2001/REC-SVG-20010904/DTD/svg10.dtd">
<svg version="1.0" xmlns="http://www.w3.org/2000/svg"
 width="248.000000pt" height="364.000000pt" viewBox="0 0 248.000000 364.000000"
 preserveAspectRatio="xMidYMid meet">
<metadata>
Created by potrace 1.15, written by Peter Selinger 2001-2017
</metadata>
<g transform="translate(0.000000,364.000000) scale(0.100000,-0.100000)"
fill="#000000" stroke="none">
<path d="M2355 3617 c-11 -6 -49 -32 -83 -59 -80 -60 -127 -85 -192 -99 -36
-8 -69 -25 -113 -61 -34 -27 -75 -57 -92 -65 -54 -29 -149 -28 -301 2 -76 15
-155 25 -174 22 -19 -3 -94 -32 -165 -65 -72 -33 -150 -66 -173 -74 -29 -9
-45 -21 -53 -40 -9 -22 -24 -32 -73 -47 -76 -23 -256 -65 -405 -94 l-115 -22
-44 -120 c-48 -129 -55 -179 -38 -302 14 -99 -7 -161 -94 -278 -63 -86 -134
-214 -172 -312 -29 -74 -29 -75 -29 -306 -1 -258 14 -388 56 -510 31 -91 31
-96 0 -157 -25 -50 -25 -51 -9 -112 10 -41 14 -80 9 -113 -6 -53 -45 -147 -72
-177 -13 -15 -13 -19 1 -40 18 -25 21 -90 6 -118 -9 -17 -5 -21 30 -30 52 -14
83 -47 76 -80 -31 -144 -31 -151 8 -233 42 -88 64 -107 122 -107 40 0 42 1 48
39 3 22 22 60 42 86 44 58 51 77 52 138 0 54 29 105 72 129 14 8 51 21 82 28
63 14 124 6 288 -40 41 -12 105 -22 142 -23 58 -1 71 3 107 27 80 56 142 66
246 41 90 -22 100 -20 124 21 12 20 44 62 70 93 27 31 60 75 74 97 l26 42 -57
29 c-50 25 -57 32 -60 62 -2 19 -10 43 -17 55 -7 12 -20 48 -29 81 -8 33 -23
65 -32 70 -57 35 -80 53 -91 75 -19 38 -16 123 8 182 13 32 19 65 16 84 -5 27
1 37 36 71 67 64 86 73 149 73 l57 0 -14 40 c-14 39 -13 45 16 118 17 42 38
88 46 101 9 14 20 39 24 55 25 100 42 151 56 172 19 29 73 64 100 64 10 0 36
18 56 40 43 48 46 73 20 192 l-16 78 25 28 c14 15 35 53 48 84 28 72 72 113
132 122 25 4 52 4 61 0 15 -5 17 3 17 69 0 78 5 87 50 87 10 0 27 8 39 18 l20
17 -19 70 c-37 128 -34 135 79 246 78 76 98 102 94 118 -3 11 -1 34 5 50 8 22
7 42 -3 75 -8 25 -17 85 -20 133 -11 141 -33 186 -80 160z"/>
</g>
</svg>
