<?xml version="1.0" standalone="no"?>
<!DOCTYPE svg PUBLIC "-//W3C//DTD SVG 20010904//EN"
 "http://www.w3.org/TR/2001/REC-SVG-20010904/DTD/svg10.dtd">
<svg version="1.0" xmlns="http://www.w3.org/2000/svg"
 width="129.000000pt" height="132.000000pt" viewBox="0 0 129.000000 132.000000"
 preserveAspectRatio="xMidYMid meet">
<metadata>
Created by potrace 1.15, written by Peter Selinger 2001-2017
</metadata>
<g transform="translate(0.000000,132.000000) scale(0.100000,-0.100000)"
fill="#000000" stroke="none">
<path d="M612 1294 c-12 -8 -22 -22 -22 -30 0 -10 -12 -14 -38 -14 -21 0 -42
-4 -48 -9 -5 -5 -27 -14 -49 -21 -56 -18 -133 -57 -175 -90 -19 -16 -46 -27
-60 -26 -20 1 -25 -4 -25 -24 0 -23 -39 -91 -57 -98 -4 -2 -8 -10 -8 -19 0 -8
-8 -27 -19 -41 -20 -30 -57 -144 -67 -209 -4 -27 -12 -43 -20 -43 -8 0 -14 -9
-14 -20 0 -13 7 -20 19 -20 15 0 19 -10 24 -59 8 -74 38 -156 77 -207 16 -21
30 -44 30 -50 0 -6 9 -19 20 -29 13 -12 19 -28 17 -49 -2 -27 1 -31 23 -31 14
0 47 -12 73 -27 35 -20 56 -26 78 -21 20 4 29 1 29 -7 0 -7 8 -10 20 -7 11 3
20 1 20 -3 0 -5 10 -11 23 -13 12 -3 5 -5 -15 -4 -20 1 -40 -2 -44 -6 -4 -4 4
-7 19 -7 14 0 28 -4 31 -8 3 -5 37 -15 76 -22 58 -11 73 -11 79 -1 6 10 10 9
15 -4 3 -9 5 -20 3 -23 -2 -4 4 -15 14 -24 17 -16 18 -15 28 13 9 25 15 29 49
29 79 0 198 46 283 110 38 29 60 39 76 35 23 -5 25 -1 38 62 4 19 13 33 21 33
8 0 14 7 14 15 0 9 16 47 35 85 19 38 35 76 35 84 0 7 7 27 15 42 8 16 15 37
15 47 0 10 7 29 16 43 16 24 16 26 -5 40 -14 10 -21 26 -21 46 0 72 -47 203
-99 275 -16 22 -31 54 -33 69 -2 22 -9 30 -26 32 -13 2 -59 28 -103 57 -54 37
-105 62 -162 80 -46 14 -88 25 -95 25 -7 0 -12 6 -12 14 0 17 -38 46 -60 46
-9 0 -26 -7 -38 -16z"/>
</g>
</svg>
