<?xml version="1.0" standalone="no"?>
<!DOCTYPE svg PUBLIC "-//W3C//DTD SVG 20010904//EN"
 "http://www.w3.org/TR/2001/REC-SVG-20010904/DTD/svg10.dtd">
<svg version="1.0" xmlns="http://www.w3.org/2000/svg"
 width="299.000000pt" height="243.000000pt" viewBox="0 0 299.000000 243.000000"
 preserveAspectRatio="xMidYMid meet">
<metadata>
Created by potrace 1.15, written by Peter Selinger 2001-2017
</metadata>
<g transform="translate(0.000000,243.000000) scale(0.100000,-0.100000)"
fill="#000000" stroke="none">
<path d="M1673 2394 c-18 -14 -33 -32 -33 -41 0 -33 -33 -82 -76 -112 -24 -18
-44 -38 -44 -45 0 -6 -16 -36 -35 -66 -26 -41 -35 -66 -35 -99 0 -27 -8 -57
-22 -79 -18 -29 -22 -52 -23 -117 -1 -102 -25 -153 -90 -191 -25 -14 -45 -30
-45 -35 0 -5 -5 -9 -11 -9 -16 0 -38 -31 -39 -53 0 -10 -16 -49 -35 -87 -19
-38 -35 -76 -35 -85 0 -8 -6 -15 -14 -15 -8 0 -17 -14 -21 -32 -13 -66 -15
-68 -41 -62 -19 5 -32 0 -52 -18 -15 -14 -41 -34 -58 -46 -44 -30 -204 -82
-253 -82 -34 0 -41 -3 -41 -20 0 -24 -16 -26 -36 -5 -23 22 -54 19 -54 -5 0
-13 7 -20 19 -20 45 0 65 -77 37 -143 -14 -34 -65 -92 -105 -119 l-23 -17 37
-76 c21 -42 62 -106 92 -143 90 -112 102 -147 101 -282 0 -94 -4 -121 -19
-148 -13 -23 -16 -39 -10 -50 5 -9 56 -29 126 -49 l118 -33 66 26 c78 30 121
57 216 134 102 82 126 94 276 139 151 46 169 48 209 25 26 -16 32 -15 171 31
287 94 352 138 393 263 14 42 35 119 46 169 25 116 47 183 68 206 9 11 80 50
157 87 207 101 256 156 269 305 17 185 63 387 120 520 31 73 33 127 6 197 -11
29 -20 65 -20 79 0 25 -1 26 -56 18 -36 -5 -67 -17 -90 -34 -38 -29 -39 -29
-128 8 -51 22 -70 25 -128 20 -57 -5 -71 -3 -88 12 -11 10 -20 27 -20 37 0 28
-48 71 -96 87 -40 13 -43 12 -95 -22 -49 -32 -63 -36 -154 -43 -193 -15 -214
-11 -317 63 -41 30 -48 40 -44 59 8 31 -1 30 -41 -2z"/>
</g>
</svg>
