<?xml version="1.0" standalone="no"?>
<!DOCTYPE svg PUBLIC "-//W3C//DTD SVG 20010904//EN"
 "http://www.w3.org/TR/2001/REC-SVG-20010904/DTD/svg10.dtd">
<svg version="1.0" xmlns="http://www.w3.org/2000/svg"
 width="213.000000pt" height="251.000000pt" viewBox="0 0 213.000000 251.000000"
 preserveAspectRatio="xMidYMid meet">
<metadata>
Created by potrace 1.15, written by Peter Selinger 2001-2017
</metadata>
<g transform="translate(0.000000,251.000000) scale(0.100000,-0.100000)"
fill="#000000" stroke="none">
<path d="M1530 2479 c-36 -11 -94 -29 -130 -40 -36 -11 -96 -35 -135 -53 -38
-18 -119 -55 -180 -82 -104 -47 -115 -54 -217 -156 -122 -121 -171 -153 -378
-242 -161 -69 -300 -116 -345 -116 -30 0 -35 -5 -63 -62 -60 -124 -82 -249
-63 -353 10 -53 17 -66 64 -110 28 -28 71 -74 95 -103 47 -57 112 -95 259
-152 132 -50 128 -44 128 -203 0 -120 2 -138 20 -160 85 -106 80 -97 80 -167
0 -56 -4 -73 -28 -109 -32 -49 -72 -75 -143 -96 -47 -14 -51 -18 -68 -66 -17
-47 -56 -95 -104 -129 -12 -8 -23 -26 -24 -40 -3 -25 -2 -25 69 -23 49 2 98
13 160 34 72 26 110 33 213 38 69 4 154 15 189 25 58 16 67 17 105 2 46 -17
246 -27 389 -18 87 5 87 5 87 32 0 15 -7 49 -15 76 -8 27 -15 63 -15 80 0 77
109 220 226 296 35 22 64 44 64 48 0 4 -7 13 -16 21 -8 7 -22 25 -30 41 -14
27 -13 32 6 63 24 38 86 272 96 359 6 52 16 73 72 155 61 91 123 169 185 236
50 54 49 84 -13 369 -44 203 -57 320 -42 383 15 67 -1 115 -53 152 -110 79
-315 111 -445 70z"/>
</g>
</svg>
