<?xml version="1.0" standalone="no"?>
<!DOCTYPE svg PUBLIC "-//W3C//DTD SVG 20010904//EN"
 "http://www.w3.org/TR/2001/REC-SVG-20010904/DTD/svg10.dtd">
<svg version="1.0" xmlns="http://www.w3.org/2000/svg"
 width="319.000000pt" height="264.000000pt" viewBox="0 0 319.000000 264.000000"
 preserveAspectRatio="xMidYMid meet">
<metadata>
Created by potrace 1.15, written by Peter Selinger 2001-2017
</metadata>
<g transform="translate(0.000000,264.000000) scale(0.100000,-0.100000)"
fill="#000000" stroke="none">
<path d="M10 1855 c0 -492 2 -595 14 -602 7 -4 76 -66 152 -138 148 -140 611
-573 734 -689 41 -38 118 -111 170 -160 52 -50 130 -124 173 -165 l77 -74 50
5 c27 3 59 13 72 22 13 9 38 28 56 41 67 48 151 43 231 -15 l40 -29 53 24 c36
17 71 25 108 25 46 0 69 8 139 46 130 69 210 126 277 197 66 70 102 85 164 67
52 -15 58 -13 65 20 4 16 16 37 28 45 25 17 114 20 166 5 32 -9 37 -7 81 34
25 24 56 49 68 55 18 9 22 21 22 59 0 46 -1 48 -46 72 -26 13 -53 30 -60 38
-18 18 -18 56 1 72 21 17 39 83 31 114 -4 15 -17 32 -30 38 -37 16 -27 63 49
221 36 75 86 187 110 247 39 95 45 118 45 182 -1 60 -3 69 -12 53 -6 -11 -14
-22 -17 -25 -17 -14 -28 -49 -24 -73 4 -22 2 -27 -16 -27 -11 0 -21 5 -21 10
0 6 -4 10 -10 10 -5 0 -10 -7 -10 -15 0 -8 -16 -22 -35 -31 -19 -9 -35 -20
-35 -24 0 -13 -111 -63 -142 -64 -14 -1 -24 -4 -22 -8 6 -9 -63 -28 -103 -28
-23 0 -36 -6 -44 -22 -12 -22 -12 -22 -28 -2 -10 12 -40 24 -81 31 -94 18
-174 42 -178 53 -2 6 -10 10 -18 10 -8 0 -14 5 -14 10 0 6 -6 10 -14 10 -8 0
-16 3 -18 8 -8 18 -69 42 -93 36 -23 -6 -25 -3 -25 25 0 20 -17 57 -50 107
-48 74 -81 160 -95 252 -4 24 -13 46 -21 49 -19 7 -18 32 1 39 9 4 15 19 15
36 0 40 31 158 41 158 5 0 9 7 9 16 0 21 56 126 81 153 11 12 19 31 17 44 -2
18 3 23 25 25 15 2 27 8 27 13 0 5 -412 9 -1065 9 l-1065 0 0 -595z"/>
</g>
</svg>
