<?xml version="1.0" standalone="no"?>
<!DOCTYPE svg PUBLIC "-//W3C//DTD SVG 20010904//EN"
 "http://www.w3.org/TR/2001/REC-SVG-20010904/DTD/svg10.dtd">
<svg version="1.0" xmlns="http://www.w3.org/2000/svg"
 width="129.000000pt" height="130.000000pt" viewBox="0 0 129.000000 130.000000"
 preserveAspectRatio="xMidYMid meet">
<metadata>
Created by potrace 1.15, written by Peter Selinger 2001-2017
</metadata>
<g transform="translate(0.000000,130.000000) scale(0.100000,-0.100000)"
fill="#000000" stroke="none">
<path d="M604 1267 c-12 -16 -39 -28 -79 -36 -33 -7 -85 -24 -115 -37 -54 -25
-150 -82 -160 -95 -3 -4 -16 -9 -30 -10 -17 -3 -25 -10 -25 -25 -1 -11 -15
-43 -32 -70 -72 -114 -113 -225 -113 -304 0 -19 -5 -30 -14 -30 -22 0 -27 -29
-7 -39 12 -7 20 -26 24 -61 10 -80 45 -168 99 -248 27 -41 48 -81 47 -90 -4
-45 0 -52 27 -42 21 8 33 5 72 -22 89 -62 177 -96 274 -105 44 -4 59 -10 63
-24 8 -24 22 -24 34 -1 6 11 23 19 47 20 66 5 264 81 264 101 0 5 10 13 22 16
11 4 32 19 45 33 12 14 23 20 23 13 0 -6 10 -11 21 -11 18 0 20 5 16 27 -4 23
7 58 24 73 3 3 19 32 36 65 34 68 58 140 69 205 4 26 14 50 25 58 24 17 24 32
1 32 -15 0 -21 13 -31 68 -21 116 -52 199 -99 260 -15 20 -27 47 -27 61 0 20
-6 26 -31 32 -29 5 -40 12 -79 47 -7 6 -18 12 -24 12 -6 0 -11 4 -11 10 0 13
-108 61 -153 68 -21 2 -40 9 -43 13 -3 5 -15 9 -27 9 -12 0 -31 11 -41 25 -24
32 -66 33 -92 2z"/>
</g>
</svg>
