<?xml version="1.0" standalone="no"?>
<!DOCTYPE svg PUBLIC "-//W3C//DTD SVG 20010904//EN"
 "http://www.w3.org/TR/2001/REC-SVG-20010904/DTD/svg10.dtd">
<svg version="1.0" xmlns="http://www.w3.org/2000/svg"
 width="405.000000pt" height="667.000000pt" viewBox="0 0 405.000000 667.000000"
 preserveAspectRatio="xMidYMid meet">
<metadata>
Created by potrace 1.15, written by Peter Selinger 2001-2017
</metadata>
<g transform="translate(0.000000,667.000000) scale(0.100000,-0.100000)"
fill="#000000" stroke="none">
<path d="M2210 6649 c0 -8 -24 -36 -53 -62 -76 -70 -84 -76 -112 -83 -14 -3
-25 -10 -25 -16 0 -5 -4 -7 -9 -4 -5 4 -11 3 -13 -1 -1 -5 -34 -16 -73 -26
-38 -10 -81 -25 -95 -35 -14 -9 -28 -17 -32 -17 -15 0 -58 -58 -67 -90 -12
-44 -3 -75 47 -168 54 -98 65 -140 47 -184 -13 -30 -45 -73 -45 -59 0 3 -19
-3 -42 -14 -55 -23 -148 -38 -326 -50 -79 -5 -170 -17 -203 -26 -127 -36 -206
-166 -233 -389 -8 -60 -20 -123 -27 -140 -16 -34 -44 -65 -59 -65 -6 0 -10 -5
-10 -10 0 -6 -3 -9 -8 -8 -15 4 -50 -13 -56 -28 -3 -8 -10 -12 -16 -9 -5 3
-10 1 -10 -5 0 -6 -4 -8 -10 -5 -5 3 -10 1 -10 -6 0 -7 -3 -10 -6 -7 -3 4 -14
-2 -25 -13 -11 -11 -24 -17 -28 -14 -5 2 -12 -2 -15 -11 -3 -8 -10 -12 -16 -9
-5 3 -10 1 -10 -5 0 -6 -4 -8 -10 -5 -5 3 -10 1 -10 -4 0 -10 -81 -67 -88 -62
-2 1 -12 -7 -22 -19 -10 -12 -21 -21 -24 -21 -11 2 -126 -114 -126 -126 0 -7
-4 -13 -10 -13 -15 0 -57 -101 -69 -164 -11 -59 -28 -114 -56 -181 -10 -22
-21 -71 -26 -110 -27 -220 -95 -598 -115 -636 -8 -16 -12 -34 -9 -39 3 -6 2
-10 -3 -10 -22 0 -79 -228 -89 -357 -11 -151 23 -252 134 -398 86 -113 158
-235 183 -311 24 -71 24 -180 1 -208 -7 -8 -10 -20 -6 -26 3 -5 2 -10 -3 -10
-16 0 -74 -148 -70 -178 2 -21 21 -39 90 -85 133 -87 177 -161 164 -279 -10
-80 -31 -148 -83 -258 -24 -52 -46 -103 -48 -113 -4 -16 23 -17 448 -17 249 0
462 3 475 6 15 5 22 14 22 31 0 33 60 93 92 93 29 0 48 -14 73 -55 10 -16 37
-50 60 -75 53 -57 62 -75 64 -129 0 -28 10 -57 24 -78 21 -33 24 -34 72 -27
28 3 60 12 72 20 28 18 52 8 60 -25 3 -14 16 -38 28 -53 12 -14 25 -44 28 -65
6 -33 17 -47 72 -91 36 -29 71 -52 79 -52 19 0 52 -41 65 -82 10 -31 10 -43
-5 -73 -9 -19 -14 -46 -12 -60 4 -16 -2 -30 -16 -42 -23 -19 -67 -26 -77 -12
-3 5 -23 0 -44 -11 -22 -11 -51 -20 -65 -20 -14 0 -31 -5 -38 -12 -7 -7 -12
-8 -12 -3 0 4 -9 0 -20 -10 -11 -10 -20 -24 -20 -32 0 -7 -7 -16 -15 -19 -8
-4 -13 -10 -10 -14 3 -4 -2 -11 -11 -14 -9 -4 -14 -9 -10 -13 7 -8 -43 -63
-58 -63 -10 -1 -155 -190 -165 -215 -2 -5 -11 -15 -20 -22 -14 -10 -5 -22 64
-91 106 -104 172 -137 275 -137 98 0 149 25 255 125 45 41 104 86 132 99 54
25 66 42 77 112 4 22 27 63 62 107 81 105 115 187 122 292 2 47 9 93 14 103
16 31 56 49 134 58 42 6 92 16 113 23 162 61 150 58 220 46 36 -6 104 -27 149
-47 77 -33 90 -35 155 -30 40 2 95 13 122 23 34 13 77 19 136 19 77 0 92 -3
149 -33 37 -19 78 -32 99 -32 43 0 101 32 102 57 2 35 -3 56 -17 70 -8 8 -14
21 -14 28 0 8 -6 18 -14 22 -19 11 -46 68 -46 95 1 37 21 53 91 77 136 45 166
101 134 246 -9 42 -17 117 -18 166 -1 49 -3 89 -5 89 -2 0 -18 -11 -36 -25
-18 -14 -35 -22 -38 -20 -3 3 -39 -30 -79 -74 -82 -89 -113 -101 -178 -68 -36
18 -121 23 -121 8 0 -5 -9 -13 -21 -16 -35 -11 -89 -66 -89 -89 0 -22 -29 -54
-68 -75 -15 -8 -33 -3 -87 25 -38 18 -84 34 -102 34 -53 0 -110 -28 -132 -65
-15 -26 -31 -37 -72 -49 -86 -26 -106 -22 -125 22 -9 21 -16 66 -16 106 0 58
-5 78 -32 130 -18 34 -35 71 -38 84 -4 13 -14 22 -26 22 -11 0 -44 11 -74 25
-29 14 -67 28 -85 31 -18 3 -35 14 -38 23 -3 10 -21 35 -41 56 -42 46 -54 67
-54 93 0 11 -16 33 -35 49 -19 17 -41 49 -49 71 -8 23 -31 55 -49 72 -19 17
-38 42 -42 57 -6 27 -59 105 -102 153 -26 28 -26 30 -14 63 7 19 20 27 50 32
23 4 41 11 41 16 0 5 7 9 15 9 8 0 27 18 42 41 14 22 39 47 54 55 40 20 69 54
69 81 0 17 12 29 48 48 69 36 82 49 82 82 0 17 9 42 20 56 11 14 20 35 20 47
0 11 6 33 14 48 7 15 16 70 19 123 6 95 6 96 -18 107 -21 10 -47 4 -165 -34
-77 -25 -140 -50 -140 -55 0 -5 -8 -9 -18 -9 -9 0 -22 -8 -29 -18 -21 -35
-198 -159 -271 -190 -85 -37 -147 -41 -207 -12 -22 11 -50 19 -62 20 -12 0
-24 4 -27 9 -3 5 -21 12 -39 15 -22 4 -42 18 -58 39 -29 39 -30 46 -7 76 24
32 33 86 19 119 -10 23 -9 34 4 58 8 16 15 35 15 42 0 20 -41 112 -50 112 -4
0 -13 14 -20 30 -7 17 -20 36 -29 43 -46 33 -147 231 -136 265 3 9 20 27 39
39 55 35 88 87 94 144 3 32 1 54 -6 58 -6 4 -13 18 -14 31 -3 21 1 25 25 25
19 -1 26 3 22 13 -3 7 -5 16 -5 18 0 2 -5 4 -11 4 -5 0 -7 -4 -4 -10 9 -14
-31 -12 -94 5 -60 15 -89 35 -54 35 12 0 24 4 27 9 3 4 -6 6 -19 3 -14 -2 -25
0 -25 6 0 6 -10 8 -22 4 -14 -3 -19 -2 -14 6 5 8 0 12 -13 12 -10 0 -28 12
-39 27 l-19 27 -12 -23 -12 -22 -33 21 c-20 12 -41 17 -51 14 -21 -9 -36 13
-29 43 4 14 -1 28 -15 40 -12 9 -21 22 -21 28 0 5 -18 37 -40 69 -38 57 -70
159 -70 220 0 19 -5 26 -20 26 -13 0 -20 7 -20 20 0 11 6 20 14 20 9 0 16 17
21 50 4 28 11 50 17 50 5 0 6 5 3 11 -4 5 -1 25 5 42 24 61 64 152 70 157 27
25 58 81 54 97 -6 20 19 39 36 28 5 -3 37 14 72 38 35 23 77 48 93 54 17 6 56
21 87 33 32 12 71 20 87 18 23 -3 27 -1 24 13 -3 11 5 24 21 34 31 21 76 9 91
-23 5 -12 14 -22 19 -22 6 0 47 -11 93 -25 57 -18 108 -43 162 -80 44 -29 90
-55 103 -57 17 -2 24 -10 26 -32 2 -16 18 -49 36 -75 49 -71 96 -200 96 -268
0 -21 7 -37 20 -46 14 -10 18 -20 13 -33 -7 -18 -6 -18 17 -3 48 31 65 76 65
170 0 68 4 89 18 103 9 10 17 25 18 34 5 83 12 107 44 155 19 28 35 59 35 68
0 17 17 35 78 84 20 17 32 36 32 52 0 14 12 36 28 51 45 44 106 92 118 92 20
0 34 -24 34 -60 0 -31 6 -40 44 -67 75 -53 103 -59 213 -45 54 7 110 12 124
12 34 0 168 89 175 117 3 12 3 31 -1 43 -13 39 -92 100 -132 100 -12 0 -43 18
-68 40 -25 22 -51 40 -57 40 -6 0 -28 18 -50 41 -45 47 -49 82 -8 87 32 4 80
22 80 31 0 4 13 22 28 40 l28 34 65 -21 c90 -31 231 -26 279 8 33 23 70 89 70
125 0 34 -35 133 -54 154 -10 11 -40 24 -66 30 -26 6 -64 20 -84 31 -19 12
-41 23 -48 24 -38 9 -80 30 -88 46 -7 13 -5 29 6 55 9 23 13 49 8 67 -4 20 -2
33 6 38 7 4 9 13 5 20 -5 8 -11 8 -23 -3 -28 -24 -103 -37 -181 -33 -68 3 -78
7 -108 35 -18 17 -33 38 -33 46 0 11 -11 15 -39 15 -44 0 -71 20 -71 53 0 11
-10 31 -22 44 -12 13 -23 33 -25 46 -2 12 -17 34 -35 50 -27 23 -41 27 -90 27
-31 0 -60 5 -63 10 -4 6 -43 8 -105 4 -73 -5 -103 -4 -115 6 -8 7 -13 16 -10
20 2 4 -4 15 -15 25 -15 14 -20 15 -20 4z"/>
</g>
</svg>
