<?xml version="1.0" standalone="no"?>
<!DOCTYPE svg PUBLIC "-//W3C//DTD SVG 20010904//EN"
 "http://www.w3.org/TR/2001/REC-SVG-20010904/DTD/svg10.dtd">
<svg version="1.0" xmlns="http://www.w3.org/2000/svg"
 width="333.000000pt" height="235.000000pt" viewBox="0 0 333.000000 235.000000"
 preserveAspectRatio="xMidYMid meet">
<metadata>
Created by potrace 1.15, written by Peter Selinger 2001-2017
</metadata>
<g transform="translate(0.000000,235.000000) scale(0.100000,-0.100000)"
fill="#000000" stroke="none">
<path d="M1420 2330 c-74 -3 -123 -7 -108 -8 21 -2 26 -6 23 -22 -2 -11 0 -18
6 -15 5 4 9 -10 9 -31 0 -35 -35 -104 -52 -104 -5 0 -8 -15 -8 -34 0 -24 -7
-40 -24 -53 -13 -11 -35 -42 -49 -70 -47 -92 -132 -139 -243 -132 l-47 3 -22
-50 c-19 -43 -28 -52 -64 -64 -31 -10 -54 -11 -95 -4 -30 6 -63 7 -73 3 -12
-4 -33 -40 -57 -98 -49 -117 -66 -137 -150 -176 -39 -18 -80 -42 -91 -54 -11
-13 -44 -34 -75 -48 -30 -15 -70 -39 -88 -54 -18 -16 -44 -32 -58 -35 -28 -7
-98 -1 -128 12 -17 7 -19 4 -12 -27 10 -52 63 -132 153 -231 133 -146 143
-211 53 -333 -37 -50 -50 -78 -55 -113 -3 -26 -11 -71 -17 -100 -16 -76 -4
-96 85 -136 40 -18 79 -41 87 -50 8 -10 14 -41 15 -72 0 -29 6 -59 13 -66 6
-6 12 -31 12 -54 0 -41 1 -42 55 -64 74 -30 169 -39 242 -24 32 7 119 32 193
57 247 82 324 128 356 215 10 26 21 51 26 56 4 6 8 19 8 30 0 30 45 100 75
116 38 20 62 59 80 125 27 104 34 109 158 120 142 12 218 61 327 209 77 104
126 141 187 140 32 -1 51 -8 71 -26 34 -32 131 -93 178 -113 37 -15 51 -15
188 11 109 20 133 18 162 -11 31 -31 37 -31 104 5 39 21 69 30 103 30 55 0 74
-8 137 -60 59 -49 96 -60 195 -60 69 0 85 3 100 20 17 19 16 20 -12 44 -51 43
-81 112 -93 217 -9 74 -18 109 -47 164 -43 85 -71 116 -140 155 -29 16 -62 44
-75 61 -13 17 -39 39 -59 50 -47 24 -83 66 -105 126 -12 31 -37 66 -71 98 -29
28 -53 58 -53 68 0 10 -14 23 -34 31 -39 16 -66 38 -110 85 -17 19 -47 52 -67
73 l-35 39 -45 -20 c-72 -33 -130 -28 -306 30 -98 33 -167 62 -187 78 -102 87
-234 154 -291 149 -11 -1 -81 -5 -155 -8z"/>
</g>
</svg>
