<?xml version="1.0" standalone="no"?>
<!DOCTYPE svg PUBLIC "-//W3C//DTD SVG 20010904//EN"
 "http://www.w3.org/TR/2001/REC-SVG-20010904/DTD/svg10.dtd">
<svg version="1.0" xmlns="http://www.w3.org/2000/svg"
 width="461.000000pt" height="148.000000pt" viewBox="0 0 461.000000 148.000000"
 preserveAspectRatio="xMidYMid meet">
<metadata>
Created by potrace 1.15, written by Peter Selinger 2001-2017
</metadata>
<g transform="translate(0.000000,148.000000) scale(0.100000,-0.100000)"
fill="#000000" stroke="none">
<path d="M1670 1463 c-52 -19 -130 -57 -130 -64 0 -5 -6 -9 -13 -9 -7 0 -22
-8 -33 -18 -10 -10 -26 -21 -34 -24 -21 -9 -314 -238 -318 -249 -2 -5 -8 -9
-14 -9 -5 0 -24 -11 -41 -24 -53 -39 -114 -66 -151 -66 -25 0 -64 17 -137 61
-178 107 -200 110 -371 48 -137 -49 -197 -50 -266 -4 -47 31 -58 29 -115 -20
-27 -24 -27 -25 -9 -43 15 -15 20 -41 26 -133 7 -117 1 -156 -40 -283 -20 -60
-14 -137 13 -174 11 -15 42 -43 69 -62 78 -55 141 -124 149 -161 12 -54 22
-61 56 -37 34 25 125 36 158 18 12 -6 61 -13 109 -16 241 -12 245 -13 308 -44
56 -27 117 -81 141 -124 9 -16 14 -15 59 8 27 14 87 34 134 44 l85 18 29 57
c19 38 36 57 50 59 19 3 21 10 24 80 3 72 5 78 26 84 15 3 29 21 43 55 12 27
28 49 36 49 8 0 66 -20 129 -44 62 -24 156 -55 208 -70 185 -51 174 -45 170
-94 -1 -18 8 -27 45 -43 l46 -21 137 43 c88 28 150 53 173 72 53 41 106 46
171 15 81 -39 84 -39 109 -11 13 14 41 34 63 45 37 19 41 19 75 4 37 -17 185
-57 376 -102 149 -35 288 -37 334 -5 36 26 145 45 172 30 15 -8 21 -4 33 20 8
15 13 31 10 33 -2 3 2 11 10 17 12 10 30 5 93 -25 58 -28 95 -38 144 -42 l66
-4 21 37 c12 20 22 45 22 56 0 23 35 95 59 123 22 25 87 57 104 51 7 -3 34 3
59 14 l45 19 24 -24 24 -23 45 28 c44 27 46 32 83 144 21 64 35 121 32 127 -3
5 -37 10 -74 10 -80 0 -105 9 -183 68 l-57 42 -103 1 c-166 0 -195 19 -199
132 -2 47 -5 56 -18 53 -34 -10 -211 -36 -310 -46 -132 -13 -475 -13 -522 0
-21 6 -44 21 -52 33 -28 44 -238 94 -347 84 -30 -3 -93 -11 -140 -18 -169 -27
-270 -11 -334 54 -12 12 -33 17 -71 17 -69 0 -127 22 -300 115 -133 71 -172
84 -215 68z"/>
</g>
</svg>
