<?xml version="1.0" standalone="no"?>
<!DOCTYPE svg PUBLIC "-//W3C//DTD SVG 20010904//EN"
 "http://www.w3.org/TR/2001/REC-SVG-20010904/DTD/svg10.dtd">
<svg version="1.0" xmlns="http://www.w3.org/2000/svg"
 width="293.000000pt" height="259.000000pt" viewBox="0 0 293.000000 259.000000"
 preserveAspectRatio="xMidYMid meet">
<metadata>
Created by potrace 1.15, written by Peter Selinger 2001-2017
</metadata>
<g transform="translate(0.000000,259.000000) scale(0.100000,-0.100000)"
fill="#000000" stroke="none">
<path d="M597 2565 c-105 -21 -195 -68 -296 -153 -33 -28 -34 -29 -16 -55 15
-23 24 -27 65 -27 26 0 62 -5 79 -11 24 -9 35 -9 44 0 18 18 33 13 45 -14 19
-41 15 -45 -43 -45 -34 0 -55 4 -55 11 0 8 -5 7 -15 -1 -12 -10 -58 -12 -194
-7 -176 5 -222 0 -185 -21 16 -9 18 -25 18 -147 0 -123 -2 -139 -19 -151 -10
-8 -16 -16 -13 -20 8 -7 83 -8 198 -1 52 4 187 9 299 12 188 6 205 5 225 -12
11 -11 35 -20 51 -22 42 -4 73 -26 81 -58 4 -15 20 -47 35 -72 16 -24 36 -65
44 -92 13 -39 21 -49 45 -54 16 -3 40 -17 53 -31 23 -22 25 -33 26 -111 1 -47
6 -103 13 -125 9 -29 9 -41 0 -50 -15 -15 -15 -29 -1 -25 23 5 18 -40 -6 -63
-18 -16 -25 -34 -25 -59 0 -20 -5 -43 -10 -51 -7 -11 -10 -6 -10 20 l0 35 -20
-25 c-10 -14 -24 -26 -29 -26 -6 -1 -17 -2 -23 -3 -10 -1 -9 -4 1 -10 9 -6 1
-10 -27 -13 -38 -3 -41 -2 -47 27 -3 16 -13 48 -23 69 l-18 40 -18 -50 c-9
-27 -24 -64 -32 -83 l-15 -34 -52 51 -52 52 -10 -66 -10 -65 -57 40 c-56 39
-78 40 -60 4 17 -32 32 -89 32 -116 0 -15 4 -27 8 -27 4 0 9 -13 10 -29 2 -29
2 -29 -69 -36 -66 -7 -70 -9 -64 -29 3 -11 10 -46 14 -77 5 -31 20 -73 33 -93
22 -34 26 -36 76 -36 28 0 52 3 52 8 0 4 11 19 25 34 l24 26 40 -19 c48 -23
99 -25 107 -4 4 10 21 15 53 15 67 0 120 18 153 51 16 16 34 29 39 29 9 0 11
5 13 55 0 17 6 32 13 35 6 3 22 21 35 40 13 19 39 45 57 57 30 20 45 23 122
21 50 -2 81 -6 73 -11 -16 -9 -20 -127 -4 -127 6 0 10 -11 10 -25 0 -21 -5
-25 -29 -25 -76 0 -118 -49 -107 -125 4 -23 13 -51 21 -61 31 -41 13 -206 -26
-229 -23 -15 1 -127 29 -132 29 -6 804 -3 829 3 15 4 34 16 41 26 7 10 18 18
23 18 23 0 199 -91 254 -132 72 -53 79 -56 225 -101 159 -49 175 -51 227 -26
l43 21 -19 32 c-11 18 -23 51 -27 74 -6 37 -13 45 -69 82 -34 22 -71 50 -83
63 -30 32 -55 96 -47 124 5 20 0 26 -37 42 -70 30 -108 85 -108 155 0 30 -3
33 -48 44 -28 8 -74 33 -112 62 -36 27 -72 50 -80 50 -18 1 -42 21 -91 75 -20
22 -42 41 -50 43 -20 5 -59 43 -54 53 3 4 -3 14 -12 21 -19 14 -26 30 -27 66
-1 20 -26 33 -26 13 0 -10 -32 -7 -49 3 -5 4 -11 2 -13 -3 -1 -5 -47 -12 -100
-16 -87 -7 -98 -5 -98 9 0 9 -8 16 -19 16 -20 0 -31 26 -31 78 0 17 -4 32 -10
32 -5 0 -10 10 -10 23 0 20 8 25 60 36 33 8 63 18 66 22 3 5 12 9 20 9 8 0 31
7 52 17 20 9 40 17 44 17 3 1 10 5 15 9 4 5 -13 6 -39 2 -34 -5 -48 -4 -48 4
0 7 -5 9 -10 6 -19 -12 -78 35 -98 78 -11 23 -25 72 -32 108 l-12 67 -48 4
c-58 6 -117 46 -126 86 -4 15 -18 46 -32 70 -23 40 -24 50 -18 120 13 150 18
134 -44 152 -60 18 -60 19 -44 97 11 56 -2 81 -56 108 -58 29 -68 59 -53 149
9 52 9 55 -11 58 -22 3 -27 35 -12 70 14 32 -35 41 -180 33 l-131 -6 -20 26
c-13 19 -33 30 -64 36 -64 12 -204 9 -282 -6z"/>
</g>
</svg>
