<?xml version="1.0" standalone="no"?>
<!DOCTYPE svg PUBLIC "-//W3C//DTD SVG 20010904//EN"
 "http://www.w3.org/TR/2001/REC-SVG-20010904/DTD/svg10.dtd">
<svg version="1.0" xmlns="http://www.w3.org/2000/svg"
 width="536.000000pt" height="238.000000pt" viewBox="0 0 536.000000 238.000000"
 preserveAspectRatio="xMidYMid meet">
<metadata>
Created by potrace 1.15, written by Peter Selinger 2001-2017
</metadata>
<g transform="translate(0.000000,238.000000) scale(0.100000,-0.100000)"
fill="#000000" stroke="none">
<path d="M2138 2358 c-27 -9 -28 -13 -28 -73 0 -46 -4 -66 -17 -76 -27 -23
-53 -91 -53 -141 0 -51 -12 -68 -59 -88 -17 -7 -31 -16 -31 -20 0 -11 -49 -30
-80 -30 -27 0 -80 41 -80 63 0 4 -15 16 -32 27 -64 39 -139 21 -213 -51 -55
-53 -74 -59 -92 -29 -7 10 -32 25 -55 31 -24 7 -58 26 -76 41 -38 33 -44 32
-142 -17 -62 -31 -83 -40 -105 -44 -5 -2 -17 -8 -25 -15 -8 -7 -30 -18 -47
-26 -39 -15 -41 -28 -10 -78 46 -75 49 -89 41 -211 -6 -117 -18 -151 -51 -151
-7 0 -29 -22 -48 -49 -26 -36 -45 -52 -68 -57 -37 -8 -85 -30 -109 -51 -15
-14 -15 -18 3 -71 11 -31 17 -62 15 -69 -3 -6 -21 -15 -40 -19 -20 -3 -56 -20
-81 -36 l-45 -30 0 -97 0 -98 -50 -42 c-29 -25 -67 -71 -91 -114 -72 -124 -65
-120 -201 -112 -138 8 -163 0 -223 -72 -28 -33 -39 -55 -36 -73 5 -39 15 -43
79 -26 73 19 266 13 351 -11 69 -18 124 -11 196 27 54 28 54 28 79 9 13 -10
31 -19 39 -19 8 0 34 -11 58 -24 55 -30 217 -44 304 -26 48 10 62 9 98 -6 26
-10 81 -19 147 -22 75 -3 116 -10 142 -23 54 -27 82 -24 163 21 40 22 82 40
93 40 13 0 29 -14 42 -35 15 -24 32 -38 52 -42 23 -5 47 -27 63 -60 1 -1 46
-9 101 -17 54 -9 124 -23 154 -32 68 -21 153 -21 202 0 21 9 42 16 47 16 14 0
54 -88 45 -101 -4 -7 8 -25 29 -43 37 -32 51 -36 310 -87 72 -14 94 -11 182
20 70 24 85 34 115 75 31 40 40 46 72 46 20 0 49 -5 63 -10 l27 -10 -7 92 c-4
51 -12 96 -19 100 -8 5 -8 10 1 19 10 10 54 9 201 -1 186 -13 803 -9 913 6 37
5 47 3 52 -10 5 -12 -3 -20 -26 -30 -28 -13 -29 -14 -9 -15 23 -1 24 -2 17
-74 -6 -63 -5 -74 8 -74 9 0 21 13 28 28 8 21 25 34 66 49 30 11 79 36 109 55
30 19 58 35 62 35 13 0 69 63 86 98 9 17 22 32 28 32 6 0 36 12 67 27 48 24
68 28 141 28 63 0 95 -5 123 -19 38 -19 38 -19 62 4 14 13 28 33 31 44 4 12
24 40 45 63 21 23 41 54 45 68 9 37 -2 97 -31 166 -51 120 -46 160 46 354 55
118 61 160 26 193 -13 12 -29 22 -35 22 -7 0 -12 3 -12 8 0 4 -15 23 -33 43
-38 41 -57 96 -57 166 0 62 -17 81 -57 65 -16 -6 -68 -21 -118 -33 -72 -17
-110 -20 -190 -16 -91 4 -107 8 -173 42 -77 39 -142 90 -142 111 0 20 -16 25
-18 6 -1 -9 -4 -26 -6 -37 -2 -11 -5 -23 -5 -27 -1 -8 -78 -25 -174 -38 -43
-5 -96 -19 -119 -31 -29 -15 -50 -19 -72 -14 -17 4 -57 6 -88 6 -65 -2 -66 0
-43 64 19 53 19 109 0 125 -22 18 -100 24 -133 11 -23 -10 -35 -8 -73 8 -24
11 -63 21 -87 21 -41 0 -44 2 -61 44 -23 51 -62 93 -97 102 -28 7 -95 -33
-151 -92 -31 -33 -63 -45 -63 -24 0 6 -6 10 -14 10 -8 0 -16 4 -18 8 -1 4 -20
18 -41 31 -31 19 -46 22 -83 16 -39 -5 -48 -3 -76 20 -28 23 -37 26 -77 20
-25 -3 -64 -7 -87 -8 -46 -3 -94 -30 -94 -52 0 -8 -7 -15 -16 -15 -23 0 -97
22 -111 33 -7 5 -29 6 -50 2 -75 -12 -163 41 -178 107 -4 14 -1 44 6 66 6 22
9 52 5 67 -10 40 -70 95 -104 95 -15 0 -49 14 -77 30 -53 32 -113 38 -167 18z"/>
</g>
</svg>
