<?xml version="1.0" standalone="no"?>
<!DOCTYPE svg PUBLIC "-//W3C//DTD SVG 20010904//EN"
 "http://www.w3.org/TR/2001/REC-SVG-20010904/DTD/svg10.dtd">
<svg version="1.0" xmlns="http://www.w3.org/2000/svg"
 width="251.000000pt" height="323.000000pt" viewBox="0 0 251.000000 323.000000"
 preserveAspectRatio="xMidYMid meet">
<metadata>
Created by potrace 1.15, written by Peter Selinger 2001-2017
</metadata>
<g transform="translate(0.000000,323.000000) scale(0.100000,-0.100000)"
fill="#000000" stroke="none">
<path d="M2222 3203 c-11 -10 -48 -51 -82 -91 -74 -87 -111 -112 -165 -112
-42 0 -56 -7 -154 -82 -73 -55 -113 -65 -187 -48 -100 24 -232 -7 -334 -80
-36 -26 -68 -25 -97 2 l-23 21 -111 -17 c-133 -22 -172 -17 -270 31 -52 25
-88 36 -122 36 -70 1 -74 -7 -53 -112 18 -89 18 -89 -4 -147 -12 -33 -27 -66
-35 -74 -7 -8 -21 -35 -32 -60 -11 -25 -36 -60 -55 -79 -35 -33 -36 -34 -22
-67 33 -78 11 -140 -56 -162 -51 -17 -60 -26 -60 -64 0 -29 -31 -68 -53 -68
-16 0 -37 -20 -37 -35 0 -5 7 -2 14 8 13 16 15 16 40 -4 27 -21 28 -30 11 -71
-5 -13 0 -21 19 -29 36 -17 33 -32 -19 -80 l-46 -42 7 -73 c6 -64 4 -77 -15
-109 -11 -20 -21 -53 -21 -74 0 -26 -9 -49 -30 -77 -18 -24 -32 -57 -36 -86
l-6 -47 -82 -32 c-44 -18 -85 -35 -89 -39 -4 -4 2 -24 14 -45 27 -46 29 -110
4 -152 -15 -25 -16 -36 -7 -60 20 -54 22 -83 7 -125 -9 -27 -11 -44 -4 -46 52
-19 115 -123 139 -234 11 -50 11 -63 -4 -102 -9 -24 -31 -58 -47 -76 -17 -17
-28 -35 -24 -38 3 -4 90 -7 193 -7 l187 0 147 42 c81 24 155 43 165 43 48 0
96 25 164 85 96 85 153 100 214 59 12 -9 48 -14 96 -14 88 0 82 4 226 -131 74
-69 89 -79 140 -89 113 -24 256 -91 493 -234 85 -51 157 -92 159 -90 2 2 -2
17 -8 35 -18 51 -13 110 15 180 14 35 33 105 44 154 20 96 55 229 64 244 4 5
25 12 49 16 23 4 45 9 49 12 4 2 -18 39 -50 81 -31 42 -72 110 -90 150 -30 64
-33 79 -29 140 2 37 10 95 17 130 13 59 12 68 -8 130 -24 77 -62 250 -62 285
0 13 20 55 44 92 l44 69 -20 27 c-19 26 -19 29 -4 82 20 70 20 110 0 149 -19
37 -33 252 -34 518 0 206 9 281 42 348 l22 46 -33 91 c-18 49 -41 117 -50 149
-10 33 -22 61 -28 63 -5 2 -19 -4 -31 -14z"/>
</g>
</svg>
