<?xml version="1.0" standalone="no"?>
<!DOCTYPE svg PUBLIC "-//W3C//DTD SVG 20010904//EN"
 "http://www.w3.org/TR/2001/REC-SVG-20010904/DTD/svg10.dtd">
<svg version="1.0" xmlns="http://www.w3.org/2000/svg"
 width="397.000000pt" height="771.000000pt" viewBox="0 0 397.000000 771.000000"
 preserveAspectRatio="xMidYMid meet">
<metadata>
Created by potrace 1.15, written by Peter Selinger 2001-2017
</metadata>
<g transform="translate(0.000000,771.000000) scale(0.100000,-0.100000)"
fill="#000000" stroke="none">
<path d="M3109 7686 c-83 -29 -169 -132 -219 -261 -61 -157 -109 -221 -173
-232 -31 -5 -40 -1 -66 24 -16 17 -33 46 -36 66 -6 29 -12 37 -29 37 -13 0
-33 -12 -47 -26 -23 -24 -24 -32 -21 -126 3 -131 -6 -148 -82 -148 -67 0 -86
-7 -86 -30 0 -10 -8 -32 -17 -49 -28 -48 -59 -42 -120 24 -44 46 -58 55 -87
55 -29 0 -38 -5 -50 -28 -8 -16 -39 -49 -68 -74 -29 -25 -61 -61 -70 -79 -25
-51 -60 -215 -53 -252 5 -27 0 -42 -28 -83 -19 -27 -44 -69 -56 -92 -12 -23
-27 -42 -34 -42 -7 0 -22 -9 -34 -19 -11 -10 -45 -31 -76 -46 -31 -14 -60 -31
-63 -37 -19 -31 51 -138 91 -138 7 0 15 -9 18 -20 4 -17 -2 -24 -34 -36 -21
-9 -39 -20 -39 -24 0 -4 -14 -13 -31 -21 -57 -23 -103 -79 -123 -147 -21 -76
-25 -77 -183 -69 -63 4 -135 4 -159 0 l-44 -6 0 -63 c0 -92 -3 -94 -168 -94
-151 0 -194 -8 -224 -42 -15 -17 -18 -31 -13 -58 9 -47 9 -47 59 -54 49 -8 77
-32 103 -91 13 -31 18 -79 23 -222 6 -224 6 -224 133 -268 48 -16 95 -37 105
-45 9 -9 40 -31 67 -50 90 -61 125 -110 125 -174 0 -25 9 -45 29 -68 15 -18
36 -49 46 -68 10 -19 26 -46 36 -59 11 -13 19 -39 19 -57 0 -52 16 -81 81
-153 l61 -66 -5 -60 c-5 -74 -32 -128 -97 -200 -30 -33 -50 -65 -50 -79 0 -32
-46 -114 -100 -176 -24 -29 -52 -70 -63 -93 -10 -23 -35 -64 -57 -92 -55 -71
-60 -91 -53 -198 6 -91 5 -94 -21 -121 -14 -16 -26 -26 -26 -22 0 3 -11 -1
-25 -10 -15 -10 -32 -13 -42 -9 -25 11 -113 13 -113 3 0 -5 9 -34 19 -66 37
-111 51 -181 51 -262 l0 -82 38 6 c79 15 109 27 140 57 18 17 32 37 32 43 0 7
9 22 20 34 17 18 24 20 39 10 11 -6 22 -28 25 -48 9 -58 80 -110 149 -110 30
0 56 10 103 40 18 11 27 10 66 -8 24 -12 49 -22 56 -22 16 0 24 -17 18 -38 -5
-15 -16 -18 -63 -17 -83 2 -98 -3 -101 -32 -1 -14 11 -51 28 -82 54 -103 59
-141 19 -141 -10 0 -32 -15 -48 -32 -45 -48 -42 -89 9 -141 54 -53 49 -70 -20
-79 -78 -11 -98 -25 -111 -72 -18 -72 -20 -75 -37 -75 -9 -1 -61 -3 -114 -7
-79 -5 -114 -2 -186 15 -93 22 -146 26 -202 15 -31 -7 -32 -9 -27 -45 8 -64
45 -124 119 -200 65 -67 69 -74 63 -105 -7 -37 19 -109 48 -133 35 -29 16 -60
-63 -104 l-32 -17 7 -120 c5 -74 4 -120 -2 -120 -15 0 -51 -71 -63 -124 -14
-64 -58 -126 -89 -126 -18 0 -21 -3 -12 -13 18 -22 68 -9 75 19 12 45 107 43
114 -2 2 -17 12 -23 48 -28 24 -3 64 -15 89 -26 24 -11 46 -20 49 -20 11 0
126 -73 141 -91 10 -10 29 -19 42 -19 17 0 23 -6 23 -21 0 -11 18 -46 40 -79
43 -64 88 -184 97 -261 3 -30 11 -49 18 -49 22 0 27 -31 7 -37 -15 -3 -21 -20
-29 -76 -6 -40 -14 -82 -18 -94 -7 -21 -4 -23 36 -23 41 0 47 -4 84 -50 22
-27 43 -49 48 -50 4 0 15 9 25 19 70 76 88 92 108 97 13 3 32 -1 46 -10 34
-24 63 -20 96 14 17 17 40 30 51 30 13 0 31 15 47 40 15 22 33 40 41 40 8 0
33 -15 54 -34 34 -29 50 -34 110 -40 56 -6 72 -11 76 -25 6 -23 57 -41 116
-41 41 0 53 5 90 39 67 61 102 76 182 75 51 -1 82 -7 113 -23 52 -26 85 -20
202 39 42 21 119 55 170 75 l93 37 178 -8 c151 -6 187 -4 249 11 52 13 95 16
156 12 l84 -5 0 3602 0 3601 -39 22 c-55 31 -107 42 -251 52 -80 6 -169 20
-249 40 -135 34 -239 40 -302 17z m748 -2323 c-4 -500 -7 -1069 -7 -1266 l0
-359 -79 4 -80 3 -7 -49 c-6 -45 -76 -203 -96 -217 -5 -3 -15 -24 -23 -45 -11
-32 -18 -40 -42 -42 -18 -2 -42 -17 -63 -38 -22 -23 -39 -34 -52 -31 -11 3
-18 0 -18 -9 0 -14 -52 -40 -92 -46 -13 -2 -25 -6 -28 -9 -10 -12 -109 -26
-124 -17 -11 6 -16 5 -16 -5 0 -8 -6 -20 -14 -26 -12 -10 -17 -8 -25 7 -8 14
-25 22 -58 25 -93 10 -218 50 -256 83 -46 39 -73 52 -102 47 -26 -6 -28 -4
-22 23 4 22 -3 43 -29 85 -19 31 -34 62 -34 68 0 6 -4 11 -9 11 -13 0 -59 131
-67 192 -4 29 -14 59 -23 66 -15 11 -15 13 1 25 12 9 17 32 19 78 l3 64 -182
245 c-100 135 -191 255 -201 267 -11 13 -21 27 -23 32 -1 5 -15 24 -30 43 -38
47 -214 285 -244 331 -14 21 -31 40 -39 44 -8 3 -15 11 -15 19 0 8 -4 14 -10
14 -5 0 -10 4 -10 9 0 20 -173 237 -205 259 -28 18 -75 85 -75 106 0 10 67 26
114 26 50 0 127 27 140 49 4 6 20 11 36 11 15 0 35 3 44 6 9 3 64 74 123 158
58 83 128 180 153 216 26 36 73 103 105 150 32 47 92 133 132 193 l74 107 731
0 731 0 -6 -907z"/>
<path d="M619 1031 c-30 -19 -64 -51 -53 -51 5 0 3 -5 -4 -12 -7 -7 -12 -20
-12 -29 0 -26 -100 -57 -134 -41 -14 6 -47 14 -75 18 -59 8 -89 -8 -141 -72
-19 -23 -42 -43 -51 -43 -9 -1 -19 -7 -22 -13 -2 -7 -26 -19 -53 -27 -69 -19
-68 -18 -33 -62 24 -30 43 -43 87 -55 101 -29 104 -43 28 -123 -30 -31 -60
-69 -65 -85 -10 -25 -8 -31 22 -61 35 -35 89 -55 147 -55 52 1 66 17 73 86 9
83 38 158 98 250 29 45 49 85 47 98 -2 17 2 21 21 20 14 -1 57 20 97 46 40 26
93 52 118 59 49 12 53 30 12 49 -13 5 -31 27 -41 49 -32 69 -36 72 -66 54z"/>
</g>
</svg>
