<?xml version="1.0" standalone="no"?>
<!DOCTYPE svg PUBLIC "-//W3C//DTD SVG 20010904//EN"
 "http://www.w3.org/TR/2001/REC-SVG-20010904/DTD/svg10.dtd">
<svg version="1.0" xmlns="http://www.w3.org/2000/svg"
 width="303.000000pt" height="188.000000pt" viewBox="0 0 303.000000 188.000000"
 preserveAspectRatio="xMidYMid meet">
<metadata>
Created by potrace 1.15, written by Peter Selinger 2001-2017
</metadata>
<g transform="translate(0.000000,188.000000) scale(0.100000,-0.100000)"
fill="#000000" stroke="none">
<path d="M994 1853 c-27 -8 -110 -18 -184 -23 -99 -5 -151 -13 -195 -29 -99
-37 -163 -51 -228 -51 l-62 0 -19 -67 c-23 -81 -83 -201 -124 -247 -22 -25
-31 -47 -36 -90 -9 -79 -61 -214 -95 -251 -43 -44 -44 -86 -4 -127 68 -71 82
-172 37 -268 -18 -37 -27 -74 -28 -115 -1 -33 -8 -85 -14 -116 -11 -50 -10
-60 9 -104 15 -35 20 -60 16 -93 -4 -33 -1 -47 12 -58 105 -86 138 -108 202
-137 41 -19 80 -41 87 -50 12 -14 20 -11 73 30 47 37 68 47 109 51 48 4 144
-16 180 -39 33 -20 42 -20 92 5 59 29 118 33 162 11 15 -8 41 -15 57 -15 16 0
59 -5 96 -11 66 -12 72 -11 186 24 94 29 127 44 162 74 23 21 91 65 150 98 62
34 138 87 178 124 l70 63 54 -55 c50 -51 131 -100 231 -138 12 -5 27 -20 33
-33 17 -37 46 -39 114 -6 55 26 77 30 260 44 198 14 200 14 222 -6 24 -23 56
-19 127 13 22 10 51 19 63 19 38 0 37 34 -1 92 -20 29 -36 61 -36 71 0 31 -34
70 -107 121 -86 61 -113 95 -130 160 -15 56 -12 75 23 188 26 85 30 180 15
320 -1 4 -10 12 -21 18 -16 9 -34 6 -85 -14 -93 -38 -121 -35 -164 16 -141
165 -225 200 -408 172 -54 -8 -125 -19 -158 -24 -153 -24 -283 -4 -328 50 -51
60 -54 104 -21 346 l6 41 -214 -5 c-193 -4 -218 -2 -264 15 -46 18 -55 19
-100 6z"/>
</g>
</svg>
