<?xml version="1.0" standalone="no"?>
<!DOCTYPE svg PUBLIC "-//W3C//DTD SVG 20010904//EN"
 "http://www.w3.org/TR/2001/REC-SVG-20010904/DTD/svg10.dtd">
<svg version="1.0" xmlns="http://www.w3.org/2000/svg"
 width="268.000000pt" height="306.000000pt" viewBox="0 0 268.000000 306.000000"
 preserveAspectRatio="xMidYMid meet">
<metadata>
Created by potrace 1.15, written by Peter Selinger 2001-2017
</metadata>
<g transform="translate(0.000000,306.000000) scale(0.100000,-0.100000)"
fill="#000000" stroke="none">
<path d="M2065 3020 c-41 -20 -89 -34 -145 -41 -135 -17 -128 -14 -140 -62
-25 -96 -35 -114 -96 -174 -42 -42 -67 -75 -75 -102 -7 -23 -16 -41 -21 -41
-5 0 -6 -5 -3 -11 12 -19 -26 -97 -63 -130 -65 -58 -267 -138 -496 -198 -108
-28 -198 -19 -318 33 -14 6 -18 0 -23 -31 -13 -74 -35 -140 -53 -156 -12 -11
-33 -16 -69 -14 l-50 2 -92 -87 c-95 -90 -186 -159 -246 -184 -19 -8 -62 -14
-95 -14 -74 0 -75 -5 -20 -105 22 -40 40 -78 40 -84 0 -6 -12 -16 -26 -21 -31
-12 -30 -22 23 -155 35 -87 35 -91 22 -135 -22 -72 -17 -128 14 -188 32 -61
27 -76 -27 -86 -81 -15 -83 -60 -11 -253 25 -68 45 -129 45 -137 0 -7 -11 -38
-25 -67 -35 -77 -48 -209 -39 -406 4 -90 9 -163 11 -163 2 0 21 18 42 40 21
22 46 40 57 40 10 0 48 -18 84 -40 36 -22 73 -40 82 -40 35 0 129 43 186 84
32 24 100 93 150 154 123 149 171 173 272 137 73 -26 94 -21 159 39 100 92
164 97 321 26 52 -23 112 -45 133 -48 94 -12 274 130 382 303 97 155 167 239
246 294 91 64 161 90 274 102 49 5 100 12 112 14 32 7 52 43 64 115 12 76 3
107 -50 179 -46 62 -66 132 -56 199 4 26 27 97 52 157 66 160 66 162 42 210
-23 43 -53 81 -189 240 -205 238 -290 370 -290 447 0 53 14 82 63 136 60 64
71 86 56 115 -33 62 -113 138 -146 137 -4 -1 -35 -14 -68 -30z"/>
</g>
</svg>
