<?xml version="1.0" standalone="no"?>
<!DOCTYPE svg PUBLIC "-//W3C//DTD SVG 20010904//EN"
 "http://www.w3.org/TR/2001/REC-SVG-20010904/DTD/svg10.dtd">
<svg version="1.0" xmlns="http://www.w3.org/2000/svg"
 width="342.000000pt" height="322.000000pt" viewBox="0 0 342.000000 322.000000"
 preserveAspectRatio="xMidYMid meet">
<metadata>
Created by potrace 1.15, written by Peter Selinger 2001-2017
</metadata>
<g transform="translate(0.000000,322.000000) scale(0.100000,-0.100000)"
fill="#000000" stroke="none">
<path d="M1864 3199 c-83 -31 -128 -78 -165 -169 -28 -68 -44 -91 -110 -155
-44 -43 -91 -80 -109 -85 -33 -9 -33 -9 -44 42 -8 37 -49 48 -182 48 -113 0
-113 0 -145 -31 -30 -29 -31 -34 -27 -94 2 -35 0 -61 -4 -59 -4 3 -8 1 -8 -4
0 -4 -57 -36 -128 -70 -121 -58 -132 -66 -217 -154 -50 -52 -131 -143 -181
-203 -90 -109 -119 -137 -224 -218 -54 -42 -81 -79 -257 -354 l-63 -97 50 -70
c115 -163 153 -250 171 -393 10 -77 8 -91 -22 -220 -18 -76 -34 -152 -37 -170
l-4 -31 42 10 c43 11 150 -4 150 -22 0 -8 33 -22 96 -39 93 -25 149 -135 114
-227 -8 -21 -7 -35 7 -63 l18 -36 75 -1 c43 0 96 -8 123 -17 l49 -17 34 30
c19 16 40 30 47 31 7 0 37 3 67 6 107 10 129 8 159 -15 21 -15 45 -22 78 -22
44 0 102 -21 146 -52 12 -9 20 -10 25 -2 12 18 127 100 161 114 30 12 34 11
79 -27 25 -22 57 -61 70 -86 21 -43 26 -47 58 -47 19 0 51 -7 71 -15 28 -12
44 -13 75 -4 48 13 103 5 146 -21 37 -23 50 -71 35 -135 l-10 -43 59 -6 c45
-4 67 -2 91 11 18 9 81 23 141 32 l110 16 18 60 c17 59 17 60 -4 82 -12 12
-25 42 -29 65 -5 24 -14 67 -21 96 -15 64 -3 93 52 130 19 13 43 39 52 59 10
20 24 43 32 52 7 9 21 41 31 71 56 173 117 221 244 190 46 -11 53 -10 76 8 15
12 42 26 61 32 28 10 34 16 34 40 0 16 8 35 18 42 10 7 29 33 43 58 27 49 56
73 223 179 64 41 116 78 116 83 0 4 -14 8 -30 8 -35 0 -96 23 -122 47 -17 15
-21 14 -51 -15 -18 -18 -39 -32 -46 -32 -8 0 -31 -16 -52 -35 -43 -39 -63 -42
-115 -20 -33 14 -38 13 -63 -4 -15 -11 -33 -30 -40 -44 -13 -25 -37 -40 -77
-52 -17 -4 -31 5 -66 44 -54 62 -101 74 -142 36 -14 -13 -26 -29 -26 -36 0 -7
-11 -26 -24 -44 -17 -21 -22 -39 -19 -58 4 -22 2 -27 -16 -27 -13 0 -21 6 -21
17 0 12 -9 7 -29 -18 -30 -36 -135 -99 -165 -99 -9 0 -16 -4 -16 -8 0 -10 -69
-29 -134 -38 -36 -5 -50 -12 -53 -25 -7 -24 -17 -24 -40 0 -17 17 -38 22 -150
38 -24 3 -43 9 -43 14 0 4 -13 10 -30 14 -16 4 -30 11 -30 16 0 5 -7 9 -15 9
-8 0 -15 5 -15 10 0 6 -9 10 -19 10 -11 0 -26 7 -35 15 -8 8 -19 15 -25 15 -6
0 -11 10 -11 22 0 17 -3 19 -12 10 -22 -22 -48 -14 -48 14 0 15 -15 47 -33 73
-46 66 -80 140 -79 173 0 17 -5 28 -13 28 -8 0 -15 19 -19 53 l-7 52 -60 -3
c-51 -3 -70 1 -123 26 -77 37 -106 71 -106 125 0 44 23 87 70 130 35 33 33 42
-12 51 -21 4 -49 24 -81 58 -77 83 -77 82 -5 128 35 22 77 42 93 46 20 3 39
18 55 41 53 77 127 101 233 77 82 -20 103 -13 127 40 23 47 84 90 133 91 25 1
32 -6 58 -58 16 -32 36 -60 43 -63 40 -15 106 58 106 119 0 13 15 48 33 78 31
52 32 56 25 129 -5 41 -5 95 -2 118 5 39 11 47 54 74 l49 31 -18 26 c-24 34
-41 87 -41 124 0 24 -14 45 -64 96 -72 75 -98 121 -116 204 -7 31 -16 57 -19
56 -3 0 -29 -9 -57 -20z"/>
</g>
</svg>
