<?xml version="1.0" standalone="no"?>
<!DOCTYPE svg PUBLIC "-//W3C//DTD SVG 20010904//EN"
 "http://www.w3.org/TR/2001/REC-SVG-20010904/DTD/svg10.dtd">
<svg version="1.0" xmlns="http://www.w3.org/2000/svg"
 width="129.000000pt" height="130.000000pt" viewBox="0 0 129.000000 130.000000"
 preserveAspectRatio="xMidYMid meet">
<metadata>
Created by potrace 1.15, written by Peter Selinger 2001-2017
</metadata>
<g transform="translate(0.000000,130.000000) scale(0.100000,-0.100000)"
fill="#000000" stroke="none">
<path d="M616 1274 c-3 -8 -10 -12 -16 -9 -5 3 -10 -3 -10 -14 0 -17 -6 -21
-33 -21 -18 0 -38 5 -43 10 -14 14 -41 3 -47 -19 -3 -11 -18 -21 -40 -25 -19
-4 -69 -28 -109 -55 -42 -27 -85 -48 -99 -47 -19 1 -23 -3 -21 -21 2 -14 -13
-47 -39 -84 -62 -92 -97 -177 -105 -255 -5 -51 -12 -73 -26 -83 -19 -13 -19
-13 0 -35 11 -11 23 -43 27 -71 12 -83 49 -169 112 -259 24 -34 33 -56 30 -73
-4 -23 -2 -25 25 -21 19 3 32 0 35 -9 3 -7 9 -13 15 -13 5 0 16 -7 24 -15 9
-8 24 -15 35 -15 10 0 19 -4 19 -10 0 -5 7 -10 15 -10 8 0 15 -4 15 -9 0 -5
14 -12 30 -16 17 -4 30 -10 30 -14 0 -5 19 -11 43 -14 23 -4 64 -9 91 -13 35
-5 50 -12 53 -25 7 -24 28 -24 52 0 11 11 37 23 58 26 61 10 123 29 123 37 0
4 9 8 19 8 28 0 136 65 162 98 14 17 23 22 26 15 3 -7 14 -13 25 -13 17 0 19
5 15 27 -3 19 2 37 19 58 13 18 24 36 24 41 0 5 11 21 25 36 27 29 42 76 58
185 8 55 15 73 29 76 24 7 23 28 -2 34 -14 4 -20 14 -20 33 0 75 -82 284 -125
320 -8 7 -15 23 -15 36 0 18 -6 24 -20 24 -12 0 -33 11 -48 25 -59 56 -231
135 -292 135 -17 0 -30 5 -30 10 0 37 -81 67 -94 34z"/>
</g>
</svg>
