<?xml version="1.0" standalone="no"?>
<!DOCTYPE svg PUBLIC "-//W3C//DTD SVG 20010904//EN"
 "http://www.w3.org/TR/2001/REC-SVG-20010904/DTD/svg10.dtd">
<svg version="1.0" xmlns="http://www.w3.org/2000/svg"
 width="291.000000pt" height="1039.000000pt" viewBox="0 0 291.000000 1039.000000"
 preserveAspectRatio="xMidYMid meet">
<metadata>
Created by potrace 1.15, written by Peter Selinger 2001-2017
</metadata>
<g transform="translate(0.000000,1039.000000) scale(0.100000,-0.100000)"
fill="#000000" stroke="none">
<path d="M421 10359 c-52 -11 -159 -38 -238 -60 -79 -21 -150 -39 -158 -39
-13 0 -15 -555 -15 -4979 l0 -4979 22 -6 c67 -17 260 -1 438 38 36 8 157 35
270 59 354 78 525 84 654 23 71 -34 104 -68 161 -166 81 -140 124 -198 161
-218 18 -9 24 -7 42 17 11 16 40 70 65 122 46 98 84 144 153 185 124 73 262
18 342 -137 l17 -34 3 39 c3 28 -3 48 -22 75 -14 20 -26 45 -26 54 0 18 56 50
135 77 49 16 50 18 53 60 2 32 12 54 38 83 25 30 34 50 34 77 0 20 9 54 20 75
17 33 20 51 14 106 -6 63 -5 67 25 101 27 32 29 37 16 54 -17 23 -19 56 -3 72
8 8 8 15 -1 25 -14 18 -4 92 15 108 8 6 14 23 14 38 1 37 28 66 76 79 34 10
43 17 47 41 7 33 0 67 -21 99 -14 22 -13 26 30 70 45 46 74 90 65 98 -2 2 -30
-5 -63 -15 -64 -22 -98 -53 -168 -156 -40 -59 -113 -115 -151 -115 -53 0 -123
32 -188 86 -84 68 -122 85 -196 85 -71 1 -115 -11 -256 -66 -68 -27 -167 -55
-260 -74 -291 -59 -348 -65 -560 -65 -219 -1 -263 7 -375 65 -53 27 -140 101
-140 119 0 4 -3 10 -8 12 -14 6 -82 242 -96 333 -43 276 -15 483 82 612 20 28
75 101 123 164 170 228 251 364 298 506 27 83 65 166 120 261 l19 34 -81 106
c-98 130 -136 209 -175 368 -20 83 -49 163 -94 260 -101 215 -139 347 -153
529 -6 84 14 319 40 460 32 171 55 430 55 615 0 185 6 254 54 620 77 583 86
681 80 935 -2 116 -13 287 -23 380 -25 227 -23 461 4 565 21 77 34 96 139 190
45 40 76 103 112 226 46 157 93 223 193 266 103 44 168 4 252 -156 31 -59 63
-114 71 -122 14 -14 158 -57 165 -50 2 2 -10 28 -27 59 -16 30 -30 62 -30 71
0 33 59 133 92 155 19 13 39 33 45 45 46 90 72 149 87 199 15 47 24 60 50 71
48 21 95 65 115 110 10 23 37 59 60 81 22 21 41 45 41 51 0 7 3 14 8 16 10 4
52 92 52 110 0 20 59 68 82 68 33 0 88 -52 88 -82 0 -21 10 -34 40 -54 22 -15
40 -35 40 -45 0 -13 9 -19 33 -21 22 -2 35 -10 42 -25 5 -13 14 -23 18 -23 13
0 77 31 77 37 0 3 -15 27 -34 52 -54 76 -97 177 -118 280 -11 53 -25 107 -31
121 -16 32 -47 37 -213 29 -142 -7 -191 -21 -261 -78 -74 -59 -184 -76 -273
-42 -62 24 -120 65 -290 211 -295 251 -423 335 -575 376 -73 20 -251 16 -364
-7z"/>
</g>
</svg>
