<?xml version="1.0" standalone="no"?>
<!DOCTYPE svg PUBLIC "-//W3C//DTD SVG 20010904//EN"
 "http://www.w3.org/TR/2001/REC-SVG-20010904/DTD/svg10.dtd">
<svg version="1.0" xmlns="http://www.w3.org/2000/svg"
 width="457.000000pt" height="177.000000pt" viewBox="0 0 457.000000 177.000000"
 preserveAspectRatio="xMidYMid meet">
<metadata>
Created by potrace 1.15, written by Peter Selinger 2001-2017
</metadata>
<g transform="translate(0.000000,177.000000) scale(0.100000,-0.100000)"
fill="#000000" stroke="none">
<path d="M3115 1740 c-44 -18 -83 -50 -153 -126 -11 -12 -23 -36 -27 -53 -8
-35 -48 -65 -151 -112 -36 -16 -68 -39 -79 -56 -10 -15 -28 -36 -39 -46 -20
-17 -21 -17 -27 0 -4 10 -6 60 -4 111 4 81 2 92 -13 93 -14 0 -13 2 3 9 12 4
26 14 33 23 21 24 -7 27 -166 17 -207 -13 -637 -13 -830 2 -129 9 -165 9 -174
0 -9 -9 -10 -15 -2 -20 15 -9 30 -182 16 -182 -6 0 -8 -10 -5 -21 6 -21 4 -21
-40 -15 -26 4 -47 3 -47 -2 0 -4 -16 -27 -36 -50 -31 -37 -47 -45 -136 -73
-67 -20 -111 -29 -132 -25 -17 3 -60 10 -96 15 -135 18 -186 41 -182 82 0 3
-19 11 -44 18 -24 7 -44 17 -44 21 0 5 -9 6 -20 3 -25 -7 -59 22 -54 45 8 35
-11 47 -54 34 -57 -17 -122 -15 -203 8 -104 28 -229 44 -243 30 -7 -7 -11 -69
-12 -175 -1 -157 -2 -165 -27 -208 -24 -40 -92 -97 -117 -97 -29 0 4 -22 144
-98 147 -79 159 -84 241 -92 79 -8 90 -12 125 -44 28 -25 52 -37 87 -42 54 -8
253 10 282 26 69 36 384 -31 453 -97 25 -24 36 -26 141 -31 123 -5 350 10 517
35 178 26 214 27 230 8 11 -13 11 -23 2 -49 -13 -35 -15 -88 -6 -123 10 -35
69 -46 217 -40 114 4 150 -1 115 -17 -7 -3 -4 -5 7 -4 11 1 46 -11 78 -26 57
-28 61 -29 131 -18 74 11 93 18 156 53 42 23 107 25 138 3 18 -12 26 -13 37
-4 8 7 15 18 15 26 0 7 5 25 12 39 11 24 13 25 19 8 4 -10 8 10 8 47 0 43 -3
58 -8 45 -8 -19 -9 -18 -22 8 -11 25 -10 33 6 64 27 50 140 151 203 181 53 25
73 48 78 89 1 12 16 42 33 67 17 24 31 50 31 56 0 6 8 13 18 17 40 15 152 107
152 125 0 35 30 77 84 118 56 40 74 60 58 60 -5 0 -17 -10 -28 -21 -22 -25
-90 -58 -118 -59 -10 0 -40 10 -66 22 l-48 22 -1 88 c-1 48 -4 96 -7 105 -16
47 -44 100 -62 116 -12 11 -18 25 -15 35 4 10 2 13 -5 8 -6 -4 -20 2 -32 14
-11 11 -20 18 -20 16 0 -2 -23 4 -50 15 -65 25 -159 24 -225 -1z"/>
</g>
</svg>
