<?xml version="1.0" standalone="no"?>
<!DOCTYPE svg PUBLIC "-//W3C//DTD SVG 20010904//EN"
 "http://www.w3.org/TR/2001/REC-SVG-20010904/DTD/svg10.dtd">
<svg version="1.0" xmlns="http://www.w3.org/2000/svg"
 width="128.000000pt" height="131.000000pt" viewBox="0 0 128.000000 131.000000"
 preserveAspectRatio="xMidYMid meet">
<metadata>
Created by potrace 1.15, written by Peter Selinger 2001-2017
</metadata>
<g transform="translate(0.000000,131.000000) scale(0.100000,-0.100000)"
fill="#000000" stroke="none">
<path d="M602 1284 c-12 -8 -22 -21 -22 -27 0 -11 -124 -47 -160 -47 -7 0 -22
-8 -32 -17 -17 -15 -20 -15 -28 -3 -8 13 -10 12 -10 -2 0 -10 -10 -23 -22 -29
-13 -7 -41 -26 -63 -43 -21 -17 -44 -31 -49 -31 -6 0 -15 -9 -21 -20 -5 -12
-27 -46 -47 -76 -20 -30 -44 -72 -54 -92 -10 -20 -20 -37 -24 -37 -3 0 -7 -8
-8 -17 -8 -83 -27 -169 -39 -176 -17 -10 -17 -34 0 -44 7 -4 18 -33 24 -63 24
-119 55 -195 117 -283 21 -30 32 -56 29 -68 -5 -16 0 -19 29 -19 20 0 44 -8
58 -20 12 -11 30 -22 40 -25 10 -3 21 -12 24 -20 3 -8 15 -15 27 -15 11 0 34
-9 50 -21 16 -11 29 -18 29 -16 0 3 26 -1 58 -9 31 -7 69 -13 83 -14 16 0 33
-9 42 -23 l16 -22 7 22 c5 19 16 24 68 30 33 4 67 7 74 6 6 0 12 3 12 7 0 4
19 12 43 19 23 7 61 26 85 42 23 17 42 27 42 23 0 -4 13 7 30 26 27 30 32 32
55 22 23 -11 25 -9 31 16 8 39 25 82 38 95 16 18 63 116 77 162 6 22 15 48 20
57 5 10 9 34 9 53 0 22 6 38 15 41 21 8 19 31 -4 39 -14 4 -20 19 -25 73 -3
37 -12 83 -19 102 -16 46 -65 139 -88 169 -11 13 -19 34 -19 47 0 19 -5 24
-26 24 -15 0 -38 12 -55 29 -35 35 -167 101 -202 101 -14 0 -27 5 -29 11 -2 5
-22 13 -46 16 -27 4 -42 11 -42 20 0 8 -4 12 -9 9 -5 -3 -11 3 -14 14 -6 24
-43 27 -75 4z"/>
</g>
</svg>
