<?xml version="1.0" standalone="no"?>
<!DOCTYPE svg PUBLIC "-//W3C//DTD SVG 20010904//EN"
 "http://www.w3.org/TR/2001/REC-SVG-20010904/DTD/svg10.dtd">
<svg version="1.0" xmlns="http://www.w3.org/2000/svg"
 width="182.000000pt" height="157.000000pt" viewBox="0 0 182.000000 157.000000"
 preserveAspectRatio="xMidYMid meet">
<metadata>
Created by potrace 1.15, written by Peter Selinger 2001-2017
</metadata>
<g transform="translate(0.000000,157.000000) scale(0.100000,-0.100000)"
fill="#000000" stroke="none">
<path d="M1126 1544 c-9 -8 -18 -27 -22 -42 -9 -46 -20 -57 -65 -65 -24 -5
-266 -6 -536 -4 l-493 5 0 -709 0 -709 363 0 c199 -1 425 -3 502 -7 l141 -5
174 233 c96 129 195 257 220 284 26 28 57 66 70 85 43 64 101 110 138 110 18
0 41 7 49 16 13 12 28 14 69 9 l52 -6 5 38 c3 21 9 50 12 66 10 38 -11 84 -41
91 -32 8 -133 89 -156 124 -10 15 -18 36 -18 48 0 11 -11 35 -25 54 -14 19
-25 39 -25 46 0 8 -14 8 -57 -2 -99 -23 -108 -21 -148 40 -30 44 -36 61 -34
98 2 43 -1 50 -58 114 -33 38 -63 77 -66 87 -8 21 -31 22 -51 1z"/>
</g>
</svg>
