<?xml version="1.0" standalone="no"?>
<!DOCTYPE svg PUBLIC "-//W3C//DTD SVG 20010904//EN"
 "http://www.w3.org/TR/2001/REC-SVG-20010904/DTD/svg10.dtd">
<svg version="1.0" xmlns="http://www.w3.org/2000/svg"
 width="309.000000pt" height="282.000000pt" viewBox="0 0 309.000000 282.000000"
 preserveAspectRatio="xMidYMid meet">
<metadata>
Created by potrace 1.15, written by Peter Selinger 2001-2017
</metadata>
<g transform="translate(0.000000,282.000000) scale(0.100000,-0.100000)"
fill="#000000" stroke="none">
<path d="M2213 2809 c-31 -9 -41 -19 -106 -109 -28 -38 -41 -47 -92 -61 -121
-32 -269 -124 -592 -369 -210 -159 -325 -224 -420 -235 -121 -15 -246 -45
-314 -76 -64 -30 -94 -56 -140 -121 -16 -22 -19 -22 -50 -9 -65 25 -72 24
-121 -18 -66 -59 -92 -116 -84 -189 4 -31 3 -84 -2 -118 -11 -83 0 -188 43
-381 19 -90 38 -196 41 -236 8 -87 2 -102 -87 -202 -94 -107 -199 -268 -199
-305 0 -27 -61 -295 -76 -335 -4 -10 0 -15 15 -15 12 0 36 -7 53 -16 40 -21
69 -14 182 41 91 45 94 46 192 46 128 0 316 -28 422 -62 32 -11 35 -10 90 49
74 78 109 89 240 73 51 -6 98 -9 103 -5 5 3 30 42 56 87 45 77 114 157 136
157 6 0 8 33 4 95 l-5 95 40 35 c23 19 60 42 83 51 l42 16 -13 36 c-7 20 -13
47 -14 58 0 33 69 89 129 105 31 8 53 19 56 30 6 19 80 89 94 89 4 0 11 46 14
103 l6 102 -40 77 c-21 42 -39 84 -39 92 0 24 58 62 166 109 54 25 120 55 146
67 l47 24 36 -20 c20 -10 43 -27 52 -36 9 -10 26 -18 38 -18 12 0 34 -10 49
-21 l27 -22 32 31 c103 98 227 105 305 17 22 -25 46 -45 53 -45 8 0 37 12 66
28 46 23 53 31 53 57 1 54 18 108 50 153 27 38 31 50 25 88 -4 31 6 93 40 235
l45 193 0 298 0 298 -422 -1 c-233 0 -437 -5 -455 -10z"/>
</g>
</svg>
