<?xml version="1.0" standalone="no"?>
<!DOCTYPE svg PUBLIC "-//W3C//DTD SVG 20010904//EN"
 "http://www.w3.org/TR/2001/REC-SVG-20010904/DTD/svg10.dtd">
<svg version="1.0" xmlns="http://www.w3.org/2000/svg"
 width="392.000000pt" height="179.000000pt" viewBox="0 0 392.000000 179.000000"
 preserveAspectRatio="xMidYMid meet">
<metadata>
Created by potrace 1.15, written by Peter Selinger 2001-2017
</metadata>
<g transform="translate(0.000000,179.000000) scale(0.100000,-0.100000)"
fill="#000000" stroke="none">
<path d="M3159 1776 c-3 -3 -14 -7 -25 -9 -42 -7 -93 -39 -96 -60 -2 -16 -24
-33 -73 -59 -87 -46 -129 -54 -184 -34 -41 14 -45 13 -99 -14 -78 -38 -210
-79 -299 -91 -59 -8 -85 -7 -135 6 -59 15 -65 15 -98 -2 -19 -10 -36 -21 -38
-25 -2 -5 -14 -8 -26 -8 -12 0 -26 -4 -31 -9 -6 -5 -25 -11 -44 -13 -25 -2
-36 2 -45 17 -6 11 -13 22 -16 25 -3 3 -10 16 -16 30 -11 24 -11 23 -26 -20
-9 -25 -20 -44 -26 -43 -6 2 -9 -4 -6 -12 5 -12 -3 -15 -35 -15 -32 0 -48 6
-65 25 -13 14 -26 25 -30 25 -3 0 -6 -11 -6 -25 0 -22 -4 -25 -32 -25 -59 1
-113 18 -199 66 -107 59 -125 75 -161 151 -17 34 -38 65 -48 68 -11 4 -41 -7
-73 -25 -59 -33 -115 -39 -157 -15 -39 22 -94 18 -190 -15 -94 -31 -269 -115
-309 -147 -13 -11 -21 -25 -17 -31 3 -6 44 -25 89 -42 l83 -31 -10 -55 -10
-54 -46 0 c-25 0 -137 -1 -250 -3 -278 -5 -331 -22 -384 -122 -26 -48 -19 -58
85 -117 126 -72 151 -108 107 -155 -12 -13 -19 -25 -16 -28 3 -3 60 -21 128
-41 68 -19 149 -48 181 -64 66 -34 201 -166 237 -233 13 -23 28 -47 35 -54 7
-7 60 -28 120 -47 148 -49 178 -67 255 -148 71 -75 161 -128 217 -128 17 0 53
-11 82 -24 58 -27 89 -71 78 -113 l-6 -25 98 4 c149 5 230 51 349 199 29 37
68 76 87 88 24 14 44 42 68 91 32 67 35 70 65 66 36 -5 54 17 47 55 -4 20 0
25 19 27 132 14 168 20 138 21 -57 2 -105 19 -131 47 -20 22 -24 37 -26 100
-2 45 1 74 8 74 5 0 19 21 30 47 11 26 38 64 60 84 l40 37 -68 37 c-49 28 -83
39 -123 42 -82 6 -85 9 -61 39 11 15 19 30 16 34 -3 4 5 34 16 66 11 33 26 76
32 97 9 29 16 37 35 37 13 0 44 10 70 22 39 18 76 24 221 32 l174 10 31 -37
c17 -20 46 -55 65 -77 l34 -41 26 25 c14 14 46 33 71 44 32 14 51 30 65 57 26
50 45 56 45 16 0 -17 5 -31 10 -31 6 0 10 -6 10 -14 0 -8 18 -30 41 -50 34
-29 52 -36 105 -42 69 -7 149 8 162 31 4 7 16 14 27 16 14 3 21 14 23 34 3 27
51 90 52 69 1 -5 7 5 14 21 17 39 73 94 113 111 18 8 59 14 90 14 73 0 95 15
132 88 16 31 43 70 60 86 50 48 42 58 -36 49 -99 -12 -177 -8 -224 11 -37 15
-51 15 -116 4 -70 -11 -77 -11 -112 9 -28 16 -56 21 -126 22 -50 1 -93 0 -96
-3z"/>
</g>
</svg>
