<?xml version="1.0" standalone="no"?>
<!DOCTYPE svg PUBLIC "-//W3C//DTD SVG 20010904//EN"
 "http://www.w3.org/TR/2001/REC-SVG-20010904/DTD/svg10.dtd">
<svg version="1.0" xmlns="http://www.w3.org/2000/svg"
 width="434.000000pt" height="245.000000pt" viewBox="0 0 434.000000 245.000000"
 preserveAspectRatio="xMidYMid meet">
<metadata>
Created by potrace 1.15, written by Peter Selinger 2001-2017
</metadata>
<g transform="translate(0.000000,245.000000) scale(0.100000,-0.100000)"
fill="#000000" stroke="none">
<path d="M3535 2427 c-11 -6 -43 -14 -70 -18 -34 -4 -76 -22 -129 -55 -93 -56
-137 -73 -188 -74 -36 0 -49 -12 -28 -25 17 -10 11 -55 -10 -85 -19 -27 -161
-115 -186 -115 -6 0 -18 -8 -28 -17 -20 -21 -149 -63 -240 -79 -60 -10 -69 -9
-99 9 l-34 19 -12 -33 c-7 -18 -26 -45 -43 -59 -29 -24 -37 -26 -92 -21 -101
11 -179 6 -216 -11 -46 -22 -120 -22 -155 1 -33 22 -64 89 -65 138 0 34 6 42
75 100 41 34 75 66 75 71 0 21 -111 -54 -173 -117 -67 -66 -70 -68 -108 -62
-21 3 -54 14 -73 22 -48 24 -77 12 -117 -46 -43 -62 -139 -146 -197 -172 -24
-11 -77 -23 -117 -27 -63 -6 -77 -11 -111 -40 -84 -74 -165 -79 -259 -17 -60
39 -67 41 -112 26 -38 -14 -73 -83 -73 -148 0 -45 -27 -107 -54 -124 -19 -13
-130 -9 -181 6 -26 8 -65 29 -86 46 -36 28 -43 30 -89 24 -46 -6 -50 -9 -44
-28 15 -45 24 -93 24 -128 0 -32 -5 -40 -47 -67 -56 -38 -124 -41 -192 -11
-66 31 -77 27 -52 -16 12 -20 50 -73 85 -118 84 -108 98 -137 97 -204 0 -45
-7 -66 -33 -106 -73 -115 -80 -136 -74 -206 11 -121 125 -403 202 -497 52 -64
78 -78 148 -79 34 0 120 -4 191 -8 88 -5 152 -4 200 4 140 24 160 24 282 -10
64 -18 131 -39 151 -47 66 -28 118 -20 232 33 l105 49 195 5 c146 4 204 10
230 21 46 21 267 188 347 263 54 50 63 63 63 93 0 71 113 309 212 445 152 211
194 249 305 274 38 9 138 37 223 62 121 35 174 46 243 48 148 6 194 27 258
120 36 53 94 88 174 105 67 14 108 43 100 70 -9 28 32 75 85 98 67 29 232 152
254 190 5 8 -6 3 -25 -13 -107 -87 -178 -135 -209 -141 -41 -8 -67 -30 -126
-106 -42 -55 -44 -56 -102 -62 -84 -7 -110 -23 -169 -102 -69 -91 -99 -104
-254 -104 -180 -1 -189 19 -61 132 92 81 157 126 272 187 85 45 89 51 75 96
-5 16 5 28 53 62 58 40 92 72 77 72 -14 0 -139 -98 -180 -140 -22 -23 -66 -55
-97 -72 -31 -16 -93 -63 -136 -102 -44 -40 -107 -87 -140 -104 -34 -18 -63
-41 -67 -50 -3 -10 -31 -46 -63 -80 -46 -49 -65 -62 -88 -62 -17 0 -34 4 -40
9 -5 4 -31 14 -59 21 -77 20 -102 36 -130 85 -52 89 -56 150 -10 175 14 7 25
19 25 26 0 36 112 92 224 113 41 7 76 24 126 58 64 45 69 51 70 85 0 60 16 85
72 117 76 43 76 43 84 75 7 30 7 30 -50 -17 -32 -26 -62 -47 -68 -47 -28 0
-95 -62 -117 -109 -29 -62 -68 -84 -132 -75 -39 5 -49 2 -89 -29 -25 -20 -79
-47 -120 -60 -41 -14 -100 -35 -130 -47 -64 -25 -174 -25 -191 1 -16 26 -9 57
19 78 48 37 53 42 59 71 9 48 36 66 160 105 138 44 322 133 351 169 10 14 25
40 31 58 7 18 16 40 20 48 5 8 85 51 178 95 94 44 181 87 194 96 28 20 23 33
-6 16z"/>
</g>
</svg>
