<?xml version="1.0" standalone="no"?>
<!DOCTYPE svg PUBLIC "-//W3C//DTD SVG 20010904//EN"
 "http://www.w3.org/TR/2001/REC-SVG-20010904/DTD/svg10.dtd">
<svg version="1.0" xmlns="http://www.w3.org/2000/svg"
 width="543.000000pt" height="436.000000pt" viewBox="0 0 543.000000 436.000000"
 preserveAspectRatio="xMidYMid meet">
<metadata>
Created by potrace 1.15, written by Peter Selinger 2001-2017
</metadata>
<g transform="translate(0.000000,436.000000) scale(0.100000,-0.100000)"
fill="#000000" stroke="none">
<path d="M4685 4317 c-59 -31 -62 -32 -240 -38 -99 -3 -198 -12 -220 -19 -25
-8 -62 -35 -102 -74 -78 -78 -103 -86 -303 -96 -129 -6 -168 -12 -235 -34
-104 -35 -169 -74 -262 -153 -102 -86 -134 -103 -303 -158 -175 -57 -200 -69
-276 -135 -32 -27 -99 -70 -149 -95 -140 -68 -239 -88 -371 -71 l-61 8 -139
-72 c-156 -80 -278 -134 -404 -178 -101 -35 -180 -73 -180 -85 0 -4 -4 -6 -8
-3 -12 7 -156 -110 -212 -171 -120 -132 -219 -263 -317 -423 -79 -128 -78
-127 -181 -336 -40 -82 -87 -170 -103 -196 -17 -26 -28 -52 -24 -58 3 -5 2
-10 -3 -10 -11 0 -41 -69 -71 -163 -22 -70 -61 -147 -113 -224 -15 -23 -28
-46 -28 -51 0 -6 -3 -12 -7 -14 -12 -5 -53 -66 -53 -78 0 -5 -4 -10 -10 -10
-5 0 -17 -15 -26 -32 -9 -18 -20 -35 -23 -38 -11 -9 -101 -128 -101 -134 0 -3
-13 -19 -30 -34 -16 -16 -30 -34 -30 -41 0 -6 -4 -11 -9 -11 -16 0 -52 -115
-68 -215 -25 -167 -1 -364 70 -575 48 -143 111 -198 275 -241 162 -42 406 -29
752 41 138 28 227 52 305 83 142 57 203 71 279 65 71 -6 130 -33 189 -87 56
-51 114 -81 158 -81 46 0 92 40 157 135 60 88 122 131 194 135 4 1 23 7 42 15
18 8 36 12 38 9 7 -7 38 90 38 118 0 13 -9 69 -21 123 -15 69 -19 115 -15 150
10 73 8 96 -10 123 -13 20 -22 23 -50 19 -19 -3 -53 -21 -77 -41 l-42 -35 -70
10 c-139 20 -160 21 -190 8 -16 -7 -32 -13 -35 -14 -22 -7 -80 -40 -80 -47 0
-4 -6 -8 -13 -8 -16 0 -47 -36 -47 -55 0 -18 -35 -41 -75 -49 -17 -4 -43 -17
-57 -31 -16 -14 -44 -26 -74 -30 -27 -4 -69 -16 -93 -26 -109 -47 -108 -7 3
94 46 42 91 93 101 113 16 35 16 39 -1 89 -17 51 -17 54 2 106 l19 54 70 18
c39 10 86 20 106 22 60 5 76 14 128 71 32 35 58 76 71 113 l22 58 70 12 c89
15 109 26 182 100 45 46 67 61 88 61 18 0 28 5 28 15 0 11 -11 15 -40 15 -50
0 -161 30 -154 42 3 5 2 8 -3 7 -35 -6 -67 5 -96 34 -37 35 -90 59 -113 50 -8
-3 -14 -2 -13 3 5 20 -28 90 -63 135 -15 20 -28 43 -28 51 0 8 -3 18 -7 21
-13 13 -43 112 -49 161 -4 34 -13 56 -27 67 l-20 17 20 6 c17 5 21 18 26 75 7
81 45 183 97 261 21 30 40 65 44 78 5 16 13 21 23 17 10 -3 24 3 36 16 52 56
186 120 278 133 35 5 48 12 52 26 8 31 50 45 87 30 23 -10 30 -18 27 -32 -4
-12 0 -18 12 -18 66 0 250 -76 301 -125 14 -14 40 -30 58 -36 23 -8 32 -17 32
-34 0 -12 6 -28 14 -34 12 -10 15 -3 21 41 4 29 10 57 14 63 3 5 13 30 21 55
14 42 17 45 48 42 18 -1 42 3 53 9 32 16 59 86 59 151 0 53 2 59 29 72 35 19
61 57 61 91 0 14 7 40 16 57 47 91 37 145 -40 227 -30 31 -59 66 -65 79 -6 12
-17 22 -24 22 -17 0 -77 65 -77 84 0 8 9 40 20 70 21 54 35 66 87 66 12 0 42
16 67 35 31 24 55 34 74 33 15 -2 49 3 75 11 45 13 50 13 76 -7 15 -11 47 -25
69 -31 23 -7 47 -18 55 -25 25 -26 80 -48 122 -49 35 -2 48 3 69 26 19 20 34
27 63 27 20 0 57 8 81 17 36 13 50 14 76 5 74 -27 157 -7 244 60 46 36 63 42
111 46 44 3 60 0 70 -12 7 -9 27 -16 43 -16 16 0 51 -11 78 -25 68 -35 120
-33 163 4 18 16 58 41 90 54 31 14 69 38 84 54 15 16 51 37 78 47 59 23 109
71 126 123 6 21 18 47 25 58 8 11 14 26 14 35 0 8 9 26 20 40 18 24 24 25 119
25 88 0 102 2 115 20 18 23 21 45 6 45 -5 0 -39 14 -75 31 -59 28 -72 30 -124
24 -52 -6 -72 -2 -194 39 -171 58 -224 60 -312 13z"/>
</g>
</svg>
