<?xml version="1.0" standalone="no"?>
<!DOCTYPE svg PUBLIC "-//W3C//DTD SVG 20010904//EN"
 "http://www.w3.org/TR/2001/REC-SVG-20010904/DTD/svg10.dtd">
<svg version="1.0" xmlns="http://www.w3.org/2000/svg"
 width="567.000000pt" height="385.000000pt" viewBox="0 0 567.000000 385.000000"
 preserveAspectRatio="xMidYMid meet">
<metadata>
Created by potrace 1.15, written by Peter Selinger 2001-2017
</metadata>
<g transform="translate(0.000000,385.000000) scale(0.100000,-0.100000)"
fill="#000000" stroke="none">
<path d="M5448 3822 c-26 -37 -75 -61 -160 -81 -76 -18 -98 -28 -159 -75 -67
-51 -74 -53 -132 -55 -38 -1 -82 -10 -114 -23 -48 -20 -59 -21 -150 -11 -106
11 -100 12 -194 -44 -60 -36 -108 -42 -199 -22 l-51 11 -32 -35 c-42 -46 -95
-77 -133 -77 -24 0 -36 -8 -55 -37 -27 -42 -91 -83 -129 -83 -46 0 -235 -47
-277 -69 -23 -11 -51 -33 -63 -48 -45 -58 -131 -140 -212 -203 -46 -36 -87
-68 -93 -73 -148 -117 -157 -120 -385 -125 l-195 -4 -85 -40 c-156 -74 -198
-77 -365 -21 -172 58 -189 60 -315 33 -38 -9 -111 -10 -236 -6 l-180 6 -32
-45 c-18 -25 -39 -48 -48 -52 -9 -3 -51 1 -93 11 -120 25 -156 22 -206 -19
-23 -19 -55 -40 -71 -47 -48 -21 -134 -88 -222 -172 l-84 -80 -116 -7 c-100
-5 -125 -10 -169 -32 -53 -27 -107 -35 -118 -17 -3 6 -17 10 -31 10 -54 0
-217 -190 -292 -340 -55 -112 -55 -113 34 -214 52 -60 91 -94 120 -107 43 -20
94 -70 94 -94 0 -7 16 -26 35 -42 21 -17 51 -58 73 -103 29 -59 45 -79 72 -92
19 -10 51 -35 70 -56 19 -21 56 -50 81 -65 56 -32 105 -85 151 -164 45 -76 54
-105 72 -227 l15 -99 83 -86 c45 -47 84 -88 85 -90 1 -2 30 2 65 8 35 6 116
13 180 15 111 4 120 3 150 -19 18 -13 57 -38 85 -55 57 -34 73 -50 49 -50 -8
0 -16 -4 -18 -9 -1 -4 -46 -22 -98 -38 -96 -31 -123 -54 -86 -75 9 -5 16 -19
16 -32 0 -45 13 -86 26 -86 8 0 14 -4 14 -10 0 -13 87 -13 95 0 7 11 74 10 81
-2 3 -4 25 -8 49 -8 39 0 46 4 64 34 35 56 86 91 129 88 31 -3 191 -70 305
-128 33 -16 192 -20 202 -4 16 26 132 0 189 -44 53 -40 97 -58 175 -72 148
-26 250 -16 356 36 106 51 223 65 288 34 33 -16 35 -15 98 16 84 43 189 128
189 154 0 25 -57 56 -127 70 -98 19 -147 47 -248 146 -85 82 -95 89 -175 114
-167 54 -199 72 -232 132 -37 67 -172 199 -233 228 -54 26 -217 76 -247 76
-10 0 -18 5 -18 10 0 6 -8 10 -18 10 -21 0 -52 30 -52 50 0 8 10 24 21 36 12
13 19 29 17 36 -3 7 -34 30 -69 50 -120 69 -137 81 -150 105 -12 22 -10 31 15
79 16 30 44 67 62 84 62 54 112 63 389 68 142 2 258 8 269 14 16 9 7 15 -62
43 -105 42 -132 60 -132 89 0 35 26 59 110 106 215 118 376 162 454 125 52
-25 80 -22 152 16 60 32 65 33 91 19 17 -10 43 -43 66 -87 33 -64 45 -77 99
-108 74 -44 97 -39 268 50 25 13 83 33 130 45 57 14 103 33 139 58 109 75 138
89 236 111 55 12 127 30 160 39 59 17 60 18 67 60 4 24 16 58 26 75 16 26 18
45 14 100 -7 111 28 157 123 157 20 0 56 5 79 11 35 8 56 8 104 -5 58 -14 63
-14 105 4 24 11 70 35 102 55 32 19 66 35 76 35 24 0 68 40 51 47 -21 9 -52
80 -51 120 0 21 9 61 18 88 16 45 21 50 47 48 16 0 48 -7 71 -14 41 -13 45
-12 123 29 44 23 93 42 109 42 26 0 29 3 35 46 11 85 9 94 -22 94 -27 0 -112
46 -126 68 -3 5 -7 26 -8 45 -4 47 -18 36 -18 -13 0 -46 -33 -103 -71 -122
-18 -9 -49 -12 -97 -8 -61 4 -75 9 -103 35 -39 37 -59 82 -59 135 l0 40 -78 0
c-43 0 -83 5 -89 11 -11 11 15 131 37 166 17 27 71 62 114 74 19 5 50 23 68
39 18 17 36 30 40 30 5 0 8 14 8 31 0 39 47 86 95 95 18 3 43 17 56 30 12 13
37 27 56 30 42 8 48 18 33 55 -14 34 -24 36 -42 11z"/>
</g>
</svg>
