<?xml version="1.0" standalone="no"?>
<!DOCTYPE svg PUBLIC "-//W3C//DTD SVG 20010904//EN"
 "http://www.w3.org/TR/2001/REC-SVG-20010904/DTD/svg10.dtd">
<svg version="1.0" xmlns="http://www.w3.org/2000/svg"
 width="771.000000pt" height="835.000000pt" viewBox="0 0 771.000000 835.000000"
 preserveAspectRatio="xMidYMid meet">
<metadata>
Created by potrace 1.15, written by Peter Selinger 2001-2017
</metadata>
<g transform="translate(0.000000,835.000000) scale(0.100000,-0.100000)"
fill="#000000" stroke="none">
<path d="M3489 8248 c-15 -27 -7 -106 22 -214 21 -78 21 -85 5 -118 -9 -18
-16 -42 -16 -51 0 -10 -20 -36 -44 -59 -37 -35 -48 -56 -77 -141 l-33 -100 3
-189 3 -188 -30 -32 c-36 -37 -72 -123 -72 -171 0 -23 -9 -45 -29 -67 -38 -45
-57 -85 -64 -137 -4 -34 -15 -53 -48 -87 -23 -24 -54 -65 -68 -91 l-26 -48
-160 -16 c-88 -9 -163 -14 -167 -12 -5 2 -8 0 -8 -6 0 -6 -10 -13 -22 -16 -34
-9 -53 -42 -71 -122 -16 -72 -60 -171 -101 -226 -11 -16 -21 -43 -21 -60 0
-29 -3 -32 -30 -30 -20 2 -41 -8 -69 -31 -41 -33 -146 -90 -146 -79 0 3 -6 1
-12 -5 -16 -12 -131 -42 -164 -42 -15 0 -24 -6 -24 -15 0 -8 -3 -15 -6 -15 -3
0 -12 7 -20 15 -9 8 -28 15 -44 15 -16 0 -31 4 -34 9 -3 5 -27 12 -53 16 -27
3 -65 15 -86 26 -21 10 -42 19 -48 19 -10 0 -24 10 -60 43 -10 9 -19 14 -19
10 0 -3 -9 2 -19 11 -11 10 -31 16 -47 14 -25 -3 -28 0 -30 27 0 18 -17 53
-37 82 -58 80 -107 205 -107 275 0 15 -10 36 -22 48 -20 18 -20 21 -6 33 10 7
23 45 31 93 9 45 24 100 35 122 14 29 16 44 9 51 -7 7 -14 84 -17 199 -5 177
-7 190 -33 247 -27 57 -114 181 -164 234 -13 13 -24 29 -24 35 -1 6 -3 18 -4
26 -1 8 -3 26 -4 40 -2 36 -13 49 -48 56 -29 6 -33 3 -49 -32 -9 -22 -22 -59
-28 -84 -12 -43 -11 -49 21 -115 29 -61 33 -79 33 -151 0 -47 6 -100 15 -124
9 -24 15 -77 15 -123 l0 -80 -100 -94 c-115 -109 -115 -111 -78 -239 l21 -74
-23 -25 c-13 -13 -38 -29 -56 -35 -39 -13 -46 -32 -42 -110 l3 -55 -73 0 c-70
0 -75 -2 -102 -31 -15 -17 -35 -53 -45 -80 -10 -27 -27 -58 -37 -70 -16 -18
-17 -26 -7 -70 6 -27 13 -79 16 -117 5 -64 4 -68 -24 -95 -15 -15 -36 -39 -46
-54 -14 -22 -25 -28 -53 -28 -55 0 -104 -66 -104 -142 0 -9 -4 -20 -10 -23 -5
-3 -10 -19 -10 -35 0 -16 -5 -32 -11 -36 -11 -7 -58 -103 -79 -165 -12 -33
-11 -39 8 -67 27 -37 27 -44 4 -65 -13 -12 -37 -17 -85 -17 -61 0 -69 -3 -111
-37 -40 -34 -45 -43 -45 -81 -1 -23 -8 -59 -16 -79 -8 -19 -15 -59 -15 -87 0
-57 15 -78 76 -109 26 -13 34 -27 49 -79 9 -35 25 -76 34 -93 9 -16 18 -41 21
-55 9 -42 78 -70 177 -70 l83 0 16 -38 c33 -85 175 -117 262 -59 111 73 162
91 327 112 22 3 68 12 103 20 92 22 135 19 219 -15 89 -36 116 -37 160 -7 28
18 33 28 33 61 0 22 -8 63 -17 93 -22 70 -14 77 87 81 74 4 80 2 107 -23 48
-45 95 -59 194 -56 44 1 59 28 59 103 0 29 6 58 14 67 7 9 18 30 23 46 10 33
53 59 113 70 30 5 44 1 85 -28 60 -41 117 -61 147 -52 13 4 46 27 75 50 49 39
58 43 130 50 46 4 95 15 120 27 48 24 123 92 172 158 19 25 41 51 50 58 21 17
113 15 137 -3 10 -8 33 -15 51 -15 25 0 34 6 45 30 7 17 16 30 20 30 4 0 23
13 41 30 53 46 144 90 187 90 46 0 66 -20 50 -49 -6 -12 -14 -21 -18 -21 -8 0
-131 -116 -151 -142 -11 -15 -9 -25 9 -62 18 -38 28 -47 56 -52 22 -4 50 -1
77 10 24 9 55 16 71 16 16 0 46 5 66 11 32 10 42 9 61 -5 40 -28 119 -13 119
23 0 6 4 11 9 11 5 0 11 14 15 30 3 19 15 34 30 41 20 10 30 8 57 -11 31 -23
34 -23 108 -11 132 22 336 117 401 186 l23 25 -21 23 c-12 13 -22 29 -22 35 0
20 43 40 102 47 45 5 77 18 148 61 62 38 109 58 148 65 31 6 72 19 90 30 60
35 92 19 78 -37 -6 -24 -73 -102 -82 -96 -11 6 -25 0 -43 -19 -11 -12 -24 -18
-29 -15 -6 3 -16 1 -24 -6 -7 -7 -20 -14 -28 -16 -8 -2 -18 -8 -21 -13 -3 -6
-16 -11 -27 -12 -12 -1 -22 -5 -22 -10 0 -4 -4 -5 -10 -2 -5 3 -10 1 -10 -5 0
-6 -4 -8 -10 -5 -5 3 -10 1 -10 -5 0 -6 -4 -9 -9 -5 -5 3 -16 -2 -24 -10 -9
-8 -25 -15 -37 -15 -11 0 -23 -8 -26 -17 -18 -56 -32 -80 -66 -120 -20 -24
-41 -43 -45 -43 -18 0 -43 -12 -43 -20 0 -5 -6 -7 -14 -4 -7 3 -21 -2 -30 -11
-9 -9 -16 -13 -16 -8 0 4 -4 3 -8 -2 -8 -12 -64 -39 -74 -37 -5 1 -8 -3 -8 -9
0 -5 -4 -8 -9 -4 -5 3 -12 1 -16 -4 -3 -6 -12 -8 -20 -4 -8 3 -15 0 -15 -6 0
-6 -7 -8 -15 -5 -8 4 -15 1 -15 -6 0 -7 -7 -10 -15 -6 -8 3 -15 1 -15 -5 0 -6
-7 -9 -15 -5 -8 3 -15 1 -15 -5 0 -5 -6 -9 -12 -8 -33 4 -50 -2 -45 -15 3 -8
-1 -20 -9 -26 -8 -7 -14 -18 -14 -26 0 -42 -72 -112 -83 -82 -3 10 -7 10 -17
1 -20 -18 30 -27 82 -15 95 23 253 85 291 115 33 27 49 33 110 37 l72 5 25 47
c34 63 54 82 119 119 31 18 82 54 114 80 91 76 122 63 94 -38 -16 -54 -40 -93
-59 -93 -5 0 -31 -15 -59 -32 -49 -33 -49 -33 -49 -88 l-1 -55 -75 -49 c-55
-36 -99 -55 -164 -72 -110 -29 -168 -57 -180 -89 -5 -13 -18 -29 -30 -35 -28
-15 -26 -54 7 -109 32 -56 34 -57 103 -77 30 -8 65 -20 77 -26 20 -10 27 -6
64 36 23 26 51 62 63 79 12 17 50 48 86 68 36 20 94 63 130 96 36 33 85 73
110 89 25 16 48 33 52 39 5 6 8 6 8 0 0 -5 24 13 53 41 66 63 158 131 203 150
32 13 38 13 60 -1 44 -28 32 -50 -67 -124 -43 -32 -56 -47 -52 -61 12 -46 -5
-69 -80 -106 -39 -20 -108 -60 -152 -89 -82 -55 -181 -142 -172 -151 11 -11
163 -7 199 5 26 9 51 31 93 86 59 77 85 92 189 110 32 5 53 21 115 86 60 62
82 79 104 79 47 0 110 41 290 190 40 33 52 38 68 30 10 -6 19 -14 19 -18 0 -4
-44 -51 -97 -103 -136 -134 -153 -149 -163 -149 -5 0 -16 -10 -24 -22 -9 -12
-16 -19 -16 -15 0 9 -61 -31 -72 -48 -4 -5 -8 -7 -8 -3 0 22 -40 -31 -40 -53
0 -42 -50 -86 -108 -95 -70 -10 -116 -31 -151 -69 -17 -19 -31 -38 -31 -43 0
-10 -55 -62 -96 -90 -27 -18 -52 -23 -150 -28 -66 -3 -139 -12 -164 -20 -155
-48 -223 -67 -289 -80 -67 -13 -141 -46 -149 -66 -2 -4 -10 -8 -18 -8 -8 0
-14 -6 -14 -12 0 -7 -17 -31 -38 -53 -20 -22 -57 -67 -82 -100 -25 -33 -48
-62 -52 -63 -5 -2 -8 -12 -8 -23 0 -10 -4 -19 -10 -19 -5 0 -10 -7 -10 -15 0
-8 -4 -15 -8 -15 -10 0 -42 -65 -42 -85 0 -8 -4 -15 -9 -15 -8 0 -71 -134 -71
-152 0 -5 20 3 45 18 30 17 87 34 168 50 165 32 199 46 230 93 21 32 34 40 69
46 57 9 99 36 133 85 15 22 31 40 35 40 3 0 28 -7 54 -16 77 -26 152 -16 219
30 l56 38 113 -7 c102 -6 118 -4 161 14 27 12 65 21 85 21 58 0 109 18 144 51
45 40 100 66 180 82 70 15 113 37 136 69 7 10 17 18 21 18 5 0 35 16 67 35 89
54 109 46 47 -18 l-36 -39 17 -34 c20 -43 21 -73 1 -80 -8 -4 -15 -12 -15 -20
0 -9 -11 -14 -33 -14 -37 0 -77 -24 -77 -46 0 -9 -11 -14 -35 -14 -46 0 -85
-39 -85 -85 0 -25 -4 -35 -16 -35 -9 0 -28 -13 -43 -29 -15 -16 -46 -34 -68
-40 -70 -19 -123 -78 -123 -137 0 -22 4 -23 78 -26 l77 -3 5 -73 c5 -68 8 -76
38 -103 28 -25 40 -29 90 -29 54 0 60 2 82 33 14 17 23 40 22 50 -7 40 20 88
75 132 56 46 93 62 112 50 18 -11 12 -33 -18 -67 -85 -99 -73 -143 48 -169 28
-6 53 -15 57 -20 3 -5 2 -56 -2 -114 l-7 -105 -54 0 c-40 0 -62 -6 -80 -20
-14 -11 -32 -20 -39 -20 -8 0 -14 -4 -14 -8 0 -5 -22 -14 -48 -20 -51 -11
-135 -5 -126 9 3 5 1 9 -5 9 -5 0 -17 -23 -26 -51 -20 -60 -13 -85 34 -120 39
-29 39 -49 0 -93 -22 -26 -41 -37 -73 -41 -26 -4 -59 -20 -85 -40 -23 -19 -59
-39 -79 -46 -20 -6 -42 -16 -49 -21 -7 -6 -33 -3 -72 8 -37 10 -73 14 -93 10
-18 -4 -59 -8 -90 -9 -44 -2 -61 -7 -72 -22 -20 -28 -28 -76 -21 -132 5 -40 2
-56 -19 -96 -14 -26 -26 -63 -26 -81 0 -31 -3 -35 -45 -47 -25 -7 -45 -17 -45
-21 0 -4 -11 -8 -25 -8 -24 0 -61 -7 -180 -37 -66 -16 -129 -49 -159 -82 -23
-25 -77 -50 -161 -75 -65 -20 -126 -43 -219 -84 -54 -24 -57 -27 -35 -33 13
-4 75 -7 137 -8 112 -1 113 -1 122 25 10 26 30 25 30 -3 0 -13 8 -14 52 -9 28
4 61 12 72 19 12 6 27 12 35 13 8 2 27 12 43 24 27 20 30 20 87 5 32 -8 77
-15 99 -15 84 0 217 38 333 94 65 32 66 32 119 17 72 -20 122 -5 228 65 l83
56 92 -1 c62 -1 101 4 119 13 22 12 33 12 65 1 20 -7 44 -12 53 -10 81 15 161
15 204 1 55 -19 140 -21 219 -5 30 6 67 9 81 5 22 -5 26 -12 26 -41 0 -26 -10
-46 -42 -82 -24 -27 -53 -71 -66 -98 -31 -68 -69 -91 -159 -97 -85 -6 -110
-22 -183 -113 -50 -63 -92 -95 -123 -95 -8 0 -17 -7 -21 -15 -3 -8 -10 -15
-16 -15 -11 0 -24 -10 -61 -43 -11 -10 -33 -20 -49 -24 -27 -5 -31 -3 -36 26
-5 24 -12 31 -31 31 -13 0 -29 4 -36 10 -7 5 -27 21 -44 36 -18 14 -33 34 -33
45 0 25 -27 14 -34 -15 -4 -15 -26 -34 -67 -55 -34 -17 -72 -45 -86 -61 -14
-17 -29 -30 -35 -30 -12 0 -89 83 -121 130 -22 34 -24 35 -87 34 -202 -3 -304
-18 -322 -47 -4 -7 -28 -12 -56 -11 l-48 0 -18 -45 c-10 -25 -22 -55 -26 -66
-5 -11 -9 -32 -8 -47 0 -27 2 -28 57 -29 47 0 69 -8 141 -47 71 -40 86 -52 88
-75 2 -15 -1 -27 -6 -27 -5 0 -26 -16 -46 -36 -86 -83 -116 -179 -77 -241 25
-39 95 -63 188 -63 l63 0 0 -30 c0 -39 -27 -54 -70 -39 -23 9 -42 9 -70 0 -20
-6 -53 -11 -71 -11 -81 0 -132 -32 -139 -88 -1 -4 -7 -14 -13 -22 -7 -8 -21
-31 -31 -50 -24 -45 -56 -80 -73 -80 -7 0 -13 -6 -13 -14 0 -8 -3 -16 -8 -18
-4 -1 -29 -29 -56 -61 -58 -68 -152 -144 -221 -177 -44 -21 -65 -24 -170 -25
-99 -1 -126 -4 -153 -20 -17 -11 -32 -22 -32 -26 0 -11 -166 -99 -187 -99 -10
0 -27 6 -38 14 -48 33 -159 23 -251 -23 -33 -16 -77 -34 -99 -40 -56 -15 -248
-13 -320 3 -33 8 -63 12 -67 10 -5 -3 -8 0 -8 5 0 6 -9 11 -20 11 -11 0 -29 9
-40 20 -11 11 -24 20 -30 20 -5 0 -10 4 -10 9 0 4 -21 16 -47 26 -40 15 -54
16 -90 7 -24 -7 -72 -12 -107 -12 -57 0 -65 -3 -80 -25 -24 -36 -14 -57 54
-117 32 -28 61 -59 63 -69 5 -17 28 -30 128 -68 46 -18 79 -22 193 -24 137 -2
138 -2 162 -30 25 -29 30 -69 15 -110 -11 -27 -19 -27 109 -7 88 14 111 23
166 67 76 60 188 89 303 79 96 -9 355 -78 396 -106 23 -16 142 -50 175 -50 73
0 129 29 204 105 51 52 85 77 121 91 74 27 140 70 176 115 37 47 67 64 129 73
143 20 178 37 225 111 26 40 44 56 72 65 66 22 108 47 175 107 84 75 107 93
116 93 9 0 62 83 62 97 0 5 17 15 38 22 30 9 41 20 60 59 14 29 40 60 69 82
26 19 55 50 66 68 24 40 45 52 94 52 44 0 85 -24 129 -76 l31 -37 18 47 c22
57 37 66 109 66 l56 0 -2 98 c-2 111 13 156 61 185 34 20 94 22 109 5 5 -7 15
-32 21 -55 26 -96 90 -74 146 50 90 200 118 249 173 305 101 101 202 116 435
61 73 -16 186 -34 252 -40 129 -10 204 -24 247 -45 15 -8 30 -14 33 -14 3 0 5
1360 5 3021 l-1 3021 -137 -6 c-247 -13 -387 -34 -646 -98 -87 -21 -200 -52
-252 -69 -52 -16 -106 -32 -122 -34 -15 -3 -58 -12 -97 -21 -66 -15 -142 -13
-168 3 -6 4 -18 8 -27 9 -8 1 -51 7 -95 13 -44 6 -118 13 -165 15 -87 4 -180
24 -180 38 0 4 -4 8 -10 8 -15 0 -44 32 -90 101 -58 87 -109 139 -137 139 -26
0 -63 -51 -83 -112 -14 -45 -71 -98 -106 -98 -30 0 -124 50 -124 65 0 18 -100
106 -129 115 -35 10 -284 13 -366 5 -53 -6 -64 -4 -95 18 -19 13 -53 36 -74
50 -26 18 -52 27 -78 27 -52 0 -138 29 -146 49 -3 8 -17 26 -31 39 -21 20 -34
23 -67 19 -23 -2 -56 -12 -74 -21 -47 -23 -75 -20 -134 13 -28 16 -80 35 -116
42 -66 12 -92 25 -143 66 -16 13 -40 23 -53 23 -13 0 -48 14 -77 30 -64 36
-102 39 -118 8z"/>
</g>
</svg>
