<?xml version="1.0" standalone="no"?>
<!DOCTYPE svg PUBLIC "-//W3C//DTD SVG 20010904//EN"
 "http://www.w3.org/TR/2001/REC-SVG-20010904/DTD/svg10.dtd">
<svg version="1.0" xmlns="http://www.w3.org/2000/svg"
 width="452.000000pt" height="320.000000pt" viewBox="0 0 452.000000 320.000000"
 preserveAspectRatio="xMidYMid meet">
<metadata>
Created by potrace 1.15, written by Peter Selinger 2001-2017
</metadata>
<g transform="translate(0.000000,320.000000) scale(0.100000,-0.100000)"
fill="#000000" stroke="none">
<path d="M3730 3177 c-59 -22 -127 -74 -175 -135 -25 -31 -59 -74 -76 -95 -37
-46 -88 -72 -244 -127 -132 -46 -188 -75 -245 -126 -40 -37 -81 -118 -82 -165
-1 -17 -7 -29 -15 -29 -9 0 -13 -13 -13 -39 0 -22 -6 -43 -12 -48 -7 -4 -80
-10 -163 -13 -138 -5 -154 -7 -205 -33 -30 -15 -90 -59 -134 -98 l-79 -71
-146 7 -147 7 -55 -30 c-103 -59 -388 -119 -614 -129 l-130 -6 -105 55 c-58
30 -122 61 -143 68 -53 17 -140 15 -217 -5 -77 -20 -181 -23 -346 -11 -117 8
-216 3 -242 -13 -6 -4 -26 -70 -43 -147 -17 -76 -44 -174 -60 -216 -16 -42
-29 -91 -29 -108 0 -45 25 -125 63 -199 27 -54 37 -66 65 -73 34 -9 89 -73 97
-112 2 -12 9 -52 16 -90 7 -41 19 -76 30 -87 11 -11 19 -33 19 -54 0 -19 5
-35 10 -35 6 0 10 -8 10 -17 0 -27 34 -72 69 -94 24 -14 31 -26 31 -49 l0 -30
76 0 77 0 36 -42 c20 -23 64 -72 97 -108 34 -36 66 -75 73 -87 14 -28 14 -88
0 -115 -6 -11 -9 -21 -7 -23 2 -1 44 8 95 21 50 12 125 24 165 24 143 3 189
28 267 143 27 40 56 79 66 87 44 36 456 16 587 -29 99 -34 341 -160 455 -237
38 -26 132 -44 225 -44 123 0 298 -77 374 -164 24 -28 59 -76 77 -106 52 -88
142 -130 286 -132 l81 -1 112 77 c62 43 165 115 228 161 121 89 285 179 344
190 85 17 65 60 -88 190 -182 154 -233 232 -207 318 34 113 39 140 50 234 17
159 46 210 131 228 175 36 349 166 423 317 55 111 71 184 71 323 1 179 -21
212 -205 306 -168 86 -244 175 -270 314 -8 44 -8 99 2 213 16 207 12 222 -79
265 -77 36 -173 46 -232 24z"/>
</g>
</svg>
