<?xml version="1.0" standalone="no"?>
<!DOCTYPE svg PUBLIC "-//W3C//DTD SVG 20010904//EN"
 "http://www.w3.org/TR/2001/REC-SVG-20010904/DTD/svg10.dtd">
<svg version="1.0" xmlns="http://www.w3.org/2000/svg"
 width="447.000000pt" height="755.000000pt" viewBox="0 0 447.000000 755.000000"
 preserveAspectRatio="xMidYMid meet">
<metadata>
Created by potrace 1.15, written by Peter Selinger 2001-2017
</metadata>
<g transform="translate(0.000000,755.000000) scale(0.100000,-0.100000)"
fill="#000000" stroke="none">
<path d="M20 7515 c6 -8 9 -19 6 -24 -4 -5 -3 -12 2 -15 4 -2 4 -49 0 -103 -5
-54 -5 -105 -2 -113 4 -8 6 -34 5 -57 -2 -27 2 -43 9 -43 6 0 9 -4 5 -9 -3 -6
1 -25 10 -43 8 -18 13 -25 10 -15 -2 9 0 17 6 17 13 0 31 -49 23 -62 -4 -7 -2
-8 4 -4 7 4 12 0 13 -11 1 -13 3 -11 9 7 8 25 8 25 9 -4 1 -16 4 -26 8 -23 3
4 22 -9 41 -29 34 -35 47 -42 85 -43 12 -1 17 -10 17 -33 0 -18 6 -45 14 -59
12 -24 26 -74 41 -151 4 -21 9 -25 27 -20 19 5 21 2 14 -28 -3 -19 -3 -31 0
-27 12 11 34 -14 33 -37 0 -20 -1 -20 -8 -2 -7 18 -9 16 -19 -12 -9 -26 -7
-42 9 -90 11 -31 25 -72 31 -89 6 -18 14 -33 18 -33 3 0 7 -10 9 -22 3 -24 4
-38 1 -140 -1 -40 6 -87 19 -130 16 -51 20 -80 15 -121 -7 -61 1 -111 16 -102
6 3 10 -1 10 -9 0 -26 50 -24 125 5 52 20 93 24 110 11 6 -4 17 -20 26 -37 20
-37 91 -75 139 -75 19 0 56 7 81 14 l46 14 59 -39 c79 -52 114 -63 181 -54
l55 7 62 -66 c60 -65 62 -66 113 -66 44 0 55 -4 72 -26 12 -15 21 -35 21 -46
0 -22 44 -42 76 -34 12 3 39 -1 59 -10 22 -9 49 -13 63 -9 39 10 89 53 117
100 14 24 31 47 38 52 6 4 60 10 118 13 89 6 114 11 154 33 26 15 60 27 76 27
15 0 31 5 34 10 9 14 85 12 115 -3 16 -8 27 -24 31 -47 5 -22 22 -48 46 -70
59 -53 67 -79 41 -136 -37 -85 -16 -139 81 -206 22 -15 23 -20 13 -43 -22 -47
-15 -94 17 -124 46 -43 46 -105 0 -174 -31 -47 -31 -48 -15 -87 9 -22 16 -50
16 -62 0 -12 -23 -72 -52 -132 -39 -82 -64 -121 -101 -157 -47 -46 -50 -50
-44 -90 4 -30 1 -49 -12 -68 -9 -14 -22 -35 -27 -46 -6 -11 -24 -27 -40 -36
-16 -9 -28 -23 -26 -31 1 -8 -5 -28 -13 -44 -18 -35 -19 -69 -3 -127 10 -39 8
-53 -17 -130 -15 -48 -32 -87 -38 -87 -5 0 -34 24 -63 53 -53 52 -53 52 -55
121 -2 67 -3 69 -35 82 -18 8 -42 14 -53 14 -37 0 -156 43 -179 65 -17 16 -24
38 -31 96 -10 89 -15 100 -75 158 -50 49 -48 50 -65 -37 -15 -75 -13 -124 9
-230 26 -124 28 -157 7 -180 -9 -10 -17 -33 -17 -51 0 -23 -10 -44 -30 -67
-41 -47 -53 -101 -45 -199 7 -78 5 -86 -25 -156 -18 -41 -40 -95 -50 -122 -9
-26 -20 -50 -23 -53 -3 -4 -61 -6 -129 -5 -133 1 -151 -4 -190 -54 -20 -26
-23 -41 -23 -118 0 -81 -2 -90 -24 -108 -13 -10 -33 -19 -46 -19 -12 0 -35 -2
-51 -6 -26 -4 -33 0 -62 43 -17 27 -32 56 -32 65 0 27 -46 56 -116 72 -37 8
-76 24 -89 36 -13 12 -57 31 -97 42 -40 10 -86 28 -101 39 -16 12 -30 19 -32
17 -20 -23 -68 -140 -67 -166 2 -40 33 -87 73 -108 45 -23 34 -47 -25 -56 -26
-4 -50 -9 -52 -11 -3 -3 3 -23 12 -46 17 -43 65 -91 90 -91 8 0 20 -12 26 -26
10 -21 9 -27 -3 -35 -22 -14 -77 -11 -110 7 -17 8 -33 14 -35 11 -3 -2 3 -47
12 -99 16 -86 20 -97 46 -112 21 -13 28 -25 28 -49 0 -73 57 -124 203 -177
l87 -33 0 -71 c0 -49 7 -84 20 -115 11 -23 17 -47 14 -52 -3 -5 -47 -9 -97
-10 -115 -1 -158 -15 -169 -55 -14 -52 8 -114 80 -223 42 -64 83 -91 137 -91
51 0 62 -8 67 -45 2 -19 11 -34 26 -41 31 -15 31 -14 47 -79 9 -32 31 -84 51
-116 l35 -58 61 -3 61 -3 14 -50 c8 -27 19 -54 24 -60 25 -26 3 -55 -42 -55
-17 0 -18 -5 -13 -42 8 -55 27 -85 70 -110 47 -28 48 -70 1 -98 -51 -30 -55
-36 -62 -93 -8 -60 6 -123 34 -159 18 -22 25 -23 95 -21 81 4 78 5 90 -49 9
-39 39 -52 131 -58 l80 -5 5 -48 c3 -26 13 -54 21 -62 8 -8 65 -26 128 -40 63
-14 125 -32 140 -40 14 -7 57 -45 94 -83 105 -109 129 -106 190 22 33 70 77
116 109 116 18 0 77 -37 100 -63 11 -12 35 -47 55 -77 76 -118 119 -143 263
-155 121 -10 161 -15 235 -30 149 -30 189 -27 410 37 281 81 353 99 484 123
145 27 404 55 513 55 l68 0 0 3635 0 3635 -2216 0 c-1939 0 -2215 -2 -2204
-15z"/>
</g>
</svg>
