<?xml version="1.0" standalone="no"?>
<!DOCTYPE svg PUBLIC "-//W3C//DTD SVG 20010904//EN"
 "http://www.w3.org/TR/2001/REC-SVG-20010904/DTD/svg10.dtd">
<svg version="1.0" xmlns="http://www.w3.org/2000/svg"
 width="401.000000pt" height="419.000000pt" viewBox="0 0 401.000000 419.000000"
 preserveAspectRatio="xMidYMid meet">
<metadata>
Created by potrace 1.15, written by Peter Selinger 2001-2017
</metadata>
<g transform="translate(0.000000,419.000000) scale(0.100000,-0.100000)"
fill="#000000" stroke="none">
<path d="M2250 4170 c-71 -15 -214 -62 -221 -72 -3 -5 -8 -8 -10 -6 -7 6 -89
-25 -89 -34 0 -4 -9 -8 -20 -8 -18 0 -149 -58 -160 -71 -3 -3 -17 -9 -31 -12
-14 -4 -40 -24 -57 -46 -22 -28 -45 -44 -72 -51 -50 -13 -140 -7 -180 13 -37
19 -37 16 0 -25 38 -41 46 -86 32 -171 -7 -37 -12 -79 -12 -93 0 -14 -12 -37
-30 -54 -25 -24 -27 -30 -15 -40 17 -14 19 -88 6 -157 -13 -70 -47 -109 -130
-149 -65 -33 -76 -36 -95 -24 -52 33 -80 42 -141 42 -36 1 -65 4 -65 8 0 5
-13 13 -30 19 -16 5 -30 15 -30 20 0 6 -20 11 -44 11 -25 0 -48 5 -51 10 -3 6
-14 10 -24 10 -10 0 -27 12 -37 26 -39 53 -49 59 -89 59 -22 0 -46 6 -53 13
-22 20 -67 14 -105 -16 -55 -44 -115 -110 -122 -135 -4 -12 -18 -50 -31 -84
-13 -34 -24 -76 -24 -94 0 -43 -19 -104 -40 -127 -9 -10 -19 -37 -22 -60 -6
-41 -61 -120 -80 -114 -4 1 -8 -3 -8 -9 0 -5 -4 -8 -9 -4 -6 3 -7 -24 -4 -68
5 -59 2 -79 -13 -107 -12 -22 -17 -50 -15 -76 1 -24 -4 -55 -13 -72 -9 -17
-16 -42 -16 -55 0 -17 -10 -29 -33 -42 -28 -15 -35 -26 -45 -71 -9 -43 -8 -62
2 -92 15 -41 18 -213 5 -248 -6 -17 -2 -27 18 -43 21 -19 35 -22 86 -19 l62 3
-3 -75 c-4 -81 -20 -131 -54 -167 -32 -35 -5 -27 44 11 67 54 165 99 225 104
38 3 54 9 58 22 3 9 21 43 41 76 20 32 38 73 41 89 7 50 21 83 48 120 26 33
29 34 73 28 26 -3 53 -12 59 -21 9 -11 13 -62 13 -171 l0 -156 -39 -71 c-37
-67 -39 -75 -34 -136 3 -35 0 -102 -6 -148 -16 -120 -2 -189 54 -255 23 -27
50 -63 60 -79 10 -15 36 -39 57 -52 57 -36 74 -81 82 -209 7 -108 6 -110 -19
-137 -14 -15 -25 -38 -25 -51 0 -20 10 -26 73 -46 131 -41 177 -88 177 -181 0
-32 7 -48 34 -78 33 -36 36 -37 115 -40 l81 -4 1 -67 c0 -36 6 -84 12 -105
l12 -40 165 2 c257 4 267 7 289 90 8 28 17 42 29 42 9 1 31 19 47 42 l30 41
91 -2 91 -2 5 73 c5 79 33 156 72 198 16 17 26 43 30 80 8 59 36 133 63 162
22 25 55 22 86 -6 58 -54 79 -344 29 -413 -33 -46 -28 -67 32 -127 50 -50 58
-54 112 -59 33 -3 80 -9 105 -13 l47 -6 17 51 c12 36 30 63 64 94 35 30 59 65
85 121 38 83 44 90 114 133 72 43 118 55 161 42 32 -10 43 -8 77 9 21 11 52
34 68 51 27 28 30 40 42 153 19 179 55 266 176 424 77 100 188 252 188 258 0
3 13 25 30 49 38 57 67 125 91 212 10 39 45 155 78 258 60 187 111 391 111
440 0 15 -8 42 -17 62 -15 31 -15 41 -4 86 16 63 18 61 -109 129 -114 62 -158
101 -166 149 -11 62 -28 83 -151 176 -32 25 -70 54 -84 65 -25 21 -26 21 -118
4 -77 -15 -101 -16 -148 -6 -93 19 -234 117 -266 184 -9 19 -21 71 -26 117 -8
58 -25 119 -57 200 -58 144 -61 157 -68 259 -4 51 -12 92 -22 108 -18 26 -148
94 -182 94 -11 0 -27 6 -34 13 -21 20 -78 59 -78 53 0 -3 -15 11 -33 31 -30
32 -40 36 -88 39 -30 2 -74 -1 -99 -6z"/>
</g>
</svg>
