<?xml version="1.0" standalone="no"?>
<!DOCTYPE svg PUBLIC "-//W3C//DTD SVG 20010904//EN"
 "http://www.w3.org/TR/2001/REC-SVG-20010904/DTD/svg10.dtd">
<svg version="1.0" xmlns="http://www.w3.org/2000/svg"
 width="281.000000pt" height="214.000000pt" viewBox="0 0 281.000000 214.000000"
 preserveAspectRatio="xMidYMid meet">
<metadata>
Created by potrace 1.15, written by Peter Selinger 2001-2017
</metadata>
<g transform="translate(0.000000,214.000000) scale(0.100000,-0.100000)"
fill="#000000" stroke="none">
<path d="M2295 2119 c-16 -5 -66 -14 -110 -20 -150 -21 -206 -40 -299 -104
-57 -39 -62 -40 -140 -40 -56 0 -92 5 -117 17 -37 18 -99 80 -99 98 0 6 -26
10 -58 10 l-57 0 -23 -44 c-13 -24 -51 -77 -85 -119 -34 -41 -70 -89 -79 -106
-22 -41 -56 -47 -142 -27 -118 27 -152 22 -251 -39 -32 -20 -53 -25 -109 -25
-38 0 -83 4 -100 9 -92 29 -238 61 -274 61 -41 0 -42 -1 -42 -33 0 -21 -8 -41
-20 -52 -15 -13 -20 -31 -20 -67 0 -58 -18 -105 -61 -160 -38 -47 -48 -110
-29 -186 13 -57 19 -61 107 -69 47 -4 70 -12 88 -29 24 -22 36 -72 15 -59 -5
3 -10 2 -10 -2 0 -13 -65 -34 -84 -27 -9 3 -16 2 -16 -4 0 -5 -28 -19 -62 -32
-35 -12 -70 -25 -79 -30 -9 -5 -41 -14 -72 -21 -49 -12 -57 -17 -57 -36 0 -13
5 -23 10 -23 6 0 10 -15 10 -32 0 -52 11 -78 31 -78 11 0 19 -7 19 -16 0 -15
11 -15 98 -8 53 4 110 8 127 7 22 0 38 9 64 38 18 22 40 39 47 39 8 0 14 5 14
10 0 24 28 7 34 -21 6 -30 18 -44 129 -147 77 -71 199 -154 252 -171 97 -32
116 -52 125 -136 5 -47 7 -50 58 -79 58 -33 98 -97 90 -141 -6 -27 21 -56 84
-94 40 -24 108 -94 108 -114 1 -6 20 24 43 67 70 132 119 198 206 278 71 66
116 81 162 54 27 -16 30 -16 82 12 46 25 69 30 167 36 l112 7 99 93 c67 63
125 107 179 136 44 24 80 47 80 51 0 4 15 17 34 28 39 25 121 28 223 9 60 -11
65 -10 84 9 17 17 19 22 7 32 -7 6 -31 27 -53 46 -22 19 -43 35 -47 35 -5 0
-8 5 -8 11 0 6 -13 29 -29 52 -75 111 -181 399 -181 495 0 72 9 98 60 177 67
103 66 155 -4 250 -25 33 -51 67 -59 75 -18 19 -81 119 -90 143 -7 18 -34 21
-82 6z"/>
</g>
</svg>
