<?xml version="1.0" standalone="no"?>
<!DOCTYPE svg PUBLIC "-//W3C//DTD SVG 20010904//EN"
 "http://www.w3.org/TR/2001/REC-SVG-20010904/DTD/svg10.dtd">
<svg version="1.0" xmlns="http://www.w3.org/2000/svg"
 width="291.000000pt" height="293.000000pt" viewBox="0 0 291.000000 293.000000"
 preserveAspectRatio="xMidYMid meet">
<metadata>
Created by potrace 1.15, written by Peter Selinger 2001-2017
</metadata>
<g transform="translate(0.000000,293.000000) scale(0.100000,-0.100000)"
fill="#000000" stroke="none">
<path d="M2300 2913 c-25 -2 -117 -13 -205 -25 -88 -11 -210 -22 -272 -23 -92
-2 -119 -6 -158 -25 -47 -23 -50 -26 -115 -126 -49 -75 -115 -123 -273 -197
-136 -65 -133 -60 -172 -236 -13 -58 -35 -142 -49 -186 -43 -136 -105 -180
-397 -280 -90 -31 -165 -58 -167 -60 -2 -2 -7 -46 -12 -99 -5 -53 -14 -105
-20 -116 -5 -10 -10 -34 -10 -53 0 -21 -7 -41 -20 -52 -12 -11 -20 -31 -20
-51 0 -36 -42 -80 -97 -103 -21 -8 -33 -21 -36 -40 -3 -16 -22 -41 -42 -57
-20 -16 -64 -57 -98 -90 -40 -40 -74 -64 -95 -69 -17 -3 -32 -10 -32 -15 0 -4
20 -32 45 -62 24 -30 52 -72 61 -93 8 -21 26 -47 38 -56 13 -10 33 -40 44 -66
11 -26 37 -63 56 -81 21 -20 38 -47 42 -67 3 -19 16 -40 28 -48 12 -8 30 -31
41 -51 11 -20 26 -36 35 -36 8 0 40 -12 70 -26 30 -14 75 -31 100 -38 41 -10
45 -14 51 -49 3 -20 19 -63 35 -95 23 -44 30 -73 32 -132 2 -41 5 -80 7 -87 7
-22 95 12 139 55 56 54 82 65 147 65 43 0 68 -7 114 -31 67 -36 95 -31 95 18
0 56 128 140 215 140 18 0 58 -9 90 -20 l57 -20 22 28 c45 58 112 124 140 139
29 15 146 108 156 124 10 15 92 39 135 39 45 0 69 19 98 75 24 47 48 64 153
103 81 31 99 42 104 63 4 14 26 53 50 88 50 73 93 179 110 272 15 85 46 139
93 164 30 16 42 31 59 78 25 69 59 100 133 122 97 28 124 84 66 139 -61 58
-92 186 -76 311 5 42 13 64 31 80 l24 22 -87 33 c-137 51 -204 92 -264 162
-29 35 -73 81 -96 103 -34 32 -46 52 -58 100 -29 115 -10 262 49 385 14 30 26
55 26 57 0 3 -47 2 -120 -4z"/>
</g>
</svg>
