<?xml version="1.0" standalone="no"?>
<!DOCTYPE svg PUBLIC "-//W3C//DTD SVG 20010904//EN"
 "http://www.w3.org/TR/2001/REC-SVG-20010904/DTD/svg10.dtd">
<svg version="1.0" xmlns="http://www.w3.org/2000/svg"
 width="346.000000pt" height="368.000000pt" viewBox="0 0 346.000000 368.000000"
 preserveAspectRatio="xMidYMid meet">
<metadata>
Created by potrace 1.15, written by Peter Selinger 2001-2017
</metadata>
<g transform="translate(0.000000,368.000000) scale(0.100000,-0.100000)"
fill="#000000" stroke="none">
<path d="M172 3654 c-34 -23 -52 -67 -52 -124 0 -56 -6 -72 -55 -136 -45 -59
-60 -131 -45 -216 21 -114 52 -158 129 -177 126 -33 129 -34 160 -20 35 16 40
40 13 67 -13 13 -41 21 -87 25 -86 8 -109 24 -124 81 -21 84 -15 138 22 192
55 80 67 110 67 168 0 48 3 58 25 72 27 17 33 52 13 72 -16 16 -39 15 -66 -4z"/>
<path d="M375 2781 c-11 -5 -29 -18 -39 -30 -17 -19 -18 -24 -5 -48 44 -85
337 -320 433 -348 l56 -16 0 -43 c0 -58 32 -104 98 -139 52 -28 52 -29 52 -77
0 -57 25 -92 99 -142 71 -48 101 -79 101 -106 0 -40 27 -85 111 -183 81 -96
120 -130 177 -154 22 -10 32 -21 32 -36 0 -13 18 -38 45 -62 29 -27 58 -67 81
-114 33 -70 86 -123 121 -123 7 0 19 -13 28 -30 9 -18 42 -45 86 -70 55 -33
78 -54 106 -97 53 -84 70 -129 83 -228 14 -114 38 -163 108 -225 32 -27 68
-67 82 -90 29 -48 63 -60 130 -47 25 4 102 10 172 13 l127 4 50 -35 49 -35 48
20 48 21 -44 26 c-25 15 -62 40 -83 56 -21 16 -48 29 -60 28 -12 -1 -60 -1
-107 -1 -47 1 -121 -6 -165 -15 l-80 -17 -15 24 c-8 12 -50 60 -92 105 -43 45
-78 87 -78 95 0 7 -7 57 -15 111 -24 160 -108 296 -217 351 -31 16 -62 41 -76
62 -12 19 -39 41 -60 50 -42 17 -61 40 -86 106 -10 27 -35 63 -61 87 -24 22
-46 50 -50 63 -11 34 -24 47 -76 73 -28 15 -76 56 -119 103 -91 101 -120 144
-120 179 0 43 -34 89 -97 130 -95 62 -103 72 -103 117 0 53 -28 98 -75 120
-58 28 -75 50 -75 100 0 60 -27 92 -95 111 -29 9 -67 26 -84 38 -16 12 -52 37
-78 56 -77 56 -211 182 -227 214 -8 17 -12 36 -9 44 6 15 -3 16 -32 4z"/>
<path d="M3060 210 l-33 -28 53 -27 c132 -67 316 -146 335 -143 14 2 21 12 23
34 3 29 0 32 -45 49 -26 10 -105 46 -174 81 l-126 62 -33 -28z"/>
</g>
</svg>
