<?xml version="1.0" standalone="no"?>
<!DOCTYPE svg PUBLIC "-//W3C//DTD SVG 20010904//EN"
 "http://www.w3.org/TR/2001/REC-SVG-20010904/DTD/svg10.dtd">
<svg version="1.0" xmlns="http://www.w3.org/2000/svg"
 width="772.000000pt" height="922.000000pt" viewBox="0 0 772.000000 922.000000"
 preserveAspectRatio="xMidYMid meet">
<metadata>
Created by potrace 1.15, written by Peter Selinger 2001-2017
</metadata>
<g transform="translate(0.000000,922.000000) scale(0.100000,-0.100000)"
fill="#000000" stroke="none">
<path d="M1005 9194 c-98 -14 -219 -39 -390 -80 -221 -52 -382 -76 -497 -72
l-108 3 0 -4512 0 -4513 28 0 c15 0 113 -2 217 -4 302 -6 6988 -7 6993 -1 3 3
0 63 -6 133 -16 171 -15 328 2 386 29 95 117 214 295 397 138 142 161 175 161
234 0 89 -33 94 -193 31 -246 -97 -378 -106 -519 -35 -109 55 -178 151 -178
246 0 107 33 127 239 148 121 12 166 20 212 41 65 30 76 46 54 81 -20 29 -102
83 -127 83 -33 0 -88 28 -88 45 0 11 -33 32 -97 62 -65 30 -114 60 -145 91
l-48 46 -42 -41 c-47 -45 -121 -94 -213 -141 -33 -17 -84 -51 -113 -75 -28
-25 -60 -48 -70 -51 -9 -3 -64 -19 -121 -37 -88 -27 -112 -30 -160 -24 -31 4
-83 10 -116 14 -33 4 -70 12 -82 19 -35 19 -77 14 -138 -18 -67 -35 -76 -36
-100 -10 -24 27 -120 53 -172 47 -31 -3 -56 -16 -89 -43 -81 -69 -77 -67 -108
-39 -15 14 -57 39 -93 55 -36 16 -105 60 -155 97 l-89 67 7 52 c5 41 2 62 -15
99 -25 57 -26 78 -5 158 9 34 13 75 9 93 -4 25 1 47 20 85 38 73 43 145 16
201 -11 23 -37 54 -57 67 -28 19 -34 29 -29 45 4 12 9 35 12 51 3 17 19 44 35
60 32 32 82 154 92 223 8 64 -6 67 -117 22 -132 -53 -131 -53 -165 -113 -34
-60 -57 -73 -140 -80 -32 -2 -64 -12 -80 -24 -58 -44 -77 -179 -46 -342 34
-182 0 -244 -165 -306 -30 -11 -56 -25 -58 -30 -2 -6 20 -46 48 -90 44 -70 50
-85 45 -120 -6 -48 -46 -89 -103 -104 -59 -17 -77 -14 -152 25 -95 50 -145 54
-258 19 -133 -42 -193 -40 -325 13 -133 52 -181 55 -277 12 -45 -19 -98 -33
-156 -39 -56 -7 -95 -16 -104 -26 -11 -11 -18 -43 -21 -108 -5 -79 -11 -103
-41 -167 -20 -41 -59 -104 -87 -139 -37 -46 -53 -75 -58 -107 -9 -59 -31 -85
-106 -122 -39 -19 -87 -56 -126 -95 -74 -75 -135 -111 -213 -126 -126 -22
-244 25 -367 149 l-69 69 -84 -114 -84 -114 -537 -1 -538 0 0 750 0 751 38 -5
c20 -3 44 -1 52 4 8 5 12 10 7 10 -4 0 11 33 32 73 61 112 101 241 101 326 0
107 -32 150 -173 233 -89 52 -100 103 -45 218 44 93 68 162 68 198 0 76 -64
208 -170 352 -139 189 -160 240 -167 402 -7 146 12 237 100 483 26 70 85 399
108 595 9 73 21 124 40 168 16 35 36 100 45 145 24 120 62 188 158 283 90 89
176 150 343 243 61 34 118 70 127 79 18 21 31 77 45 192 19 151 81 278 165
338 69 50 143 65 366 77 173 10 286 40 310 84 17 33 12 56 -40 154 -64 123
-71 166 -36 235 34 68 74 96 193 136 54 18 112 40 129 49 42 22 134 95 134
107 0 5 8 19 18 30 18 21 19 31 22 142 3 77 -16 118 -76 163 -20 15 -56 59
-81 98 -52 82 -55 85 -106 116 -61 38 -98 131 -51 131 31 0 100 48 130 91 38
55 36 111 -7 215 -31 75 -68 114 -109 114 -34 0 -40 22 -14 55 30 40 34 103
10 140 -10 15 -16 38 -13 51 2 13 1 25 -2 26 -3 2 -14 19 -25 39 -43 87 -121
148 -186 149 -43 0 -124 -45 -166 -93 -23 -26 -57 -85 -80 -138 -40 -93 -78
-139 -115 -139 -39 0 -135 110 -193 221 -49 94 -91 142 -146 171 -96 49 -208
59 -385 32z"/>
</g>
</svg>
