<?xml version="1.0" standalone="no"?>
<!DOCTYPE svg PUBLIC "-//W3C//DTD SVG 20010904//EN"
 "http://www.w3.org/TR/2001/REC-SVG-20010904/DTD/svg10.dtd">
<svg version="1.0" xmlns="http://www.w3.org/2000/svg"
 width="368.000000pt" height="507.000000pt" viewBox="0 0 368.000000 507.000000"
 preserveAspectRatio="xMidYMid meet">
<metadata>
Created by potrace 1.15, written by Peter Selinger 2001-2017
</metadata>
<g transform="translate(0.000000,507.000000) scale(0.100000,-0.100000)"
fill="#000000" stroke="none">
<path d="M2070 5026 c-25 -19 -48 -31 -52 -29 -5 2 -8 -2 -8 -10 0 -8 -20 -33
-44 -55 -24 -22 -42 -43 -40 -45 3 -2 -12 -19 -33 -38 -21 -18 -38 -37 -38
-41 0 -5 -15 -22 -32 -37 -18 -16 -33 -33 -33 -39 0 -6 -20 -28 -45 -48 -24
-21 -42 -41 -39 -45 2 -4 -16 -24 -41 -44 -25 -21 -43 -41 -40 -45 5 -8 -53
-70 -66 -70 -5 0 -9 -6 -9 -13 0 -8 -31 -43 -68 -78 -38 -36 -73 -72 -78 -81
-5 -8 -24 -23 -42 -32 -18 -9 -30 -21 -27 -25 5 -9 -63 -66 -77 -66 -4 0 -15
-10 -23 -23 -9 -12 -21 -20 -26 -17 -5 4 -12 -1 -15 -9 -3 -9 -10 -13 -15 -10
-5 3 -12 -2 -16 -12 -7 -18 -97 -64 -128 -64 -74 -1 -162 -68 -241 -185 -66
-97 -154 -245 -146 -245 4 0 2 -4 -4 -8 -10 -7 -74 -108 -74 -117 0 -3 -20
-36 -45 -75 -25 -39 -45 -73 -45 -76 0 -2 -9 -14 -20 -26 -10 -12 -17 -25 -14
-30 3 -4 1 -8 -5 -8 -16 0 -48 -121 -70 -260 -11 -69 -23 -134 -26 -145 -4
-14 12 -50 51 -115 114 -193 112 -249 -14 -338 -32 -22 -65 -48 -72 -57 -8 -9
-53 -44 -102 -77 -133 -91 -170 -144 -190 -273 -27 -175 59 -394 238 -609 l32
-38 46 16 c26 9 52 16 59 16 42 2 208 120 244 175 11 17 32 66 48 110 43 116
79 143 150 109 38 -18 56 -47 75 -119 6 -24 37 -74 76 -124 72 -91 118 -174
133 -242 6 -24 11 -93 11 -154 0 -112 8 -185 19 -185 13 0 41 63 41 92 0 29 1
30 40 25 22 -2 37 -1 35 3 -7 11 55 61 66 54 5 -3 9 -1 9 4 0 12 93 57 135 66
17 4 47 7 67 8 29 1 38 6 40 22 2 11 15 27 30 35 33 19 78 6 93 -26 5 -13 21
-23 40 -27 78 -14 97 -19 102 -32 3 -8 9 -11 14 -8 11 6 79 -25 79 -36 0 -5 9
-12 21 -15 11 -4 36 -20 54 -37 29 -25 40 -29 66 -23 l32 7 -7 -36 c-6 -30 -3
-40 17 -62 34 -36 70 -112 63 -130 -3 -9 -2 -12 4 -9 11 7 18 -6 23 -40 1 -11
5 -24 9 -30 3 -5 9 -34 13 -63 7 -49 8 -52 24 -38 27 25 101 47 150 45 25 -1
85 1 133 6 85 8 87 9 100 39 7 17 34 54 60 83 36 40 48 61 48 86 1 41 30 105
64 136 16 16 26 35 26 53 0 55 22 115 61 166 37 49 39 56 40 129 1 43 -2 95
-6 116 -7 38 -8 39 -44 33 -196 -30 -214 -30 -326 -3 -6 1 -31 15 -57 30 -47
28 -53 36 -78 135 -13 50 -37 82 -62 82 -9 0 -22 8 -27 18 -6 9 -11 13 -11 7
0 -7 -3 -7 -8 0 -4 6 -28 20 -53 33 -26 13 -53 35 -60 49 -8 15 -50 50 -94 79
-155 101 -188 156 -159 267 19 72 13 97 -34 162 -48 66 -50 115 -7 177 40 56
125 123 221 174 43 22 83 48 88 57 7 11 6 34 -3 74 -8 32 -16 79 -18 106 -5
43 -2 50 26 76 27 25 33 39 41 105 13 103 40 151 108 185 12 6 22 18 22 26 0
9 16 16 48 20 60 7 143 33 182 57 34 20 70 73 70 103 0 12 17 37 38 57 76 75
191 103 304 74 77 -19 194 -34 298 -38 l75 -3 5 30 c8 46 77 76 175 78 71 2
76 3 71 22 -3 11 -6 50 -6 86 l0 66 -82 28 c-46 15 -90 34 -99 42 -8 7 -21 13
-27 13 -7 0 -12 5 -12 10 0 6 -3 9 -7 8 -5 -2 -9 2 -11 7 -2 6 -12 19 -22 30
-10 11 -24 40 -31 64 -7 24 -25 56 -41 71 -17 17 -28 40 -29 57 0 15 -6 55
-13 88 l-13 60 -59 -1 c-32 -1 -99 -3 -149 -5 -82 -3 -95 0 -147 26 -32 15
-58 31 -58 34 0 6 -38 52 -75 92 -8 9 -15 19 -15 23 0 8 -13 24 -64 76 -33 34
-44 40 -81 40 -62 0 -101 10 -124 32 -12 10 -21 16 -21 13 0 -3 -68 62 -150
145 -172 172 -179 175 -260 116z"/>
</g>
</svg>
