<?xml version="1.0" standalone="no"?>
<!DOCTYPE svg PUBLIC "-//W3C//DTD SVG 20010904//EN"
 "http://www.w3.org/TR/2001/REC-SVG-20010904/DTD/svg10.dtd">
<svg version="1.0" xmlns="http://www.w3.org/2000/svg"
 width="128.000000pt" height="130.000000pt" viewBox="0 0 128.000000 130.000000"
 preserveAspectRatio="xMidYMid meet">
<metadata>
Created by potrace 1.15, written by Peter Selinger 2001-2017
</metadata>
<g transform="translate(0.000000,130.000000) scale(0.100000,-0.100000)"
fill="#000000" stroke="none">
<path d="M602 1274 c-12 -8 -22 -21 -22 -28 0 -8 -26 -17 -69 -25 -73 -13
-189 -67 -232 -107 -16 -15 -37 -24 -57 -24 -28 0 -32 -3 -32 -28 0 -15 -11
-44 -25 -63 -14 -19 -33 -45 -42 -58 -27 -36 -61 -134 -74 -209 -6 -38 -18
-72 -27 -79 -14 -12 -14 -15 6 -33 14 -13 22 -33 22 -54 0 -73 78 -248 140
-313 11 -13 16 -23 10 -23 -6 0 -10 -10 -8 -22 2 -17 9 -23 25 -22 13 0 23 -3
23 -8 0 -5 4 -6 10 -3 9 6 92 -42 98 -57 2 -5 10 -8 18 -8 7 0 30 -9 51 -19
21 -11 59 -23 86 -26 26 -4 50 -11 53 -16 3 -5 18 -9 34 -9 16 0 35 -7 44 -15
18 -19 26 -19 26 -1 0 9 15 16 43 19 66 8 126 25 202 60 73 33 83 39 116 72
12 12 34 20 52 20 29 0 32 3 32 30 0 17 10 44 21 60 56 79 114 230 114 298 0
14 7 27 15 31 19 7 20 32 1 39 -7 3 -17 27 -20 54 -15 102 -65 225 -114 278
-19 21 -22 32 -16 61 l7 36 -33 -7 c-26 -6 -37 -2 -58 17 -33 29 -118 88 -127
88 -4 0 -21 6 -38 13 -51 22 -102 37 -125 37 -13 0 -22 6 -22 14 0 19 -38 46
-65 46 -11 0 -31 -7 -43 -16z"/>
</g>
</svg>
