<?xml version="1.0" standalone="no"?>
<!DOCTYPE svg PUBLIC "-//W3C//DTD SVG 20010904//EN"
 "http://www.w3.org/TR/2001/REC-SVG-20010904/DTD/svg10.dtd">
<svg version="1.0" xmlns="http://www.w3.org/2000/svg"
 width="258.000000pt" height="218.000000pt" viewBox="0 0 258.000000 218.000000"
 preserveAspectRatio="xMidYMid meet">
<metadata>
Created by potrace 1.15, written by Peter Selinger 2001-2017
</metadata>
<g transform="translate(0.000000,218.000000) scale(0.100000,-0.100000)"
fill="#000000" stroke="none">
<path d="M976 2105 c-62 -22 -108 -65 -120 -113 -14 -52 -61 -104 -123 -132
-27 -12 -56 -26 -67 -32 -14 -7 -21 -6 -27 4 -6 8 -9 9 -9 1 0 -6 -23 -14 -50
-18 -28 -4 -54 -13 -58 -21 -4 -7 -21 -24 -38 -36 -17 -13 -32 -27 -33 -33 0
-5 -5 -23 -10 -40 -6 -16 -12 -53 -14 -81 -5 -58 -19 -89 -47 -104 -25 -13
-25 -38 0 -125 34 -117 19 -147 -108 -206 -77 -35 -175 -109 -199 -149 -9 -17
-20 -30 -24 -30 -18 0 2 -54 37 -106 37 -54 39 -59 36 -128 -6 -168 -9 -155
34 -197 21 -21 44 -38 50 -39 6 0 19 -9 29 -20 10 -11 27 -22 39 -26 11 -3 41
-27 66 -53 25 -26 65 -56 90 -66 25 -11 59 -30 76 -42 17 -13 36 -23 42 -23 7
0 11 -3 10 -8 0 -4 7 -25 16 -46 10 -22 20 -56 23 -75 7 -45 17 -58 67 -83 55
-28 164 -27 270 1 79 22 105 40 106 73 0 9 4 19 9 22 5 3 11 20 14 38 13 78
52 163 92 203 43 41 74 118 61 151 -16 41 -36 165 -36 222 0 55 3 66 26 87 39
36 102 34 173 -5 30 -17 65 -30 79 -30 13 0 37 -10 54 -21 17 -12 40 -23 52
-23 11 -1 20 -7 19 -14 -3 -12 9 -16 35 -13 6 1 12 -2 12 -7 0 -5 20 -12 45
-15 24 -4 66 -20 92 -36 l47 -29 55 21 c31 11 77 21 103 21 43 1 51 -3 96 -47
44 -44 55 -49 114 -57 84 -12 93 -16 154 -61 61 -45 94 -55 124 -39 12 6 34
12 49 12 29 1 29 1 15 34 -8 19 -13 37 -12 41 2 5 -26 11 -62 14 -72 6 -113
27 -136 70 -16 32 -62 45 -114 34 -39 -8 -54 3 -88 69 -21 42 -26 65 -27 126
0 103 16 151 56 169 l31 14 -31 24 c-44 35 -60 71 -67 152 -6 69 -6 70 19 76
21 6 24 10 18 33 -7 24 -13 28 -60 32 -47 5 -57 10 -85 45 -36 44 -85 150 -86
182 0 14 -13 29 -35 43 -24 15 -35 29 -35 45 0 19 -6 23 -49 29 -27 3 -54 13
-61 21 -7 8 -18 15 -24 15 -6 0 -20 15 -31 33 -10 17 -22 34 -26 37 -12 8 -79
130 -85 156 -9 36 -26 41 -159 47 -68 4 -152 15 -195 27 -87 23 -149 25 -204
5z"/>
</g>
</svg>
