<?xml version="1.0" standalone="no"?>
<!DOCTYPE svg PUBLIC "-//W3C//DTD SVG 20010904//EN"
 "http://www.w3.org/TR/2001/REC-SVG-20010904/DTD/svg10.dtd">
<svg version="1.0" xmlns="http://www.w3.org/2000/svg"
 width="826.000000pt" height="665.000000pt" viewBox="0 0 826.000000 665.000000"
 preserveAspectRatio="xMidYMid meet">
<metadata>
Created by potrace 1.15, written by Peter Selinger 2001-2017
</metadata>
<g transform="translate(0.000000,665.000000) scale(0.100000,-0.100000)"
fill="#000000" stroke="none">
<path d="M6194 6626 c-16 -7 -64 -43 -105 -80 -102 -92 -139 -111 -214 -107
-205 10 -200 11 -371 -104 -77 -52 -109 -67 -170 -81 -120 -26 -190 -86 -387
-331 -164 -205 -211 -242 -281 -221 -47 15 -103 -2 -277 -82 -183 -85 -239
-96 -302 -63 -26 14 -74 18 -247 24 -224 7 -265 14 -341 57 l-47 26 -42 -34
c-42 -33 -43 -33 -71 -18 -28 16 -28 16 -47 -16 -35 -59 -117 -106 -184 -106
-34 0 -76 20 -102 49 -11 12 -24 21 -31 21 -20 0 -45 -35 -45 -62 0 -19 -14
-38 -46 -67 -51 -45 -89 -56 -167 -48 -47 4 -56 9 -98 56 -45 50 -46 51 -63
32 -10 -11 -31 -25 -47 -31 -16 -7 -43 -25 -60 -41 -42 -39 -92 -54 -129 -39
-35 14 -65 47 -75 80 -4 14 -18 37 -30 52 -13 15 -31 49 -41 75 -10 26 -18 49
-18 49 -1 1 -16 5 -35 9 l-34 7 31 -38 c17 -22 37 -61 44 -88 12 -46 11 -50
-15 -97 -17 -32 -27 -64 -27 -92 0 -54 -7 -64 -55 -80 -29 -10 -41 -21 -48
-43 -22 -71 -70 -168 -100 -201 -13 -15 -18 -30 -13 -46 6 -26 -12 -41 -38
-31 -7 3 -20 -1 -27 -8 -21 -19 -77 -58 -84 -58 -4 0 -13 -7 -21 -15 -21 -20
-172 -65 -228 -68 -32 -1 -45 -6 -41 -14 7 -19 -17 -28 -29 -11 -6 8 -42 20
-81 27 -119 22 -203 57 -270 115 -18 16 -40 25 -55 23 -21 -2 -25 2 -22 22 1
15 -7 35 -22 50 -58 62 -136 249 -136 328 0 14 -6 23 -15 23 -8 0 -15 7 -15
16 0 8 -5 12 -10 9 -19 -12 -80 60 -80 93 0 17 -13 59 -29 94 -24 54 -37 69
-76 92 -68 40 -167 111 -189 135 -22 24 -61 28 -73 6 -11 -19 -86 -45 -132
-45 -20 0 -56 -7 -81 -16 -29 -10 -60 -13 -87 -9 -22 3 -44 2 -47 -3 -7 -12
38 -32 73 -32 16 0 64 -11 107 -25 43 -14 90 -25 103 -25 16 0 40 -17 70 -49
27 -29 61 -54 84 -61 20 -6 37 -18 37 -26 0 -8 7 -17 15 -20 21 -9 94 -164
101 -216 5 -36 1 -50 -20 -81 -14 -21 -26 -50 -26 -65 0 -15 -9 -38 -20 -52
-24 -31 -24 -35 0 -68 22 -30 39 -90 49 -172 3 -30 11 -62 16 -70 5 -8 12 -57
17 -110 4 -52 10 -107 14 -122 5 -24 2 -29 -22 -39 -16 -6 -50 -13 -76 -16
-45 -5 -48 -8 -48 -35 0 -21 -12 -41 -47 -75 -64 -61 -119 -86 -181 -79 l-47
6 45 -14 c26 -7 57 -20 70 -28 14 -9 45 -19 70 -22 47 -7 110 -38 110 -55 0
-6 18 -38 40 -73 22 -35 43 -78 46 -96 4 -18 8 -32 10 -32 9 0 131 55 144 65
42 34 340 124 436 132 102 8 132 0 198 -56 36 -31 90 -62 146 -85 108 -45 167
-87 184 -129 8 -18 16 -71 19 -118 5 -73 14 -108 61 -227 41 -104 58 -162 65
-221 11 -97 28 -127 107 -186 102 -77 132 -82 350 -59 l60 6 55 -49 c29 -27
75 -63 100 -81 67 -45 108 -96 115 -143 10 -58 31 -79 143 -138 150 -78 167
-100 136 -174 -13 -31 -13 -39 0 -64 33 -63 7 -231 -75 -485 -27 -84 -65 -209
-85 -277 -51 -175 -94 -253 -259 -476 -117 -157 -175 -242 -187 -273 -6 -15
-23 -103 -39 -196 -27 -159 -31 -171 -61 -202 -17 -18 -56 -43 -85 -56 -44
-19 -54 -27 -54 -48 0 -14 -14 -54 -30 -89 -26 -55 -63 -190 -55 -199 2 -2 21
6 42 16 21 11 65 28 97 37 55 16 60 16 96 0 42 -19 71 -11 91 26 6 12 31 30
56 41 24 11 60 30 79 43 52 35 153 30 249 -12 39 -18 108 -38 155 -46 99 -17
117 -34 151 -135 l21 -62 61 5 c34 2 125 10 202 16 149 12 518 80 692 129 85
23 108 26 137 18 38 -12 71 -1 266 88 128 59 169 63 320 34 63 -13 147 -23
185 -23 75 0 106 11 164 60 l33 29 -26 30 c-56 67 -158 223 -191 291 -88 181
-92 395 -10 523 30 47 86 99 167 157 142 102 220 166 230 189 17 38 -4 103
-69 211 -30 51 -55 103 -55 116 -1 53 57 354 78 405 7 18 51 94 97 170 46 75
117 193 157 262 170 290 271 396 396 415 121 18 378 260 813 765 36 41 72 82
80 91 9 8 27 28 41 45 36 42 102 84 148 95 79 17 144 -19 237 -134 75 -91 154
-163 201 -183 17 -7 56 -15 86 -17 67 -5 88 -20 159 -111 116 -150 139 -169
222 -181 62 -9 249 13 262 32 9 12 15 12 45 0 19 -8 46 -18 60 -22 21 -5 19
-3 -8 14 -37 24 -74 95 -76 145 -1 28 2 31 32 34 37 4 39 8 13 36 -21 25 -41
78 -41 114 0 14 21 66 46 114 l45 89 -10 87 c-14 109 -13 184 2 242 l12 45
-34 10 c-19 6 -43 23 -55 38 -19 26 -22 46 -27 220 -4 106 -12 209 -18 230 -9
27 -27 48 -65 76 -29 22 -70 59 -90 82 -47 55 -96 153 -96 192 0 43 -53 88
-147 127 -100 41 -214 95 -233 112 -30 26 -88 104 -121 163 -18 33 -74 121
-124 195 -49 74 -117 180 -150 234 -73 121 -136 192 -236 266 -132 98 -262
161 -443 216 -88 27 -156 30 -202 10z"/>
<path d="M1947 5741 c-7 -32 -8 -33 -25 -18 -22 20 -39 23 -23 4 6 -8 8 -17 4
-20 -3 -4 0 -7 7 -7 16 0 50 -38 50 -57 0 -7 9 -22 20 -33 11 -11 20 -30 20
-43 0 -13 4 -27 10 -33 5 -5 15 -44 21 -87 13 -87 24 -95 63 -44 47 61 23 150
-53 200 -52 34 -71 64 -80 124 l-7 48 -7 -34z"/>
</g>
</svg>
