<?xml version="1.0" standalone="no"?>
<!DOCTYPE svg PUBLIC "-//W3C//DTD SVG 20010904//EN"
 "http://www.w3.org/TR/2001/REC-SVG-20010904/DTD/svg10.dtd">
<svg version="1.0" xmlns="http://www.w3.org/2000/svg"
 width="128.000000pt" height="128.000000pt" viewBox="0 0 128.000000 128.000000"
 preserveAspectRatio="xMidYMid meet">
<metadata>
Created by potrace 1.15, written by Peter Selinger 2001-2017
</metadata>
<g transform="translate(0.000000,128.000000) scale(0.100000,-0.100000)"
fill="#000000" stroke="none">
<path d="M594 1266 c-3 -8 -12 -12 -20 -9 -10 4 -14 -3 -14 -21 0 -23 -4 -26
-32 -26 -76 0 -241 -73 -288 -127 -16 -18 -30 -27 -32 -21 -7 19 -38 0 -38
-22 0 -11 -8 -28 -17 -38 -21 -22 -27 -32 -79 -132 -35 -68 -39 -82 -39 -152
0 -71 -4 -83 -27 -79 -5 0 -8 -8 -8 -19 0 -11 7 -20 15 -20 9 0 15 -9 15 -23
0 -79 78 -266 136 -328 15 -15 23 -35 22 -50 -3 -20 1 -24 23 -21 17 1 36 -7
57 -27 52 -51 148 -90 267 -112 39 -7 75 -19 83 -28 11 -15 13 -15 25 1 7 9
31 19 52 23 64 11 203 54 217 68 7 6 29 21 48 31 19 11 43 28 54 38 10 11 24
17 32 14 26 -10 44 4 38 31 -5 17 0 31 14 46 11 12 32 47 47 77 15 30 30 62
35 70 4 9 11 30 14 48 4 17 12 34 17 37 5 4 9 27 9 52 0 31 5 50 16 58 11 8
14 19 10 33 -4 12 -11 20 -16 17 -4 -3 -11 17 -14 43 -10 69 -45 179 -62 193
-8 6 -14 17 -14 23 0 7 -13 30 -30 52 -16 21 -30 51 -30 67 0 22 -5 27 -24 27
-14 0 -31 6 -38 13 -52 52 -238 137 -298 137 -26 0 -30 4 -30 26 0 18 -4 25
-14 21 -8 -3 -17 1 -20 9 -7 18 -55 18 -62 0z"/>
</g>
</svg>
