<?xml version="1.0" standalone="no"?>
<!DOCTYPE svg PUBLIC "-//W3C//DTD SVG 20010904//EN"
 "http://www.w3.org/TR/2001/REC-SVG-20010904/DTD/svg10.dtd">
<svg version="1.0" xmlns="http://www.w3.org/2000/svg"
 width="311.000000pt" height="136.000000pt" viewBox="0 0 311.000000 136.000000"
 preserveAspectRatio="xMidYMid meet">
<metadata>
Created by potrace 1.15, written by Peter Selinger 2001-2017
</metadata>
<g transform="translate(0.000000,136.000000) scale(0.100000,-0.100000)"
fill="#000000" stroke="none">
<path d="M670 1340 c-34 -4 -84 -22 -131 -47 -94 -50 -143 -60 -194 -39 -36
15 -95 22 -95 11 0 -3 14 -24 30 -47 17 -23 30 -51 28 -62 -2 -12 -26 -33 -61
-54 -84 -49 -182 -148 -213 -217 l-26 -57 18 -61 c21 -72 23 -225 5 -354 -14
-97 -8 -143 24 -177 47 -51 174 -60 370 -26 128 23 211 27 265 15 85 -18 177
-86 262 -193 36 -44 125 -14 257 87 l77 58 70 -39 c83 -47 97 -46 265 12 63
22 126 40 141 40 47 0 118 -30 228 -96 59 -35 114 -64 124 -64 38 0 153 74
311 200 211 168 294 221 444 281 53 22 113 51 134 65 57 38 67 71 67 231 0 76
5 156 10 178 10 45 -7 85 -37 85 -8 0 -31 17 -51 37 l-34 37 -32 -18 c-114
-67 -158 -74 -236 -37 -34 15 -65 21 -126 21 -44 0 -105 7 -134 16 -38 11 -68
14 -100 9 -109 -18 -257 -7 -325 25 -122 56 -105 53 -168 24 -63 -28 -47 -28
-331 -3 -102 9 -148 9 -170 1 -17 -6 -54 -14 -82 -18 -58 -7 -61 -5 -78 64
l-12 46 -70 18 c-156 39 -336 60 -424 48z"/>
</g>
</svg>
